<?xml version="1.0" encoding="UTF-8"?>
<svg version="1.1" xmlns="http://www.w3.org/2000/svg" width="505" height="284">
<path d="M0 0 C-0.45375 0.5775 -0.9075 1.155 -1.375 1.75 C-3.04238698 3.90427881 -3.04238698 3.90427881 -4 6.1875 C-5 8 -5 8 -8 9 C-9.09166275 10.93330603 -9.09166275 10.93330603 -10 13 C-10.66 13.66 -11.32 14.32 -12 15 C-12.99 16.485 -12.99 16.485 -14 18 C-14.66 18.66 -15.32 19.32 -16 20 C-18.49503252 22.93166321 -20.86361656 25.79542484 -23 29 C-23.66 29.66 -24.32 30.32 -25 31 C-25.66 31.99 -26.32 32.98 -27 34 C-27.99 34.99 -27.99 34.99 -29 36 C-29.66 36.99 -30.32 37.98 -31 39 C-32 40 -33 41 -34 42 C-34.66 42.99 -35.32 43.98 -36 45 C-36.99 45.99 -36.99 45.99 -38 47 C-38.66 47.99 -39.32 48.98 -40 50 C-40.99 50.99 -40.99 50.99 -42 52 C-42.66 52.99 -43.32 53.98 -44 55 C-45 56 -46 57 -47 58 C-49.14885985 60.60467861 -51.1258546 63.1887819 -53 66 C-53.66 66.66 -54.32 67.32 -55 68 C-55.66 68.99 -56.32 69.98 -57 71 C-57.66 71.66 -58.32 72.32 -59 73 C-61.49503252 75.93166321 -63.86361656 78.79542484 -66 82 C-66.66 82.66 -67.32 83.32 -68 84 C-68.66 84.99 -69.32 85.98 -70 87 C-70.66 87.66 -71.32 88.32 -72 89 C-72.66 89.99 -73.32 90.98 -74 92 C-75 93 -76 94 -77 95 C-77.66 95.99 -78.32 96.98 -79 98 C-79.99 98.33 -80.98 98.66 -82 99 C-81.34 83.16 -80.68 67.32 -80 51 C-81.32 50.67 -82.64 50.34 -84 50 C-84 49.34 -84 48.68 -84 48 C-84.99 48.33 -85.98 48.66 -87 49 C-88.67063747 48.00664799 -90.33675599 47.00568242 -92 46 C-93.99551782 45.64080679 -95.99548879 45.30503431 -98 45 C-98.99 44.34 -99.98 43.68 -101 43 C-103.11280345 42.36707617 -103.11280345 42.36707617 -105 42 C-105 41.34 -105 40.68 -105 40 C-106.485 40.495 -106.485 40.495 -108 41 C-109.35208914 40.37224433 -110.68163705 39.69580267 -112 39 C-114.32873375 38.31744011 -116.66182791 37.64949225 -119 37 C-119.66 36.67 -120.32 36.34 -121 36 C-121 35.34 -121 34.68 -121 34 C-122.485 34.495 -122.485 34.495 -124 35 C-124 34.01 -124 33.02 -124 32 C-122.25014646 31.52029877 -120.50011109 31.04126076 -118.75 30.5625 C-117.77546875 30.29566406 -116.8009375 30.02882812 -115.796875 29.75390625 C-114.87390625 29.50511719 -113.9509375 29.25632813 -113 29 C-111.92492187 28.70416016 -111.92492187 28.70416016 -110.828125 28.40234375 C-109 28 -109 28 -106 28 C-105.67 27.34 -105.34 26.68 -105 26 C-104.01 26.33 -103.02 26.66 -102 27 C-101.67 26.34 -101.34 25.68 -101 25 C-100.01 25.33 -99.02 25.66 -98 26 C-98 25.34 -98 24.68 -98 24 C-96.68 24.33 -95.36 24.66 -94 25 C-94 24.34 -94 23.68 -94 23 C-93.37996094 22.90203125 -92.75992188 22.8040625 -92.12109375 22.703125 C-84.99619706 21.50008568 -78.13562452 19.75528803 -71.1875 17.8046875 C-68 17 -68 17 -65 17 C-64.67 16.34 -64.34 15.68 -64 15 C-59.52459016 13.73770492 -59.52459016 13.73770492 -57 15 C-57 14.34 -57 13.68 -57 13 C-56.42636719 12.91363281 -55.85273437 12.82726562 -55.26171875 12.73828125 C-47.86095277 11.51417883 -40.68867142 9.66529854 -33.46362305 7.67700195 C-32.67125244 7.46132568 -31.87888184 7.24564941 -31.0625 7.0234375 C-30.35222656 6.82669434 -29.64195313 6.62995117 -28.91015625 6.42724609 C-27 6 -27 6 -24 6 C-23.67 5.34 -23.34 4.68 -23 4 C-20.6693782 3.64820803 -18.33564933 3.31669821 -16 3 C-15.2575 2.62875 -14.515 2.2575 -13.75 1.875 C-13.1725 1.58625 -12.595 1.2975 -12 1 C-11.01 1.33 -10.02 1.66 -9 2 C-8.67 1.34 -8.34 0.68 -8 0 C-5.00463263 -1.13617383 -3.02121511 -0.97110486 0 0 Z M-60 22 C-60 22.66 -60 23.32 -60 24 C-58.02 24 -56.04 24 -54 24 C-54 23.34 -54 22.68 -54 22 C-55.98 22 -57.96 22 -60 22 Z M-71 31 C-71 34.3 -71 37.6 -71 41 C-70.01 40.67 -69.02 40.34 -68 40 C-68.33 39.67 -68.66 39.34 -69 39 C-69.04092937 36.66702567 -69.04241723 34.33294775 -69 32 C-69.66 31.67 -70.32 31.34 -71 31 Z M-46 31 C-46 34.3 -46 37.6 -46 41 C-45.01 40.67 -44.02 40.34 -43 40 C-43 37.36 -43 34.72 -43 32 C-43.99 31.67 -44.98 31.34 -46 31 Z M-58 33 C-58.66 33.66 -59.32 34.32 -60 35 C-60 35.99 -60 36.98 -60 38 C-58.52486614 39.32082618 -58.52486614 39.32082618 -56.625 40.4375 C-53.70483547 42.37841257 -52.39709721 43.74010652 -51 47 C-50.01 47.33 -49.02 47.66 -48 48 C-47.01 46.68 -46.02 45.36 -45 44 C-47.93160628 39.60259058 -51.56567654 35.9052464 -56 33 C-56.66 33 -57.32 33 -58 33 Z M-60 48 C-60 48.66 -60 49.32 -60 50 C-57.36 50 -54.72 50 -52 50 C-53.89755144 47.65026182 -53.89755144 47.65026182 -57.125 47.875 C-58.07375 47.91625 -59.0225 47.9575 -60 48 Z " fill="#FFFFFF" transform="translate(126,107)"/>
<path d="M0 0 C2.64 0 5.28 0 8 0 C8.268125 0.639375 8.53625 1.27875 8.8125 1.9375 C9.88667752 4.33131686 9.88667752 4.33131686 13 5 C14.1875 7.5625 14.1875 7.5625 15 10 C15.66 10 16.32 10 17 10 C17.66 11.65 18.32 13.3 19 15 C19.66 15 20.32 15 21 15 C21.33 10.38 21.66 5.76 22 1 C24.64 1 27.28 1 30 1 C30 11.56 30 22.12 30 33 C27.36 33 24.72 33 22 33 C20.1875 30.6875 20.1875 30.6875 19 28 C17.50014391 26.33289654 17.50014391 26.33289654 16 25 C14.10479998 23.10479998 12.59336327 21.14757658 11 19 C10.67 18.67 10.34 18.34 10 18 C9.67 22.95 9.34 27.9 9 33 C6.03 33 3.06 33 0 33 C0 22.11 0 11.22 0 0 Z " fill="#FFFFFF" transform="translate(299,113)"/>
<path d="M0 0 C2.64 0.33 5.28 0.66 8 1 C8.33 11.56 8.66 22.12 9 33 C2 33 2 33 -1 32 C-1.66666667 30.33333333 -2.33333333 28.66666667 -3 27 C-3.99 26.67 -4.98 26.34 -6 26 C-7.1875 23.4375 -7.1875 23.4375 -8 21 C-8.66 21 -9.32 21 -10 21 C-10.66 19.35 -11.32 17.7 -12 16 C-12 21.61 -12 27.22 -12 33 C-15.3 33 -18.6 33 -22 33 C-21.67 22.44 -21.34 11.88 -21 1 C-14 1 -14 1 -11 2 C-10 4.5 -10 4.5 -9 7 C-8.01 7.33 -7.02 7.66 -6 8 C-4.8125 10.5625 -4.8125 10.5625 -4 13 C-3.34 13 -2.68 13 -2 13 C-1.67 13.66 -1.34 14.32 -1 15 C-0.67 10.05 -0.34 5.1 0 0 Z " fill="#FFFFFF" transform="translate(464,113)"/>
<path d="M0 0 C2.97 0 5.94 0 9 0 C9.33 3.96 9.66 7.92 10 12 C12.25440452 9.74559548 13.841272 7.31264393 15.5859375 4.65625 C17.84133801 2.01456543 19.91220835 1.09004898 23.359375 0.8046875 C24.54273438 0.83949219 24.54273438 0.83949219 25.75 0.875 C26.54921875 0.89304687 27.3484375 0.91109375 28.171875 0.9296875 C28.77515625 0.95289062 29.3784375 0.97609375 30 1 C29.05027941 2.42458088 28.09969704 3.84859557 27.14453125 5.26953125 C26.04557269 6.93109658 24.99044751 8.62140249 23.9375 10.3125 C22 13 22 13 19 14 C19.66 15.65 20.32 17.3 21 19 C21.66 19 22.32 19 23 19 C23.66 20.65 24.32 22.3 25 24 C25.66 24 26.32 24 27 24 C27.28875 24.61875 27.5775 25.2375 27.875 25.875 C28.93720042 28.13325765 28.93720042 28.13325765 31 30 C31 30.99 31 31.98 31 33 C22.81818182 33.62937063 22.81818182 33.62937063 19.5625 31.125 C19.046875 30.42375 18.53125 29.7225 18 29 C17.34 28.34 16.68 27.68 16 27 C15.30251417 25.68252676 14.63040043 24.35085807 14 23 C13.01 23 12.02 23 11 23 C10.34 26.3 9.68 29.6 9 33 C6.03 33 3.06 33 0 33 C0 22.11 0 11.22 0 0 Z " fill="#FFFFFF" transform="translate(248,113)"/>
<path d="M0 0 C12.87 0.495 12.87 0.495 26 1 C26.33 3.31 26.66 5.62 27 8 C21.39 8 15.78 8 10 8 C10 9.65 10 11.3 10 13 C14.62 13 19.24 13 24 13 C24 15.31 24 17.62 24 20 C19.38 20 14.76 20 10 20 C10 21.98 10 23.96 10 26 C15.28 26 20.56 26 26 26 C26.33 28.31 26.66 30.62 27 33 C18.42 33 9.84 33 1 33 C0.67 22.11 0.34 11.22 0 0 Z " fill="#FFFFFF" transform="translate(412,113)"/>
<path d="M0 0 C0.61875 0.28875 1.2375 0.5775 1.875 0.875 C2.205 1.865 2.535 2.855 2.875 3.875 C3.865 5.36 3.865 5.36 4.875 6.875 C5.205 7.865 5.535 8.855 5.875 9.875 C6.535 10.535 7.195 11.195 7.875 11.875 C8.143125 12.473125 8.41125 13.07125 8.6875 13.6875 C9.82740688 16.04962116 9.82740688 16.04962116 12.1484375 18.06640625 C15.15782104 21.16632998 17.38798278 24.36515581 19.6875 28 C20.09419922 28.62003906 20.50089844 29.24007812 20.91992188 29.87890625 C23.875 34.49776786 23.875 34.49776786 23.875 37.875 C19.35982804 38.27339753 16.83807043 36.93579662 12.875 34.875 C11.72 34.545 10.565 34.215 9.375 33.875 C5.91416092 32.88618883 3.05721684 31.53528705 -0.125 29.875 C-3.09774951 28.60096449 -5.96730271 27.57671051 -9.125 26.875 C-9.125 26.215 -9.125 25.555 -9.125 24.875 C-10.115 25.205 -11.105 25.535 -12.125 25.875 C-13.21351101 21.95636035 -13.06954226 20.38046733 -11.125 16.875 C-9.19072012 13.14244429 -7.35005517 9.57664258 -6.0625 5.5625 C-4.86141323 2.11938459 -3.93768645 -0.23162861 0 0 Z " fill="#FFFFFF" transform="translate(97.125,150.125)"/>
<path d="M0 0 C7.92 0 15.84 0 24 0 C24.33 2.31 24.66 4.62 25 7 C19.72 7 14.44 7 9 7 C8.67 8.65 8.34 10.3 8 12 C12.95 11.67 17.9 11.34 23 11 C23 13.97 23 16.94 23 20 C18.05 19.67 13.1 19.34 8 19 C8 20.98 8 22.96 8 25 C13.61 25 19.22 25 25 25 C25 27.31 25 29.62 25 32 C16.42 32 7.84 32 -1 32 C-0.67 21.44 -0.34 10.88 0 0 Z " fill="#FFFFFF" transform="translate(352,114)"/>
<path d="M0 0 C0.99 0.66 1.98 1.32 3 2 C3 2.99 3 3.98 3 5 C3.78375 5.78375 4.5675 6.5675 5.375 7.375 C7.96123223 9.96123223 8.78783096 11.64322419 10 15 C10.66 15.33 11.32 15.66 12 16 C12 16.99 12 17.98 12 19 C12.66 19.66 13.32 20.32 14 21 C15.01775429 22.27772414 16.01595347 23.57113835 17 24.875 C17.515625 25.55304688 18.03125 26.23109375 18.5625 26.9296875 C20.59154538 29.85195394 21.8754888 32.62646641 23 36 C23.66 36.66 24.32 37.32 25 38 C24 39 24 39 21.40795898 39.11352539 C20.28204346 39.10828857 19.15612793 39.10305176 17.99609375 39.09765625 C16.78115234 39.09443359 15.56621094 39.09121094 14.31445312 39.08789062 C13.03505859 39.07951172 11.75566406 39.07113281 10.4375 39.0625 C9.15423828 39.05798828 7.87097656 39.05347656 6.54882812 39.04882812 C3.36583978 39.03699545 0.18294238 39.02051068 -3 39 C-3.12202367 30.19621825 -2.80135912 21.52198696 -2.0625 12.75 C-1.97548828 11.62464844 -1.88847656 10.49929687 -1.79882812 9.33984375 C-1.12862595 1.12862595 -1.12862595 1.12862595 0 0 Z " fill="#FFFFFF" transform="translate(52,78)"/>
<path d="M0 0 C3.63 0 7.26 0 11 0 C11.433125 1.010625 11.86625 2.02125 12.3125 3.0625 C12.58578125 3.69929688 12.8590625 4.33609375 13.140625 4.9921875 C13.69524435 6.28797998 14.24750304 7.5847866 14.796875 8.8828125 C16.10785387 11.97297699 17.45101881 15.02119001 19 18 C19.433125 16.88625 19.433125 16.88625 19.875 15.75 C20.82577399 13.42588579 21.87854624 11.24290752 23 9 C23.495 7.783125 23.99 6.56625 24.5 5.3125 C26 2 26 2 28 1 C30.6723621 0.86584528 33.32250488 0.95681459 36 1 C35.01825569 6.30141926 33.93618293 10.41955463 31 15 C30.49558938 16.26102656 30.01867278 17.53323285 29.5625 18.8125 C28.03984533 23.05820906 26.08190548 27.00499219 24 31 C23.67 31.66 23.34 32.32 23 33 C19.7 33 16.4 33 13 33 C12.566875 31.39125 12.566875 31.39125 12.125 29.75 C11.24880257 26.8293419 10.39049179 24.65093758 9 22 C3.66666667 11.64102564 3.66666667 11.64102564 2 6 C1.62875 4.88625 1.2575 3.7725 0.875 2.625 C0.58625 1.75875 0.2975 0.8925 0 0 Z " fill="#FFFFFF" transform="translate(376,113)"/>
<path d="M0 0 C-1.39332574 3.36720387 -2.9789286 4.9859524 -6 7 C-6.886875 6.484375 -7.77375 5.96875 -8.6875 5.4375 C-12.27817446 3.87928278 -13.38862287 3.76452888 -17 5 C-19.23408113 5.99083967 -19.23408113 5.99083967 -21 7 C-21 7.99 -21 8.98 -21 10 C-21.66 10 -22.32 10 -23 10 C-23 11.65 -23 13.3 -23 15 C-22.34 15 -21.68 15 -21 15 C-20.8453125 15.9590625 -20.8453125 15.9590625 -20.6875 16.9375 C-20.460625 17.618125 -20.23375 18.29875 -20 19 C-19.01 19.33 -18.02 19.66 -17 20 C-17 20.66 -17 21.32 -17 22 C-14.69 22 -12.38 22 -10 22 C-9.34 20.68 -8.68 19.36 -8 18 C-2.25 19.625 -2.25 19.625 0 23 C-2.02523602 26.03785403 -3.63144686 27.58738094 -7 29 C-7.99 29.495 -7.99 29.495 -9 30 C-11.12660246 29.98853584 -13.25318288 29.89304385 -15.375 29.75 C-16.51710937 29.68296875 -17.65921875 29.6159375 -18.8359375 29.546875 C-23.81433632 28.68641101 -26.20308864 25.87618686 -29.59375 22.3359375 C-32.60754954 17.3296816 -31.67347524 10.63882451 -31 5 C-29.64577129 2.02571251 -28.62047787 1.0589469 -26 -1 C-25.34 -1 -24.68 -1 -24 -1 C-23.34 -1.66 -22.68 -2.32 -22 -3 C-14.39384084 -5.17318833 -6.61131702 -4.40754468 0 0 Z " fill="#FFFFFF" transform="translate(174,117)"/>
<path d="M0 0 C0.72159424 1.64363134 1.39351421 3.31050386 2 5 C-0.64738916 6.4606285 -1.89448334 7 -5 7 C-6.41164137 6.54654732 -7.80776511 6.04284651 -9.1875 5.5 C-9.90292969 5.2215625 -10.61835938 4.943125 -11.35546875 4.65625 C-11.89816406 4.4396875 -12.44085938 4.223125 -13 4 C-13 4.66 -13 5.32 -13 6 C-14.65 6.33 -16.3 6.66 -18 7 C-18.2165625 7.8971875 -18.2165625 7.8971875 -18.4375 8.8125 C-18.8872439 10.56150404 -19.42892341 12.28677023 -20 14 C-19.07796291 16.36522558 -18.08301035 18.70401807 -17 21 C-16.34 21 -15.68 21 -15 21 C-15 21.66 -15 22.32 -15 23 C-12.69 23 -10.38 23 -8 23 C-7.67 22.34 -7.34 21.68 -7 21 C-5.02111039 20.27306096 -3.02045442 19.60183749 -1 19 C0.5625 21.3125 0.5625 21.3125 2 24 C1 27 1 27 -1 28 C-1.57621094 28.33515625 -2.15242188 28.6703125 -2.74609375 29.015625 C-5.55109674 30.24068696 -8.01645924 30.49333238 -11.0625 30.75 C-12.10535156 30.84796875 -13.14820313 30.9459375 -14.22265625 31.046875 C-17 31 -17 31 -20 29 C-20.825 28.525625 -21.65 28.05125 -22.5 27.5625 C-24.8336552 26.1039655 -26.33230061 25.15957702 -28 23 C-28.546875 20.0390625 -28.546875 20.0390625 -28.75 16.625 C-28.82734375 15.50351563 -28.9046875 14.38203125 -28.984375 13.2265625 C-29.00731327 8.48981011 -28.81730766 5.94984404 -25.6875 2.3125 C-18.00293687 -4.29979851 -9.01759526 -4.50879763 0 0 Z " fill="#FFFFFF" transform="translate(243,116)"/>
<path d="M0 0 C13.86 0.495 13.86 0.495 28 1 C28.33 3.31 28.66 5.62 29 8 C25.37 8 21.74 8 18 8 C18.33 16.25 18.66 24.5 19 33 C16.03 33 13.06 33 10 33 C10 24.75 10 16.5 10 8 C6.7 8 3.4 8 0 8 C0 5.36 0 2.72 0 0 Z " fill="#FFFFFF" transform="translate(475,113)"/>
<path d="M0 0 C2.64 0 5.28 0 8 0 C8 8.25 8 16.5 8 25 C13.28 24.67 18.56 24.34 24 24 C24 26.64 24 29.28 24 32 C15.75 32 7.5 32 -1 32 C-0.67 21.44 -0.34 10.88 0 0 Z " fill="#FFFFFF" transform="translate(175,114)"/>
<path d="M0 0 C0.9075 0.00257813 1.815 0.00515625 2.75 0.0078125 C4.11125 0.00394531 4.11125 0.00394531 5.5 0 C7.75 0.1328125 7.75 0.1328125 8.75 1.1328125 C8.89115161 3.80340101 8.79247107 6.45713488 8.75 9.1328125 C10.4 9.1328125 12.05 9.1328125 13.75 9.1328125 C13.87375 7.8334375 13.9975 6.5340625 14.125 5.1953125 C14.3359375 2.98046875 14.3359375 2.98046875 14.75 1.1328125 C15.41 0.8028125 16.07 0.4728125 16.75 0.1328125 C17.08 1.1228125 17.41 2.1128125 17.75 3.1328125 C18.08 2.4728125 18.41 1.8128125 18.75 1.1328125 C21.61588511 -0.30013005 23.65371436 0.56410697 26.75 1.1328125 C27.74 1.1328125 28.73 1.1328125 29.75 1.1328125 C30.245 2.6178125 30.245 2.6178125 30.75 4.1328125 C31.224375 3.4728125 31.69875 2.8128125 32.1875 2.1328125 C35.89875563 -0.76377726 39.20397207 -0.21688196 43.75 0.1328125 C43.75 1.1228125 43.75 2.1128125 43.75 3.1328125 C42.43 3.1328125 41.11 3.1328125 39.75 3.1328125 C39.75 3.7928125 39.75 4.4528125 39.75 5.1328125 C41.07 4.8028125 42.39 4.4728125 43.75 4.1328125 C43.75 5.7828125 43.75 7.4328125 43.75 9.1328125 C40.11576791 11.45872104 36.97911669 11.29547083 32.75 11.1328125 C32.09 9.8128125 31.43 8.4928125 30.75 7.1328125 C30.75 8.4528125 30.75 9.7728125 30.75 11.1328125 C26.41666667 11.1328125 22.08333333 11.1328125 17.75 11.1328125 C16.33463227 11.16784191 14.91926822 11.20301995 13.50390625 11.23828125 C11.77344759 11.26625633 10.04297818 11.29357222 8.3125 11.3203125 C7.00442383 11.35801758 7.00442383 11.35801758 5.66992188 11.39648438 C4.83138672 11.40615234 3.99285156 11.41582031 3.12890625 11.42578125 C1.97757202 11.44934692 1.97757202 11.44934692 0.80297852 11.47338867 C-1.25 11.1328125 -1.25 11.1328125 -3.03930664 9.84106445 C-4.25 8.1328125 -4.25 8.1328125 -4 4.5078125 C-3.03811572 0.17933322 -3.03811572 0.17933322 0 0 Z M21.75 2.1328125 C20.64163577 4.01597409 20.64163577 4.01597409 19.75 6.1328125 C20.08 6.7928125 20.41 7.4528125 20.75 8.1328125 C24.64459074 8.34363101 24.64459074 8.34363101 27.75 7.1328125 C27.42 5.8128125 27.09 4.4928125 26.75 3.1328125 C25.1 2.8028125 23.45 2.4728125 21.75 2.1328125 Z M34.75 2.1328125 C34.42 2.7928125 34.09 3.4528125 33.75 4.1328125 C34.74 5.1228125 35.73 6.1128125 36.75 7.1328125 C37.08 6.4728125 37.41 5.8128125 37.75 5.1328125 C36.76 4.1428125 35.77 3.1528125 34.75 2.1328125 Z M-1.25 3.1328125 C-1.25 4.7828125 -1.25 6.4328125 -1.25 8.1328125 C1.35582371 9.06346383 2.39198224 9.28198657 5 8.1953125 C5.5775 7.8446875 6.155 7.4940625 6.75 7.1328125 C6.42 5.8128125 6.09 4.4928125 5.75 3.1328125 C2.16672247 2.13064186 2.16672247 2.13064186 -1.25 3.1328125 Z M32.75 4.1328125 C33.75 6.1328125 33.75 6.1328125 33.75 6.1328125 Z M38.75 6.1328125 C38.75 7.1228125 38.75 8.1128125 38.75 9.1328125 C39.74 8.8028125 40.73 8.4728125 41.75 8.1328125 C41.42 7.4728125 41.09 6.8128125 40.75 6.1328125 C40.09 6.1328125 39.43 6.1328125 38.75 6.1328125 Z M16.75 8.1328125 C17.75 10.1328125 17.75 10.1328125 17.75 10.1328125 Z " fill="#FFFFFF" transform="translate(415.25,156.8671875)"/>
<path d="M0 0 C2.64 0 5.28 0 8 0 C8 10.56 8 21.12 8 32 C5.03 32 2.06 32 -1 32 C-0.67 21.44 -0.34 10.88 0 0 Z " fill="#FFFFFF" transform="translate(202,114)"/>
<path d="M0 0 C0.9590625 0.2784375 0.9590625 0.2784375 1.9375 0.5625 C2.9584375 0.7790625 2.9584375 0.7790625 4 1 C4.33 0.67 4.66 0.34 5 0 C5.99 0.33 6.98 0.66 8 1 C8 1.66 8 2.32 8 3 C8.928125 2.649375 9.85625 2.29875 10.8125 1.9375 C14 1 14 1 17 2 C17.33 1.34 17.66 0.68 18 0 C18.99 0.33 19.98 0.66 21 1 C21.33 0.67 21.66 0.34 22 0 C22.763125 0.165 23.52625 0.33 24.3125 0.5 C26.91975067 1.18359633 26.91975067 1.18359633 29.125 0.4375 C29.74375 0.293125 30.3625 0.14875 31 0 C31.99 0.66 32.98 1.32 34 2 C34.33 1.34 34.66 0.68 35 0 C35.99 0.33 36.98 0.66 38 1 C37.690625 1.721875 37.38125 2.44375 37.0625 3.1875 C36.07439461 5.80307309 35.4712246 8.25118982 35 11 C33.68 10.67 32.36 10.34 31 10 C31 8.68 31 7.36 31 6 C30.34 5.67 29.68 5.34 29 5 C29.495 7.97 29.495 7.97 30 11 C28.68 11 27.36 11 26 11 C26 10.34 26 9.68 26 9 C23.61435923 9.57584432 21.33317216 10.22227595 19 11 C19 10.34 19 9.68 19 9 C17.68 9.33 16.36 9.66 15 10 C15 9.34 15 8.68 15 8 C13.68 8 12.36 8 11 8 C11 8.66 11 9.32 11 10 C8.69 10.33 6.38 10.66 4 11 C3.67 10.34 3.34 9.68 3 9 C2.01 9.33 1.02 9.66 0 10 C-1.33106622 10.34227417 -2.66400079 10.67751743 -4 11 C-3.48964169 6.6109185 -2.47785723 3.66291938 0 0 Z M1 3 C2 5 2 5 2 5 Z M5 3 C5 3.99 5 4.98 5 6 C5.66 5.67 6.32 5.34 7 5 C7 4.34 7 3.68 7 3 C6.34 3 5.68 3 5 3 Z M19 3 C19 3.66 19 4.32 19 5 C19.99 4.67 20.98 4.34 22 4 C21.01 3.67 20.02 3.34 19 3 Z M24 3 C25 5 25 5 25 5 Z M9 4 C9 4.66 9 5.32 9 6 C9.66 6 10.32 6 11 6 C11 5.34 11 4.68 11 4 C10.34 4 9.68 4 9 4 Z M15 4 C15 4.66 15 5.32 15 6 C15.66 6 16.32 6 17 6 C17 5.34 17 4.68 17 4 C16.34 4 15.68 4 15 4 Z M12 5 C12 5.66 12 6.32 12 7 C12.66 7 13.32 7 14 7 C14 6.34 14 5.68 14 5 C13.34 5 12.68 5 12 5 Z M6 6 C6.66 6.66 7.32 7.32 8 8 C8 7.34 8 6.68 8 6 C7.34 6 6.68 6 6 6 Z M18 6 C18.33 6.66 18.66 7.32 19 8 C19.66 7.34 20.32 6.68 21 6 C20.01 6 19.02 6 18 6 Z " fill="#FFFFFF" transform="translate(466,157)"/>
<path d="M0 0 C2.475 0.495 2.475 0.495 5 1 C5.33 1.99 5.66 2.98 6 4 C6.33 3.01 6.66 2.02 7 1 C11.3164922 0.23826608 14.74433453 -0.16063604 19 1 C19.77772405 3.33317216 20.42415568 5.61435923 21 8 C21 5.69 21 3.38 21 1 C21.99 1 22.98 1 24 1 C24 3.64 24 6.28 24 9 C24.66 9 25.32 9 26 9 C26.33 6.03 26.66 3.06 27 0 C27.66 0.33 28.32 0.66 29 1 C30.29411765 8.41176471 30.29411765 8.41176471 29 11 C15.63636364 11 15.63636364 11 10 10 C9.34 9.01 8.68 8.02 8 7 C7.34 7 6.68 7 6 7 C6.33 8.32 6.66 9.64 7 11 C6.01 11 5.02 11 4 11 C3.814375 9.576875 3.814375 9.576875 3.625 8.125 C3.28312823 4.91332809 3.28312823 4.91332809 1 3 C0.67 2.01 0.34 1.02 0 0 Z M9 2 C8.67 2.66 8.34 3.32 8 4 C8.66 4 9.32 4 10 4 C9.67 3.34 9.34 2.68 9 2 Z M14 2 C13.34 2.66 12.68 3.32 12 4 C11.7763932 6.9254644 11.7763932 6.9254644 13 9 C15.88214887 8.11785113 15.88214887 8.11785113 18 7 C18 6.01 18 5.02 18 4 C16.68 3.34 15.36 2.68 14 2 Z " fill="#FFFFFF" transform="translate(222,157)"/>
<path d="M0 0 C0.39832031 -0.49113281 0.79664063 -0.98226562 1.20703125 -1.48828125 C3.5121755 -3.43183425 4.7196719 -3.316536 7.6875 -3.1875 C8.89986328 -3.14689453 8.89986328 -3.14689453 10.13671875 -3.10546875 C10.75160156 -3.07066406 11.36648438 -3.03585938 12 -3 C11.67 -2.01 11.34 -1.02 11 0 C10.34 -0.33 9.68 -0.66 9 -1 C9 1.97 9 4.94 9 8 C8.01 7.67 7.02 7.34 6 7 C6.33 4.36 6.66 1.72 7 -1 C6.01 -0.67 5.02 -0.34 4 0 C4 2.64 4 5.28 4 8 C1.50638429 6.79618552 -0.68143083 5.54571278 -3 4 C-3 5.32 -3 6.64 -3 8 C-6.96 8 -10.92 8 -15 8 C-14.67 4.7 -14.34 1.4 -14 -2 C-8.22378823 -3.18149786 -5.13350208 -2.7500904 0 0 Z M-13 -1 C-12.67 -0.34 -12.34 0.32 -12 1 C-9.97536745 1.65213292 -9.97536745 1.65213292 -8 2 C-9.65 2.33 -11.3 2.66 -13 3 C-13 3.99 -13 4.98 -13 6 C-11.00045254 6.04254356 -8.99958364 6.04080783 -7 6 C-5.70366379 4.93354885 -5.70366379 4.93354885 -5.9375 2.4375 C-5.958125 1.633125 -5.97875 0.82875 -6 0 C-8.31 -0.33 -10.62 -0.66 -13 -1 Z " fill="#FFFFFF" transform="translate(298,160)"/>
<path d="M0 0 C3.3 0 6.6 0 10 0 C10.33 0.99 10.66 1.98 11 3 C11.99 2.67 12.98 2.34 14 2 C14.33 1.34 14.66 0.68 15 0 C17.475 1.485 17.475 1.485 20 3 C20.33 2.01 20.66 1.02 21 0 C21.99 0.33 22.98 0.66 24 1 C22.93940067 4.181798 21.52448631 7.0173094 20 10 C19.34 10 18.68 10 18 10 C18 9.34 18 8.68 18 8 C17.0925 8.309375 16.185 8.61875 15.25 8.9375 C10.22199536 10.58127075 6.34991434 11.10288297 1 11 C0.67 7.37 0.34 3.74 0 0 Z M3 2 C3.33 2.99 3.66 3.98 4 5 C5.98 4.67 7.96 4.34 10 4 C8.16116119 1.71271266 8.16116119 1.71271266 5.375 1.875 C4.199375 1.936875 4.199375 1.936875 3 2 Z M18 3 C19 5 19 5 19 5 Z M12 4 C12 4.66 12 5.32 12 6 C12.66 6 13.32 6 14 6 C14 5.34 14 4.68 14 4 C13.34 4 12.68 4 12 4 Z M16 5 C15.67 5.66 15.34 6.32 15 7 C15.66 7 16.32 7 17 7 C16.67 6.34 16.34 5.68 16 5 Z M19 5 C20 7 20 7 20 7 Z M3 6 C3 6.99 3 7.98 3 9 C5.3431213 8.74438677 7.67843403 8.40729228 10 8 C10.33 7.34 10.66 6.68 11 6 C7.71023192 4.90341064 6.28696233 5.20046862 3 6 Z " fill="#FFFFFF" transform="translate(385,157)"/>
<path d="M0 0 C4 1 4 1 6 3 C7.65 2.01 9.3 1.02 11 0 C11 2.31 11 4.62 11 7 C11.99 4.69 12.98 2.38 14 0 C15.65 0.33 17.3 0.66 19 1 C20.12880057 4.31114834 21.21302675 7.58978257 22 11 C20.68 11 19.36 11 18 11 C18 10.34 18 9.68 18 9 C17.278125 9.144375 16.55625 9.28875 15.8125 9.4375 C13.20833333 9.95833333 10.60416667 10.47916667 8 11 C8 10.34 8 9.68 8 9 C6.68 9.33 5.36 9.66 4 10 C3.67 9.01 3.34 8.02 3 7 C3 8.32 3 9.64 3 11 C2.01 11 1.02 11 0 11 C0 7.37 0 3.74 0 0 Z " fill="#FFFFFF" transform="translate(144,157)"/>
<path d="M0 0 C2.9375 0.75 2.9375 0.75 6 2 C6.875 4.125 6.875 4.125 7 6 C7.66 4.02 8.32 2.04 9 0 C9.33 0.99 9.66 1.98 10 3 C10.66 2.34 11.32 1.68 12 1 C14.70879335 -0.35439668 17.00933268 -0.06501451 20 0 C19.814375 0.639375 19.62875 1.27875 19.4375 1.9375 C19.293125 2.618125 19.14875 3.29875 19 4 C19.33 4.33 19.66 4.66 20 5 C20.04080783 6.99958364 20.04254356 9.00045254 20 11 C17.36 11 14.72 11 12 11 C11.67 10.34 11.34 9.68 11 9 C10.34 9.66 9.68 10.32 9 11 C8.01 10.67 7.02 10.34 6 10 C5.67 9.01 5.34 8.02 5 7 C4.67 8.32 4.34 9.64 4 11 C2.68 10.67 1.36 10.34 0 10 C0 6.7 0 3.4 0 0 Z M15 2 C13.99782936 5.58327753 13.99782936 5.58327753 15 9 C15.99 8.67 16.98 8.34 18 8 C17.67 6.02 17.34 4.04 17 2 C16.34 2 15.68 2 15 2 Z M10 4 C11 8 11 8 11 8 Z " fill="#FFFFFF" transform="translate(199,157)"/>
<path d="M0 0 C2.9375 0.75 2.9375 0.75 6 2 C6.875 4.125 6.875 4.125 7 6 C7.66 4.02 8.32 2.04 9 0 C9.33 0 9.66 0 10 0 C10 2.31 10 4.62 10 7 C10.99 4.69 11.98 2.38 13 0 C14.65 0.33 16.3 0.66 18 1 C18.99 4.3 19.98 7.6 21 11 C19.68 11 18.36 11 17 11 C17 10.34 17 9.68 17 9 C16.278125 9.144375 15.55625 9.28875 14.8125 9.4375 C12.20833333 9.95833333 9.60416667 10.47916667 7 11 C6.34 9.68 5.68 8.36 5 7 C4.67 8.32 4.34 9.64 4 11 C3.01 10.67 2.02 10.34 1 10 C0.67 6.7 0.34 3.4 0 0 Z " fill="#FFFFFF" transform="translate(165,157)"/>
<path d="M0 0 C0.33 0.66 0.66 1.32 1 2 C2.32 1.01 3.64 0.02 5 -1 C5.66 -0.67 6.32 -0.34 7 0 C6.01 2.97 5.02 5.94 4 9 C2.35 9.33 0.7 9.66 -1 10 C-1.99 7.69 -2.98 5.38 -4 3 C-4.33 3.99 -4.66 4.98 -5 6 C-6.32 5.67 -7.64 5.34 -9 5 C-9 5.99 -9 6.98 -9 8 C-7.35 8 -5.7 8 -4 8 C-3.67 8.66 -3.34 9.32 -3 10 C-5.33294775 10.04241723 -7.66702567 10.04092937 -10 10 C-11 9 -11 9 -11.09765625 6.93359375 C-11.08605469 6.10988281 -11.07445312 5.28617188 -11.0625 4.4375 C-11.05347656 3.61121094 -11.04445313 2.78492188 -11.03515625 1.93359375 C-11.02355469 1.29550781 -11.01195312 0.65742188 -11 0 C-3.19354839 -1.35111663 -3.19354839 -1.35111663 0 0 Z M-9 1 C-9 1.66 -9 2.32 -9 3 C-7.35 3 -5.7 3 -4 3 C-4 2.34 -4 1.68 -4 1 C-5.65 1 -7.3 1 -9 1 Z " fill="#FFFFFF" transform="translate(277,158)"/>
<path d="M0 0 C0.66 0.33 1.32 0.66 2 1 C2.625 4.0625 2.625 4.0625 3 7 C3.99 7 4.98 7 6 7 C6 7.66 6 8.32 6 9 C6.66 9 7.32 9 8 9 C7.319375 8.4225 6.63875 7.845 5.9375 7.25 C4 5 4 5 4.0625 2.8125 C5 1 5 1 8 0 C8.99 0.66 9.98 1.32 11 2 C10.67 2.66 10.34 3.32 10 4 C9.34 4 8.68 4 8 4 C7.67 4.33 7.34 4.66 7 5 C8.65 5 10.3 5 12 5 C12 6.65 12 8.3 12 10 C8.24329669 10.96600942 5.75750219 10.77076968 2 10 C0.66431979 10.32380126 -0.66923011 10.65657551 -2 11 C-3.32 10.67 -4.64 10.34 -6 10 C-6 7.03 -6 4.06 -6 1 C-5.34 1 -4.68 1 -4 1 C-3.814375 2.7015625 -3.814375 2.7015625 -3.625 4.4375 C-3.315625 6.2009375 -3.315625 6.2009375 -3 8 C-2.34 8.33 -1.68 8.66 -1 9 C-0.67 6.03 -0.34 3.06 0 0 Z " fill="#FFFFFF" transform="translate(342,157)"/>
<path d="M0 0 C1.37478516 0.01740234 1.37478516 0.01740234 2.77734375 0.03515625 C3.69644531 0.04417969 4.61554688 0.05320313 5.5625 0.0625 C6.27277344 0.07410156 6.98304688 0.08570313 7.71484375 0.09765625 C7.05484375 1.41765625 6.39484375 2.73765625 5.71484375 4.09765625 C5.38484375 3.43765625 5.05484375 2.77765625 4.71484375 2.09765625 C4.05484375 2.75765625 3.39484375 3.41765625 2.71484375 4.09765625 C4.36484375 5.08765625 6.01484375 6.07765625 7.71484375 7.09765625 C7.38484375 8.41765625 7.05484375 9.73765625 6.71484375 11.09765625 C3.08484375 11.09765625 -0.54515625 11.09765625 -4.28515625 11.09765625 C-3.31436998 0.14163974 -3.31436998 0.14163974 0 0 Z M-1.28515625 1.09765625 C-1.28515625 3.07765625 -1.28515625 5.05765625 -1.28515625 7.09765625 C-0.29515625 7.09765625 0.69484375 7.09765625 1.71484375 7.09765625 C1.05484375 5.11765625 0.39484375 3.13765625 -0.28515625 1.09765625 C-0.61515625 1.09765625 -0.94515625 1.09765625 -1.28515625 1.09765625 Z M1.71484375 6.09765625 C2.04484375 7.08765625 2.37484375 8.07765625 2.71484375 9.09765625 C3.37484375 8.76765625 4.03484375 8.43765625 4.71484375 8.09765625 C4.38484375 7.43765625 4.05484375 6.77765625 3.71484375 6.09765625 C3.05484375 6.09765625 2.39484375 6.09765625 1.71484375 6.09765625 Z " fill="#FFFFFF" transform="translate(317.28515625,156.90234375)"/>
<path d="M0 0 C-0.29296875 2.01822917 -0.5859375 4.03645833 -0.87890625 6.0546875 C-1.1684297 8.08140667 -1.1684297 8.08140667 0 10 C-4.75 8.125 -4.75 8.125 -7 7 C-6.67 7.99 -6.34 8.98 -6 10 C-6.99 9.67 -7.98 9.34 -9 9 C-9 6.03 -9 3.06 -9 0 C-3.375 -1.125 -3.375 -1.125 0 0 Z M-7 1 C-7 2.32 -7 3.64 -7 5 C-5.68 4.67 -4.36 4.34 -3 4 C-3.33 3.01 -3.66 2.02 -4 1 C-4.99 1 -5.98 1 -7 1 Z " fill="#FFFFFF" transform="translate(262,158)"/>
<path d="M0 0 C0.33 0.66 0.66 1.32 1 2 C0.34 2 -0.32 2 -1 2 C-1 2.66 -1 3.32 -1 4 C-0.34 4 0.32 4 1 4 C0.67 5.65 0.34 7.3 0 9 C-1.98 9.33 -3.96 9.66 -6 10 C-8.4294516 6.3558226 -8.16179575 4.28758728 -8 0 C-5.09660535 -1.45169732 -3.09125158 -0.72348441 0 0 Z M-4 1 C-4.66 2.32 -5.32 3.64 -6 5 C-5.01 5.495 -5.01 5.495 -4 6 C-4 6.66 -4 7.32 -4 8 C-3.01 7.67 -2.02 7.34 -1 7 C-1.33 5.02 -1.66 3.04 -2 1 C-2.66 1 -3.32 1 -4 1 Z " fill="#FFFFFF" transform="translate(193,158)"/>
<path d="M0 0 C2 0.9375 2 0.9375 3.1875 3.8125 C3.455625 4.84375 3.72375 5.875 4 6.9375 C4.33 7.9275 4.66 8.9175 5 9.9375 C2.03 8.9475 -0.94 7.9575 -4 6.9375 C-4.33 7.9275 -4.66 8.9175 -5 9.9375 C-5.66 9.6075 -6.32 9.2775 -7 8.9375 C-6.5504955 7.62195015 -6.09010284 6.31011642 -5.625 5 C-5.36976563 4.26910156 -5.11453125 3.53820312 -4.8515625 2.78515625 C-3.68895254 0.26261262 -2.7395801 -0.08561188 0 0 Z " fill="#FFFFFF" transform="translate(370,158.0625)"/>
<path d="M0 0 C1.98 0 3.96 0 6 0 C6.12375 0.804375 6.2475 1.60875 6.375 2.4375 C6.684375 3.7059375 6.684375 3.7059375 7 5 C7.66 5.33 8.32 5.66 9 6 C8.01 7.485 8.01 7.485 7 9 C3.93738507 7.97912836 2.94220597 7.47189851 1 5 C0.3125 2.3125 0.3125 2.3125 0 0 Z " fill="#FFFFFF" transform="translate(288,114)"/>
<path d="M0 0 C2.31 0 4.62 0 7 0 C6.3125 3.375 6.3125 3.375 5 7 C2.375 8.4375 2.375 8.4375 0 9 C-1.125 6.75 -1.125 6.75 -2 4 C-1.125 1.6875 -1.125 1.6875 0 0 Z " fill="#FFFFFF" transform="translate(334,114)"/>
<path d="M0 0 C2.31 0 4.62 0 7 0 C7 0.33 7 0.66 7 1 C5.35 1 3.7 1 2 1 C2 1.99 2 2.98 2 4 C3.65 3.67 5.3 3.34 7 3 C7 3.99 7 4.98 7 6 C5.35 6 3.7 6 2 6 C2.33 7.32 2.66 8.64 3 10 C1.68 9.67 0.36 9.34 -1 9 C-0.67 6.03 -0.34 3.06 0 0 Z " fill="#FFFFFF" transform="translate(378,158)"/>
<path d="M0 0 C2.64 0 5.28 0 8 0 C7.01 0.33 6.02 0.66 5 1 C5.33 3.97 5.66 6.94 6 10 C4.68 9.67 3.36 9.34 2 9 C2.33 6.36 2.66 3.72 3 1 C2.01 0.67 1.02 0.34 0 0 Z " fill="#FFFFFF" transform="translate(353,158)"/>
<path d="M0 0 C1.65 0 3.3 0 5 0 C5 2.64 5 5.28 5 8 C3.02 8.99 3.02 8.99 1 10 C0.34 9.01 -0.32 8.02 -1 7 C0.32 6.67 1.64 6.34 3 6 C3 4.35 3 2.7 3 1 C2.01 0.67 1.02 0.34 0 0 Z " fill="#FFFFFF" transform="translate(329,158)"/>
<path d="M0 0 C0.33 0 0.66 0 1 0 C1 3.63 1 7.26 1 11 C0.01 10.67 -0.98 10.34 -2 10 C-1.85950482 8.52031676 -1.71245174 7.04125484 -1.5625 5.5625 C-1.48128906 4.73878906 -1.40007812 3.91507813 -1.31640625 3.06640625 C-1 1 -1 1 0 0 Z " fill="#FFFFFF" transform="translate(197,157)"/>
<path d="" fill="#FFFFFF" transform="translate(0,0)"/>
<path d="M0 0 C2 1 2 1 2 1 Z " fill="#FFFFFF" transform="translate(334,157)"/>
<path d="M0 0 C2 1 2 1 2 1 Z " fill="#FFFFFF" transform="translate(251,157)"/>
<path d="M0 0 C2 1 2 1 2 1 Z " fill="#FFFFFF" transform="translate(259,135)"/>
<path d="" fill="#FFFFFF" transform="translate(0,0)"/>
<path d="" fill="#FFFFFF" transform="translate(0,0)"/>
<path d="" fill="#FFFFFF" transform="translate(0,0)"/>
<path d="" fill="#FFFFFF" transform="translate(0,0)"/>
<path d="" fill="#FFFFFF" transform="translate(0,0)"/>
<path d="" fill="#FFFFFF" transform="translate(0,0)"/>
<path d="" fill="#FFFFFF" transform="translate(0,0)"/>
<path d="" fill="#FFFFFF" transform="translate(0,0)"/>
<path d="" fill="#FFFFFF" transform="translate(0,0)"/>
<path d="" fill="#FFFFFF" transform="translate(0,0)"/>
<path d="" fill="#FFFFFF" transform="translate(0,0)"/>
<path d="" fill="#FFFFFF" transform="translate(0,0)"/>
<path d="" fill="#FFFFFF" transform="translate(0,0)"/>
<path d="" fill="#FFFFFF" transform="translate(0,0)"/>
<path d="" fill="#FFFFFF" transform="translate(0,0)"/>
<path d="" fill="#FFFFFF" transform="translate(0,0)"/>
<path d="" fill="#FFFFFF" transform="translate(0,0)"/>
<path d="" fill="#FFFFFF" transform="translate(0,0)"/>
<path d="" fill="#FFFFFF" transform="translate(0,0)"/>
<path d="" fill="#FFFFFF" transform="translate(0,0)"/>
<path d="" fill="#FFFFFF" transform="translate(0,0)"/>
<path d="" fill="#FFFFFF" transform="translate(0,0)"/>
<path d="" fill="#FFFFFF" transform="translate(0,0)"/>
<path d="" fill="#FFFFFF" transform="translate(0,0)"/>
<path d="" fill="#FFFFFF" transform="translate(0,0)"/>
<path d="" fill="#FFFFFF" transform="translate(0,0)"/>
<path d="" fill="#FFFFFF" transform="translate(0,0)"/>
<path d="" fill="#FFFFFF" transform="translate(0,0)"/>
<path d="" fill="#FFFFFF" transform="translate(0,0)"/>
<path d="" fill="#FFFFFF" transform="translate(0,0)"/>
<path d="" fill="#FFFFFF" transform="translate(0,0)"/>
<path d="" fill="#FFFFFF" transform="translate(0,0)"/>
<path d="" fill="#FFFFFF" transform="translate(0,0)"/>
<path d="" fill="#FFFFFF" transform="translate(0,0)"/>
<path d="" fill="#FFFFFF" transform="translate(0,0)"/>
<path d="" fill="#FFFFFF" transform="translate(0,0)"/>
<path d="" fill="#FFFFFF" transform="translate(0,0)"/>
<path d="" fill="#FFFFFF" transform="translate(0,0)"/>
<path d="" fill="#FFFFFF" transform="translate(0,0)"/>
<path d="" fill="#FFFFFF" transform="translate(0,0)"/>
<path d="" fill="#FFFFFF" transform="translate(0,0)"/>
<path d="" fill="#FFFFFF" transform="translate(0,0)"/>
<path d="" fill="#FFFFFF" transform="translate(0,0)"/>
<path d="" fill="#FFFFFF" transform="translate(0,0)"/>
<path d="" fill="#FFFFFF" transform="translate(0,0)"/>
<path d="" fill="#FFFFFF" transform="translate(0,0)"/>
<path d="" fill="#FFFFFF" transform="translate(0,0)"/>
<path d="" fill="#FFFFFF" transform="translate(0,0)"/>
<path d="" fill="#FFFFFF" transform="translate(0,0)"/>
<path d="" fill="#FFFFFF" transform="translate(0,0)"/>
<path d="" fill="#FFFFFF" transform="translate(0,0)"/>
<path d="" fill="#FFFFFF" transform="translate(0,0)"/>
<path d="" fill="#FFFFFF" transform="translate(0,0)"/>
<path d="" fill="#FFFFFF" transform="translate(0,0)"/>
<path d="" fill="#FFFFFF" transform="translate(0,0)"/>
<path d="" fill="#FFFFFF" transform="translate(0,0)"/>
<path d="" fill="#FFFFFF" transform="translate(0,0)"/>
<path d="" fill="#FFFFFF" transform="translate(0,0)"/>
<path d="" fill="#FFFFFF" transform="translate(0,0)"/>
<path d="" fill="#FFFFFF" transform="translate(0,0)"/>
<path d="" fill="#FFFFFF" transform="translate(0,0)"/>
<path d="" fill="#FFFFFF" transform="translate(0,0)"/>
<path d="" fill="#FFFFFF" transform="translate(0,0)"/>
<path d="" fill="#FFFFFF" transform="translate(0,0)"/>
<path d="" fill="#FFFFFF" transform="translate(0,0)"/>
<path d="" fill="#FFFFFF" transform="translate(0,0)"/>
<path d="" fill="#FFFFFF" transform="translate(0,0)"/>
<path d="" fill="#FFFFFF" transform="translate(0,0)"/>
<path d="" fill="#FFFFFF" transform="translate(0,0)"/>
<path d="" fill="#FFFFFF" transform="translate(0,0)"/>
<path d="" fill="#FFFFFF" transform="translate(0,0)"/>
<path d="" fill="#FFFFFF" transform="translate(0,0)"/>
<path d="" fill="#FFFFFF" transform="translate(0,0)"/>
<path d="" fill="#FFFFFF" transform="translate(0,0)"/>
<path d="" fill="#FFFFFF" transform="translate(0,0)"/>
<path d="" fill="#FFFFFF" transform="translate(0,0)"/>
<path d="" fill="#FFFFFF" transform="translate(0,0)"/>
<path d="" fill="#FFFFFF" transform="translate(0,0)"/>
<path d="" fill="#FFFFFF" transform="translate(0,0)"/>
<path d="" fill="#FFFFFF" transform="translate(0,0)"/>
<path d="" fill="#FFFFFF" transform="translate(0,0)"/>
<path d="" fill="#FFFFFF" transform="translate(0,0)"/>
<path d="" fill="#FFFFFF" transform="translate(0,0)"/>
<path d="" fill="#FFFFFF" transform="translate(0,0)"/>
<path d="" fill="#FFFFFF" transform="translate(0,0)"/>
<path d="" fill="#FFFFFF" transform="translate(0,0)"/>
<path d="" fill="#FFFFFF" transform="translate(0,0)"/>
<path d="" fill="#FFFFFF" transform="translate(0,0)"/>
<path d="" fill="#FFFFFF" transform="translate(0,0)"/>
<path d="" fill="#FFFFFF" transform="translate(0,0)"/>
<path d="" fill="#FFFFFF" transform="translate(0,0)"/>
<path d="" fill="#FFFFFF" transform="translate(0,0)"/>
<path d="" fill="#FFFFFF" transform="translate(0,0)"/>
<path d="" fill="#FFFFFF" transform="translate(0,0)"/>
<path d="" fill="#FFFFFF" transform="translate(0,0)"/>
<path d="" fill="#FFFFFF" transform="translate(0,0)"/>
<path d="" fill="#FFFFFF" transform="translate(0,0)"/>
<path d="" fill="#FFFFFF" transform="translate(0,0)"/>
<path d="" fill="#FFFFFF" transform="translate(0,0)"/>
<path d="" fill="#FFFFFF" transform="translate(0,0)"/>
<path d="" fill="#FFFFFF" transform="translate(0,0)"/>
<path d="" fill="#FFFFFF" transform="translate(0,0)"/>
<path d="" fill="#FFFFFF" transform="translate(0,0)"/>
<path d="" fill="#FFFFFF" transform="translate(0,0)"/>
<path d="" fill="#FFFFFF" transform="translate(0,0)"/>
<path d="" fill="#FFFFFF" transform="translate(0,0)"/>
<path d="" fill="#FFFFFF" transform="translate(0,0)"/>
<path d="" fill="#FFFFFF" transform="translate(0,0)"/>
<path d="" fill="#FFFFFF" transform="translate(0,0)"/>
<path d="" fill="#FFFFFF" transform="translate(0,0)"/>
<path d="" fill="#FFFFFF" transform="translate(0,0)"/>
<path d="" fill="#FFFFFF" transform="translate(0,0)"/>
<path d="" fill="#FFFFFF" transform="translate(0,0)"/>
<path d="" fill="#FFFFFF" transform="translate(0,0)"/>
<path d="" fill="#FFFFFF" transform="translate(0,0)"/>
<path d="" fill="#FFFFFF" transform="translate(0,0)"/>
<path d="" fill="#FFFFFF" transform="translate(0,0)"/>
<path d="" fill="#FFFFFF" transform="translate(0,0)"/>
<path d="" fill="#FFFFFF" transform="translate(0,0)"/>
<path d="" fill="#FFFFFF" transform="translate(0,0)"/>
<path d="" fill="#FFFFFF" transform="translate(0,0)"/>
<path d="" fill="#FFFFFF" transform="translate(0,0)"/>
<path d="" fill="#FFFFFF" transform="translate(0,0)"/>
<path d="" fill="#FFFFFF" transform="translate(0,0)"/>
<path d="" fill="#FFFFFF" transform="translate(0,0)"/>
<path d="" fill="#FFFFFF" transform="translate(0,0)"/>
<path d="" fill="#FFFFFF" transform="translate(0,0)"/>
<path d="" fill="#FFFFFF" transform="translate(0,0)"/>
<path d="" fill="#FFFFFF" transform="translate(0,0)"/>
<path d="" fill="#FFFFFF" transform="translate(0,0)"/>
<path d="" fill="#FFFFFF" transform="translate(0,0)"/>
<path d="" fill="#FFFFFF" transform="translate(0,0)"/>
<path d="" fill="#FFFFFF" transform="translate(0,0)"/>
<path d="" fill="#FFFFFF" transform="translate(0,0)"/>
<path d="" fill="#FFFFFF" transform="translate(0,0)"/>
<path d="" fill="#FFFFFF" transform="translate(0,0)"/>
<path d="" fill="#FFFFFF" transform="translate(0,0)"/>
<path d="" fill="#FFFFFF" transform="translate(0,0)"/>
<path d="" fill="#FFFFFF" transform="translate(0,0)"/>
<path d="" fill="#FFFFFF" transform="translate(0,0)"/>
<path d="" fill="#FFFFFF" transform="translate(0,0)"/>
<path d="" fill="#FFFFFF" transform="translate(0,0)"/>
<path d="" fill="#FFFFFF" transform="translate(0,0)"/>
<path d="" fill="#FFFFFF" transform="translate(0,0)"/>
<path d="" fill="#FFFFFF" transform="translate(0,0)"/>
<path d="" fill="#FFFFFF" transform="translate(0,0)"/>
<path d="" fill="#FFFFFF" transform="translate(0,0)"/>
<path d="" fill="#FFFFFF" transform="translate(0,0)"/>
<path d="" fill="#FFFFFF" transform="translate(0,0)"/>
<path d="" fill="#FFFFFF" transform="translate(0,0)"/>
<path d="" fill="#FFFFFF" transform="translate(0,0)"/>
<path d="" fill="#FFFFFF" transform="translate(0,0)"/>
<path d="" fill="#FFFFFF" transform="translate(0,0)"/>
<path d="" fill="#FFFFFF" transform="translate(0,0)"/>
<path d="" fill="#FFFFFF" transform="translate(0,0)"/>
<path d="" fill="#FFFFFF" transform="translate(0,0)"/>
<path d="" fill="#FFFFFF" transform="translate(0,0)"/>
<path d="" fill="#FFFFFF" transform="translate(0,0)"/>
<path d="" fill="#FFFFFF" transform="translate(0,0)"/>
<path d="" fill="#FFFFFF" transform="translate(0,0)"/>
<path d="" fill="#FFFFFF" transform="translate(0,0)"/>
<path d="" fill="#FFFFFF" transform="translate(0,0)"/>
<path d="" fill="#FFFFFF" transform="translate(0,0)"/>
<path d="" fill="#FFFFFF" transform="translate(0,0)"/>
<path d="" fill="#FFFFFF" transform="translate(0,0)"/>
<path d="" fill="#FFFFFF" transform="translate(0,0)"/>
<path d="" fill="#FFFFFF" transform="translate(0,0)"/>
<path d="" fill="#FFFFFF" transform="translate(0,0)"/>
<path d="" fill="#FFFFFF" transform="translate(0,0)"/>
<path d="" fill="#FFFFFF" transform="translate(0,0)"/>
<path d="" fill="#FFFFFF" transform="translate(0,0)"/>
<path d="" fill="#FFFFFF" transform="translate(0,0)"/>
<path d="" fill="#FFFFFF" transform="translate(0,0)"/>
<path d="" fill="#FFFFFF" transform="translate(0,0)"/>
<path d="" fill="#FFFFFF" transform="translate(0,0)"/>
<path d="" fill="#FFFFFF" transform="translate(0,0)"/>
<path d="" fill="#FFFFFF" transform="translate(0,0)"/>
<path d="" fill="#FFFFFF" transform="translate(0,0)"/>
<path d="" fill="#FFFFFF" transform="translate(0,0)"/>
<path d="" fill="#FFFFFF" transform="translate(0,0)"/>
<path d="" fill="#FFFFFF" transform="translate(0,0)"/>
<path d="" fill="#FFFFFF" transform="translate(0,0)"/>
<path d="" fill="#FFFFFF" transform="translate(0,0)"/>
<path d="" fill="#FFFFFF" transform="translate(0,0)"/>
<path d="" fill="#FFFFFF" transform="translate(0,0)"/>
<path d="" fill="#FFFFFF" transform="translate(0,0)"/>
<path d="" fill="#FFFFFF" transform="translate(0,0)"/>
<path d="" fill="#FFFFFF" transform="translate(0,0)"/>
<path d="" fill="#FFFFFF" transform="translate(0,0)"/>
<path d="" fill="#FFFFFF" transform="translate(0,0)"/>
<path d="" fill="#FFFFFF" transform="translate(0,0)"/>
<path d="" fill="#FFFFFF" transform="translate(0,0)"/>
<path d="" fill="#FFFFFF" transform="translate(0,0)"/>
<path d="" fill="#FFFFFF" transform="translate(0,0)"/>
<path d="" fill="#FFFFFF" transform="translate(0,0)"/>
<path d="" fill="#FFFFFF" transform="translate(0,0)"/>
<path d="" fill="#FFFFFF" transform="translate(0,0)"/>
<path d="" fill="#FFFFFF" transform="translate(0,0)"/>
<path d="" fill="#FFFFFF" transform="translate(0,0)"/>
<path d="" fill="#FFFFFF" transform="translate(0,0)"/>
<path d="" fill="#FFFFFF" transform="translate(0,0)"/>
<path d="" fill="#FFFFFF" transform="translate(0,0)"/>
<path d="" fill="#FFFFFF" transform="translate(0,0)"/>
<path d="" fill="#FFFFFF" transform="translate(0,0)"/>
<path d="" fill="#FFFFFF" transform="translate(0,0)"/>
<path d="" fill="#FFFFFF" transform="translate(0,0)"/>
<path d="" fill="#FFFFFF" transform="translate(0,0)"/>
<path d="" fill="#FFFFFF" transform="translate(0,0)"/>
<path d="" fill="#FFFFFF" transform="translate(0,0)"/>
<path d="" fill="#FFFFFF" transform="translate(0,0)"/>
<path d="" fill="#FFFFFF" transform="translate(0,0)"/>
<path d="" fill="#FFFFFF" transform="translate(0,0)"/>
<path d="" fill="#FFFFFF" transform="translate(0,0)"/>
<path d="" fill="#FFFFFF" transform="translate(0,0)"/>
<path d="" fill="#FFFFFF" transform="translate(0,0)"/>
<path d="" fill="#FFFFFF" transform="translate(0,0)"/>
<path d="" fill="#FFFFFF" transform="translate(0,0)"/>
<path d="" fill="#FFFFFF" transform="translate(0,0)"/>
<path d="" fill="#FFFFFF" transform="translate(0,0)"/>
<path d="" fill="#FFFFFF" transform="translate(0,0)"/>
<path d="" fill="#FFFFFF" transform="translate(0,0)"/>
<path d="" fill="#FFFFFF" transform="translate(0,0)"/>
<path d="" fill="#FFFFFF" transform="translate(0,0)"/>
<path d="" fill="#FFFFFF" transform="translate(0,0)"/>
<path d="" fill="#FFFFFF" transform="translate(0,0)"/>
<path d="" fill="#FFFFFF" transform="translate(0,0)"/>
<path d="" fill="#FFFFFF" transform="translate(0,0)"/>
<path d="" fill="#FFFFFF" transform="translate(0,0)"/>
<path d="" fill="#FFFFFF" transform="translate(0,0)"/>
<path d="" fill="#FFFFFF" transform="translate(0,0)"/>
<path d="" fill="#FFFFFF" transform="translate(0,0)"/>
<path d="" fill="#FFFFFF" transform="translate(0,0)"/>
<path d="" fill="#FFFFFF" transform="translate(0,0)"/>
<path d="" fill="#FFFFFF" transform="translate(0,0)"/>
<path d="" fill="#FFFFFF" transform="translate(0,0)"/>
<path d="" fill="#FFFFFF" transform="translate(0,0)"/>
<path d="" fill="#FFFFFF" transform="translate(0,0)"/>
<path d="" fill="#FFFFFF" transform="translate(0,0)"/>
<path d="" fill="#FFFFFF" transform="translate(0,0)"/>
<path d="" fill="#FFFFFF" transform="translate(0,0)"/>
<path d="" fill="#FFFFFF" transform="translate(0,0)"/>
<path d="" fill="#FFFFFF" transform="translate(0,0)"/>
<path d="" fill="#FFFFFF" transform="translate(0,0)"/>
<path d="" fill="#FFFFFF" transform="translate(0,0)"/>
<path d="" fill="#FFFFFF" transform="translate(0,0)"/>
<path d="" fill="#FFFFFF" transform="translate(0,0)"/>
<path d="" fill="#FFFFFF" transform="translate(0,0)"/>
<path d="" fill="#FFFFFF" transform="translate(0,0)"/>
<path d="" fill="#FFFFFF" transform="translate(0,0)"/>
<path d="" fill="#FFFFFF" transform="translate(0,0)"/>
<path d="" fill="#FFFFFF" transform="translate(0,0)"/>
<path d="" fill="#FFFFFF" transform="translate(0,0)"/>
<path d="" fill="#FFFFFF" transform="translate(0,0)"/>
<path d="" fill="#FFFFFF" transform="translate(0,0)"/>
<path d="" fill="#FFFFFF" transform="translate(0,0)"/>
<path d="" fill="#FFFFFF" transform="translate(0,0)"/>
<path d="" fill="#FFFFFF" transform="translate(0,0)"/>
<path d="" fill="#FFFFFF" transform="translate(0,0)"/>
<path d="" fill="#FFFFFF" transform="translate(0,0)"/>
<path d="" fill="#FFFFFF" transform="translate(0,0)"/>
<path d="" fill="#FFFFFF" transform="translate(0,0)"/>
<path d="" fill="#FFFFFF" transform="translate(0,0)"/>
<path d="" fill="#FFFFFF" transform="translate(0,0)"/>
<path d="" fill="#FFFFFF" transform="translate(0,0)"/>
<path d="" fill="#FFFFFF" transform="translate(0,0)"/>
<path d="" fill="#FFFFFF" transform="translate(0,0)"/>
<path d="" fill="#FFFFFF" transform="translate(0,0)"/>
<path d="" fill="#FFFFFF" transform="translate(0,0)"/>
<path d="" fill="#FFFFFF" transform="translate(0,0)"/>
<path d="" fill="#FFFFFF" transform="translate(0,0)"/>
<path d="" fill="#FFFFFF" transform="translate(0,0)"/>
<path d="" fill="#FFFFFF" transform="translate(0,0)"/>
<path d="" fill="#FFFFFF" transform="translate(0,0)"/>
<path d="" fill="#FFFFFF" transform="translate(0,0)"/>
<path d="" fill="#FFFFFF" transform="translate(0,0)"/>
<path d="" fill="#FFFFFF" transform="translate(0,0)"/>
<path d="" fill="#FFFFFF" transform="translate(0,0)"/>
<path d="" fill="#FFFFFF" transform="translate(0,0)"/>
<path d="" fill="#FFFFFF" transform="translate(0,0)"/>
<path d="" fill="#FFFFFF" transform="translate(0,0)"/>
<path d="" fill="#FFFFFF" transform="translate(0,0)"/>
<path d="" fill="#FFFFFF" transform="translate(0,0)"/>
<path d="" fill="#FFFFFF" transform="translate(0,0)"/>
<path d="" fill="#FFFFFF" transform="translate(0,0)"/>
<path d="" fill="#FFFFFF" transform="translate(0,0)"/>
<path d="" fill="#FFFFFF" transform="translate(0,0)"/>
<path d="" fill="#FFFFFF" transform="translate(0,0)"/>
<path d="" fill="#FFFFFF" transform="translate(0,0)"/>
<path d="" fill="#FFFFFF" transform="translate(0,0)"/>
<path d="" fill="#FFFFFF" transform="translate(0,0)"/>
<path d="" fill="#FFFFFF" transform="translate(0,0)"/>
<path d="" fill="#FFFFFF" transform="translate(0,0)"/>
<path d="" fill="#FFFFFF" transform="translate(0,0)"/>
<path d="" fill="#FFFFFF" transform="translate(0,0)"/>
</svg>
