<svg xmlns="http://www.w3.org/2000/svg" xmlns:xlink="http://www.w3.org/1999/xlink" version="1.1" viewBox="17.72 165.41 996.1 249.19">
<g id="surface1">
<path style=" stroke:none;fill-rule:nonzero;fill:rgb(100%,100%,100%);fill-opacity:1;" d="M 257.75 220.722656 C 257.75 222.972656 256.523438 224.085938 255.164062 225.757812 C 254.765625 226.257812 254.765625 226.257812 254.359375 226.765625 C 252.332031 229.285156 250.25 231.753906 248.148438 234.207031 C 246.40625 236.253906 244.730469 238.339844 243.082031 240.457031 C 240.570312 243.691406 237.984375 246.855469 235.375 250.011719 C 233.234375 252.601562 231.105469 255.203125 228.988281 257.8125 C 228.703125 258.164062 228.417969 258.515625 228.121094 258.878906 C 227.546875 259.589844 226.972656 260.296875 226.394531 261.007812 C 225.234375 262.4375 224.074219 263.867188 222.914062 265.296875 C 222.332031 266.011719 221.75 266.726562 221.171875 267.441406 C 219.703125 269.246094 218.238281 271.050781 216.769531 272.851562 C 213.996094 276.25 211.242188 279.660156 208.550781 283.121094 C 206.382812 285.898438 204.144531 288.605469 201.855469 291.285156 C 200.074219 293.371094 198.347656 295.492188 196.644531 297.640625 C 195.15625 299.511719 193.648438 301.367188 192.136719 303.222656 C 191.839844 303.589844 191.542969 303.957031 191.238281 304.332031 C 189.722656 306.199219 188.203125 308.058594 186.6875 309.921875 C 183.917969 313.316406 181.167969 316.71875 178.476562 320.175781 C 176.3125 322.953125 174.074219 325.660156 171.785156 328.339844 C 170.003906 330.429688 168.277344 332.550781 166.574219 334.699219 C 165.085938 336.570312 163.578125 338.425781 162.066406 340.28125 C 161.769531 340.644531 161.472656 341.011719 161.164062 341.390625 C 159.652344 343.253906 158.132812 345.117188 156.617188 346.976562 C 153.847656 350.371094 151.097656 353.773438 148.40625 357.230469 C 146.242188 360.011719 144 362.714844 141.714844 365.398438 C 139.933594 367.484375 138.207031 369.605469 136.503906 371.753906 C 135.011719 373.625 133.503906 375.480469 131.996094 377.335938 C 131.699219 377.703125 131.398438 378.070312 131.09375 378.445312 C 130.480469 379.199219 129.867188 379.953125 129.253906 380.707031 C 127.496094 382.871094 125.734375 385.035156 123.976562 387.199219 C 122.511719 389.003906 121.042969 390.808594 119.574219 392.613281 C 116.8125 396 114.070312 399.394531 111.390625 402.84375 C 109.300781 405.523438 107.148438 408.144531 104.945312 410.734375 C 104.671875 411.058594 104.394531 411.382812 104.109375 411.71875 C 102.15625 413.988281 102.15625 413.988281 100.953125 414.59375 C 101.652344 395.507812 102.410156 376.425781 103.226562 357.34375 C 103.359375 354.15625 103.496094 350.96875 103.628906 347.78125 C 103.757812 344.652344 103.890625 341.519531 104.023438 338.390625 C 104.082031 337.082031 104.136719 335.769531 104.191406 334.460938 C 104.265625 332.652344 104.34375 330.847656 104.421875 329.039062 C 104.441406 328.511719 104.464844 327.980469 104.484375 327.433594 C 104.605469 324.765625 104.8125 322.171875 105.246094 319.535156 C 104.9375 319.449219 104.628906 319.363281 104.308594 319.273438 C 100.511719 318.171875 96.828125 316.832031 93.132812 315.425781 C 92.484375 315.179688 91.839844 314.9375 91.171875 314.683594 C 89.425781 314.023438 87.679688 313.363281 85.929688 312.699219 C 84.09375 312.003906 82.253906 311.308594 80.414062 310.613281 C 76.328125 309.066406 72.246094 307.515625 68.160156 305.96875 C 66.546875 305.355469 64.933594 304.746094 63.324219 304.132812 C 55.636719 301.21875 47.953125 298.296875 40.273438 295.371094 C 39.160156 294.945312 38.046875 294.523438 36.933594 294.097656 C 30.527344 291.660156 24.125 289.21875 17.71875 286.777344 C 17.71875 286.246094 17.71875 285.714844 17.71875 285.167969 C 18.3125 285.007812 18.3125 285.007812 18.914062 284.847656 C 40.070312 279.21875 61.21875 273.566406 82.359375 267.878906 C 82.878906 267.742188 83.398438 267.601562 83.933594 267.457031 C 88.730469 266.167969 93.527344 264.875 98.320312 263.585938 C 105.699219 261.601562 113.078125 259.617188 120.457031 257.632812 C 120.96875 257.496094 121.484375 257.355469 122.011719 257.214844 C 124.605469 256.515625 127.199219 255.820312 129.792969 255.121094 C 134.464844 253.867188 139.132812 252.613281 143.804688 251.355469 C 144.84375 251.078125 145.882812 250.796875 146.921875 250.519531 C 154.273438 248.542969 161.625 246.566406 168.976562 244.589844 C 173.71875 243.3125 178.464844 242.035156 183.210938 240.761719 C 183.722656 240.621094 184.238281 240.484375 184.765625 240.34375 C 196.6875 237.136719 208.605469 233.933594 220.527344 230.734375 C 221.042969 230.597656 221.554688 230.460938 222.085938 230.316406 C 227.003906 229 231.917969 227.679688 236.835938 226.359375 C 238.609375 225.886719 240.378906 225.410156 242.148438 224.9375 C 243.34375 224.617188 244.539062 224.296875 245.734375 223.972656 C 249.742188 222.898438 253.75 221.820312 257.75 220.722656 Z M 128.339844 271.742188 C 122.824219 277.492188 119.765625 284.429688 119.546875 292.417969 C 119.777344 300.554688 122.867188 307.523438 128.496094 313.375 C 134.484375 318.859375 141.625 321.367188 149.671875 321.257812 C 157.789062 320.746094 164.4375 317.363281 169.984375 311.460938 C 174.996094 305.390625 177.6875 298.335938 177.070312 290.429688 C 175.921875 281.78125 172.417969 275.3125 165.773438 269.597656 C 154.101562 260.960938 139.074219 262.308594 128.339844 271.742188 Z M 128.339844 271.742188 "/>
<path style=" stroke:none;fill-rule:nonzero;fill:rgb(100%,100%,100%);fill-opacity:1;" d="M 897.292969 234.683594 C 909.644531 234.683594 909.644531 234.683594 913.097656 237.839844 C 914.402344 239.777344 914.402344 239.777344 914.988281 240.753906 C 915.796875 242.070312 916.773438 243.230469 917.765625 244.417969 C 918.109375 244.851562 918.453125 245.285156 918.804688 245.730469 C 921.964844 249.699219 925.210938 253.59375 928.4375 257.507812 C 933 263.046875 933 263.046875 934.980469 265.464844 C 935.34375 265.90625 935.707031 266.347656 936.078125 266.800781 C 936.957031 267.890625 937.800781 269.007812 938.640625 270.128906 C 938.816406 258.433594 938.992188 246.734375 939.175781 234.683594 C 943.960938 234.683594 948.746094 234.683594 953.675781 234.683594 C 953.675781 254.886719 953.675781 275.09375 953.675781 295.90625 C 941.324219 295.90625 941.324219 295.90625 938.503906 293.691406 C 937.808594 292.65625 937.136719 291.605469 936.492188 290.535156 C 935.570312 289.304688 934.601562 288.113281 933.640625 286.910156 C 933.136719 286.265625 932.636719 285.621094 932.136719 284.972656 C 930.601562 283.019531 928.992188 281.136719 927.363281 279.257812 C 924.761719 276.261719 922.292969 273.191406 919.875 270.042969 C 917.429688 266.972656 914.863281 263.996094 912.328125 261 C 912.152344 272.519531 911.972656 284.039062 911.789062 295.90625 C 907.007812 295.90625 902.222656 295.90625 897.292969 295.90625 C 897.292969 275.703125 897.292969 255.5 897.292969 234.683594 Z M 897.292969 234.683594 "/>
<path style=" stroke:none;fill-rule:nonzero;fill:rgb(100%,100%,100%);fill-opacity:1;" d="M 600.34375 234.683594 C 612.691406 234.683594 612.691406 234.683594 615.613281 237.035156 C 616.277344 238.023438 616.917969 239.03125 617.527344 240.054688 C 618.230469 240.949219 618.945312 241.832031 619.675781 242.707031 C 620.199219 243.371094 620.199219 243.371094 620.734375 244.050781 C 622.675781 246.503906 624.671875 248.914062 626.65625 251.332031 C 627.460938 252.316406 628.265625 253.300781 629.070312 254.285156 C 629.46875 254.773438 629.867188 255.261719 630.28125 255.765625 C 631.488281 257.242188 632.695312 258.71875 633.902344 260.195312 C 634.296875 260.675781 634.691406 261.15625 635.09375 261.648438 C 635.957031 262.703125 636.820312 263.757812 637.679688 264.8125 C 638.117188 265.351562 638.554688 265.886719 639.003906 266.4375 C 639.402344 266.925781 639.800781 267.414062 640.214844 267.917969 C 640.6875 268.492188 641.164062 269.066406 641.691406 269.59375 C 641.867188 258.074219 642.042969 246.554688 642.226562 234.683594 C 647.011719 234.683594 651.796875 234.683594 656.726562 234.683594 C 656.726562 254.886719 656.726562 275.09375 656.726562 295.90625 C 644.375 295.90625 644.375 295.90625 640.953125 292.785156 C 640.160156 291.742188 640.160156 291.742188 639.652344 290.851562 C 638.570312 289.0625 637.339844 287.5 635.984375 285.90625 C 635.203125 284.941406 634.417969 283.980469 633.636719 283.019531 C 632.832031 282.035156 632.023438 281.050781 631.21875 280.066406 C 630.042969 278.625 628.863281 277.1875 627.6875 275.746094 C 625.808594 273.445312 623.925781 271.148438 622.03125 268.859375 C 621.691406 268.449219 621.355469 268.039062 621.003906 267.613281 C 620.328125 266.796875 619.652344 265.980469 618.972656 265.160156 C 618.507812 264.597656 618.507812 264.597656 618.03125 264.019531 C 617.753906 263.683594 617.472656 263.347656 617.1875 263 C 616.542969 262.1875 615.953125 261.328125 615.378906 260.464844 C 615.199219 272.160156 615.023438 283.855469 614.839844 295.90625 C 610.058594 295.90625 605.273438 295.90625 600.34375 295.90625 C 600.34375 275.703125 600.34375 255.5 600.34375 234.683594 Z M 600.34375 234.683594 "/>
<path style=" stroke:none;fill-rule:nonzero;fill:rgb(100%,100%,100%);fill-opacity:1;" d="M 488.652344 234.683594 C 493.613281 234.683594 498.574219 234.683594 503.6875 234.683594 C 503.863281 243.546875 504.039062 252.40625 504.222656 261.535156 C 506.882812 258.703125 509.539062 255.867188 512.277344 252.945312 C 514.964844 250.257812 514.964844 250.257812 516.089844 249.148438 C 517.082031 248.140625 518.003906 247.101562 518.921875 246.03125 C 520.9375 243.675781 523.140625 241.527344 525.355469 239.363281 C 526.820312 237.9375 526.820312 237.9375 527.964844 236.226562 C 529.460938 234.683594 529.460938 234.683594 531.292969 234.320312 C 531.976562 234.335938 532.660156 234.351562 533.363281 234.371094 C 533.730469 234.375 534.097656 234.378906 534.472656 234.382812 C 535.632812 234.402344 536.792969 234.441406 537.953125 234.484375 C 538.742188 234.5 539.53125 234.515625 540.320312 234.527344 C 542.25 234.5625 544.179688 234.617188 546.109375 234.683594 C 544.679688 236.878906 543.265625 238.710938 541.375 240.527344 C 539.386719 242.472656 537.523438 244.460938 535.714844 246.574219 C 534.828125 247.578125 533.90625 248.515625 532.953125 249.453125 C 531.339844 251.042969 529.847656 252.699219 528.378906 254.421875 C 527.5625 255.347656 526.71875 256.25 525.863281 257.140625 C 525.492188 257.53125 525.492188 257.53125 525.109375 257.929688 C 524.390625 258.6875 523.660156 259.4375 522.933594 260.1875 C 521.808594 261.402344 521.808594 261.402344 522.066406 262.582031 C 522.515625 263.777344 523.035156 264.535156 523.851562 265.511719 C 524.136719 265.851562 524.417969 266.195312 524.710938 266.546875 C 525.015625 266.910156 525.320312 267.273438 525.636719 267.644531 C 526.277344 268.421875 526.917969 269.195312 527.558594 269.96875 C 528.039062 270.550781 528.039062 270.550781 528.53125 271.144531 C 529.875 272.777344 531.179688 274.4375 532.480469 276.105469 C 532.839844 276.5625 532.839844 276.5625 533.207031 277.03125 C 533.6875 277.644531 534.167969 278.261719 534.648438 278.875 C 535.859375 280.425781 537.074219 281.972656 538.289062 283.523438 C 538.644531 283.976562 538.644531 283.976562 539.007812 284.441406 C 540.355469 286.15625 541.710938 287.863281 543.078125 289.558594 C 543.527344 290.113281 543.527344 290.113281 543.980469 290.683594 C 544.5625 291.402344 545.144531 292.121094 545.726562 292.839844 C 547.71875 295.3125 547.71875 295.3125 547.71875 295.90625 C 532.625 297.265625 532.625 297.265625 528.550781 295.160156 C 526.359375 293.273438 524.957031 290.941406 523.617188 288.402344 C 522.777344 286.882812 521.707031 285.632812 520.566406 284.328125 C 517.59375 280.695312 514.667969 277.023438 511.742188 273.351562 C 508.445312 274.847656 505.597656 276.882812 504.222656 280.332031 C 503.371094 285.488281 503.640625 290.699219 503.6875 295.90625 C 498.726562 295.90625 493.761719 295.90625 488.652344 295.90625 C 488.652344 275.703125 488.652344 255.5 488.652344 234.683594 Z M 488.652344 234.683594 "/>
<path style=" stroke:none;fill-rule:nonzero;fill:rgb(100%,100%,100%);fill-opacity:1;" d="M 200.292969 300.203125 C 200.648438 300.203125 201.003906 300.203125 201.367188 300.203125 C 202.195312 301.285156 202.195312 301.285156 203.195312 302.835938 C 203.574219 303.425781 203.957031 304.011719 204.351562 304.621094 C 204.558594 304.941406 204.765625 305.265625 204.976562 305.597656 C 205.878906 307.003906 206.789062 308.402344 207.695312 309.804688 C 208.195312 310.570312 208.691406 311.335938 209.1875 312.101562 C 211.980469 316.417969 214.808594 320.710938 217.636719 325 C 218.871094 326.871094 220.101562 328.738281 221.332031 330.605469 C 223.550781 333.972656 225.769531 337.339844 227.984375 340.707031 C 228.625 341.675781 229.261719 342.640625 229.898438 343.609375 C 230.210938 344.085938 230.523438 344.558594 230.847656 345.050781 C 233.265625 348.722656 235.683594 352.398438 238.101562 356.070312 C 239.667969 358.453125 241.238281 360.832031 242.808594 363.207031 C 243.6875 364.535156 244.5625 365.867188 245.4375 367.195312 C 246.019531 368.078125 246.605469 368.960938 247.1875 369.839844 C 247.691406 370.609375 247.691406 370.609375 248.207031 371.394531 C 248.5 371.832031 248.789062 372.269531 249.085938 372.722656 C 249.695312 373.777344 249.695312 373.777344 249.695312 374.851562 C 246.042969 373.8125 242.503906 372.597656 238.96875 371.210938 C 238.464844 371.011719 237.960938 370.816406 237.441406 370.613281 C 235.785156 369.96875 234.132812 369.324219 232.476562 368.675781 C 231.316406 368.222656 230.152344 367.769531 228.988281 367.316406 C 226.558594 366.371094 224.132812 365.425781 221.707031 364.476562 C 216.339844 362.382812 210.96875 360.300781 205.597656 358.21875 C 203.96875 357.585938 202.34375 356.953125 200.714844 356.320312 C 200.203125 356.121094 199.6875 355.921875 199.160156 355.71875 C 198.15625 355.328125 197.148438 354.9375 196.144531 354.546875 C 193.59375 353.550781 191.03125 352.585938 188.453125 351.660156 C 187.667969 351.371094 187.667969 351.371094 186.867188 351.082031 C 185.867188 350.71875 184.863281 350.359375 183.859375 350.011719 C 183.414062 349.851562 182.972656 349.6875 182.515625 349.519531 C 181.925781 349.3125 181.925781 349.3125 181.328125 349.101562 C 180.425781 348.535156 180.425781 348.535156 180 347.484375 C 179.839844 345.925781 180.34375 344.992188 181 343.574219 C 181.382812 342.726562 181.382812 342.726562 181.777344 341.863281 C 182.0625 341.253906 182.347656 340.640625 182.640625 340.011719 C 183.085938 339.03125 183.53125 338.050781 183.976562 337.070312 C 184.289062 336.386719 184.601562 335.703125 184.914062 335.019531 C 186.597656 331.320312 188.210938 327.597656 189.820312 323.867188 C 190.109375 323.199219 190.398438 322.53125 190.6875 321.863281 C 192.191406 318.390625 193.683594 314.914062 195.167969 311.433594 C 195.316406 311.085938 195.464844 310.734375 195.621094 310.371094 C 196.339844 308.6875 197.058594 307 197.773438 305.316406 C 198.027344 304.722656 198.277344 304.128906 198.539062 303.515625 C 198.761719 302.992188 198.984375 302.46875 199.214844 301.925781 C 199.757812 300.742188 199.757812 300.742188 200.292969 300.203125 Z M 200.292969 300.203125 "/>
<path style=" stroke:none;fill-rule:nonzero;fill:rgb(100%,100%,100%);fill-opacity:1;" d="M 113.839844 165.40625 C 116.5 167.777344 118.214844 170.585938 120.082031 173.597656 C 120.753906 174.671875 121.429688 175.746094 122.105469 176.816406 C 122.433594 177.34375 122.765625 177.875 123.105469 178.417969 C 124.359375 180.414062 125.640625 182.394531 126.929688 184.371094 C 129.363281 188.121094 131.773438 191.882812 134.175781 195.648438 C 136.78125 199.722656 139.390625 203.785156 142.03125 207.832031 C 145.042969 212.453125 148.015625 217.09375 150.984375 221.738281 C 153.136719 225.109375 155.296875 228.472656 157.46875 231.832031 C 157.699219 232.1875 157.929688 232.546875 158.167969 232.914062 C 158.492188 233.410156 158.492188 233.410156 158.820312 233.917969 C 159.121094 234.382812 159.121094 234.382812 159.425781 234.859375 C 159.828125 235.46875 160.238281 236.078125 160.65625 236.679688 C 162.167969 238.875 162.167969 238.875 162.167969 240.054688 C 144.800781 240.054688 127.4375 240.054688 109.542969 240.054688 C 110.164062 224.515625 110.164062 224.515625 110.617188 217.019531 C 110.652344 216.476562 110.683594 215.9375 110.71875 215.378906 C 110.769531 214.546875 110.769531 214.546875 110.820312 213.699219 C 110.890625 212.519531 110.960938 211.339844 111.03125 210.160156 C 111.175781 207.714844 111.320312 205.269531 111.46875 202.824219 C 111.65625 199.710938 111.839844 196.597656 112.027344 193.484375 C 112.171875 191.058594 112.316406 188.632812 112.460938 186.207031 C 112.527344 185.058594 112.597656 183.910156 112.664062 182.761719 C 113.011719 176.972656 113.359375 171.1875 113.839844 165.40625 Z M 113.839844 165.40625 "/>
<path style=" stroke:none;fill-rule:nonzero;fill:rgb(100%,100%,100%);fill-opacity:1;" d="M 838.761719 234.683594 C 854.179688 234.683594 869.59375 234.683594 885.480469 234.683594 C 885.480469 238.585938 885.480469 242.484375 885.480469 246.5 C 874.847656 246.5 864.214844 246.5 853.261719 246.5 C 853.261719 250.753906 853.261719 255.007812 853.261719 259.390625 C 862.652344 259.390625 872.042969 259.390625 881.71875 259.390625 C 881.71875 263.109375 881.71875 266.832031 881.71875 270.667969 C 872.328125 270.667969 862.9375 270.667969 853.261719 270.667969 C 853.261719 275.097656 853.261719 279.527344 853.261719 284.09375 C 864.246094 284.09375 875.234375 284.09375 886.550781 284.09375 C 886.550781 287.992188 886.550781 291.890625 886.550781 295.90625 C 870.78125 295.90625 855.011719 295.90625 838.761719 295.90625 C 838.761719 275.703125 838.761719 255.5 838.761719 234.683594 Z M 838.761719 234.683594 "/>
<path style=" stroke:none;fill-rule:nonzero;fill:rgb(100%,100%,100%);fill-opacity:1;" d="M 717.941406 234.683594 C 733.359375 234.683594 748.773438 234.683594 764.660156 234.683594 C 764.660156 238.585938 764.660156 242.484375 764.660156 246.5 C 754.027344 246.5 743.394531 246.5 732.441406 246.5 C 732.441406 250.753906 732.441406 255.007812 732.441406 259.390625 C 741.832031 259.390625 751.222656 259.390625 760.898438 259.390625 C 760.898438 263.109375 760.898438 266.832031 760.898438 270.667969 C 751.507812 270.667969 742.117188 270.667969 732.441406 270.667969 C 732.441406 275.097656 732.441406 279.527344 732.441406 284.09375 C 743.425781 284.09375 754.414062 284.09375 765.730469 284.09375 C 765.730469 287.992188 765.730469 291.890625 765.730469 295.90625 C 749.960938 295.90625 734.191406 295.90625 717.941406 295.90625 C 717.941406 275.703125 717.941406 255.5 717.941406 234.683594 Z M 717.941406 234.683594 "/>
<path style=" stroke:none;fill-rule:nonzero;fill:rgb(100%,100%,100%);fill-opacity:1;" d="M 476.84375 240.835938 C 478.003906 241.964844 479.089844 243.054688 480.058594 244.351562 C 480.058594 245.425781 480.058594 245.425781 479.289062 246.203125 C 478.933594 246.5 478.578125 246.796875 478.214844 247.105469 C 477.828125 247.433594 477.441406 247.761719 477.039062 248.101562 C 476.621094 248.457031 476.199219 248.816406 475.761719 249.183594 C 474.867188 249.976562 473.972656 250.773438 473.078125 251.566406 C 472.464844 252.117188 472.464844 252.117188 471.835938 252.675781 C 471.539062 252.941406 471.238281 253.207031 470.929688 253.480469 C 470.53125 253.171875 470.53125 253.171875 470.125 252.851562 C 465.203125 249.082031 460.265625 246.132812 453.839844 246.613281 C 448.15625 247.386719 443.378906 249.421875 439.785156 254.019531 C 436.4375 259.054688 436.097656 264.828125 437.101562 270.667969 C 438.472656 275.296875 441.308594 279.535156 445.550781 281.925781 C 450.96875 284.398438 456.433594 284.925781 462.097656 283.046875 C 465.40625 281.628906 468.148438 279.359375 470.929688 277.109375 C 472.355469 278.429688 473.773438 279.75 475.191406 281.070312 C 475.800781 281.632812 475.800781 281.632812 476.421875 282.207031 C 476.808594 282.570312 477.191406 282.929688 477.589844 283.300781 C 477.949219 283.632812 478.304688 283.964844 478.671875 284.304688 C 479.523438 285.167969 479.523438 285.167969 480.058594 286.242188 C 475.390625 292.425781 468.273438 295.75 460.726562 296.980469 C 450.253906 297.820312 440.0625 296.542969 431.789062 289.539062 C 426.054688 284.378906 421.933594 277.40625 421.460938 269.554688 C 421.144531 259.949219 422.378906 251.992188 428.578125 244.21875 C 440.792969 231.320312 462.984375 229.546875 476.84375 240.835938 Z M 476.84375 240.835938 "/>
<path style=" stroke:none;fill-rule:nonzero;fill:rgb(100%,100%,100%);fill-opacity:1;" d="M 335.664062 240.246094 C 336.988281 241.386719 338.246094 242.476562 339.371094 243.816406 C 339.371094 245.425781 339.371094 245.425781 338.464844 246.527344 C 335.863281 249.074219 333.234375 251.402344 330.242188 253.480469 C 329.980469 253.234375 329.722656 252.988281 329.453125 252.734375 C 324.921875 248.585938 320.878906 246.859375 314.667969 246.5 C 309.605469 246.761719 304.332031 248.785156 300.707031 252.40625 C 297.195312 256.835938 295.792969 262.390625 296.414062 267.980469 C 297.277344 273.070312 299.246094 277.269531 303.324219 280.535156 C 308.042969 283.789062 313.644531 284.859375 319.261719 283.84375 C 323.765625 282.652344 327.25 280.074219 330.777344 277.109375 C 331.039062 277.378906 331.300781 277.644531 331.566406 277.917969 C 333.8125 280.195312 336.097656 282.328125 338.582031 284.339844 C 339.371094 285.167969 339.371094 285.167969 339.371094 286.777344 C 338.507812 287.78125 337.675781 288.597656 336.6875 289.464844 C 336.347656 289.765625 336.007812 290.066406 335.65625 290.378906 C 327.859375 296.898438 318.507812 297.550781 308.761719 296.980469 C 299.816406 295.957031 292.53125 291.257812 286.847656 284.429688 C 282.589844 278.664062 281.164062 272.476562 281.175781 265.429688 C 281.175781 264.652344 281.175781 264.652344 281.179688 263.859375 C 281.25 259.695312 281.867188 256.257812 283.523438 252.40625 C 283.679688 252.015625 283.835938 251.625 283.996094 251.222656 C 287.15625 244.0625 293.398438 238.929688 300.449219 235.894531 C 312.125 231.6875 325.617188 232.617188 335.664062 240.246094 Z M 335.664062 240.246094 "/>
<path style=" stroke:none;fill-rule:nonzero;fill:rgb(100%,100%,100%);fill-opacity:1;" d="M 767.34375 234.683594 C 772.660156 234.683594 777.976562 234.683594 783.453125 234.683594 C 789.359375 248.46875 795.265625 262.253906 801.171875 276.035156 C 802.972656 273.96875 803.886719 271.535156 804.945312 269.039062 C 805.152344 268.558594 805.359375 268.074219 805.574219 267.578125 C 806.246094 266.015625 806.914062 264.445312 807.582031 262.878906 C 808.042969 261.808594 808.503906 260.734375 808.964844 259.660156 C 810.308594 256.53125 811.648438 253.394531 812.988281 250.257812 C 813.269531 249.601562 813.269531 249.601562 813.554688 248.929688 C 813.902344 248.117188 814.246094 247.308594 814.59375 246.496094 C 815.054688 245.414062 815.515625 244.332031 815.980469 243.25 C 816.523438 241.972656 817.066406 240.695312 817.609375 239.417969 C 817.847656 238.863281 818.082031 238.304688 818.328125 237.734375 C 818.527344 237.257812 818.730469 236.78125 818.941406 236.289062 C 819.429688 235.222656 819.429688 235.222656 819.96875 234.683594 C 821.039062 234.636719 822.117188 234.628906 823.191406 234.632812 C 823.84375 234.632812 824.496094 234.636719 825.167969 234.636719 C 825.855469 234.640625 826.542969 234.648438 827.25 234.652344 C 827.9375 234.652344 828.628906 234.65625 829.339844 234.660156 C 831.046875 234.664062 832.757812 234.675781 834.464844 234.683594 C 833.164062 238.878906 831.464844 242.851562 829.699219 246.871094 C 829.386719 247.585938 829.074219 248.300781 828.765625 249.015625 C 828.117188 250.492188 827.472656 251.972656 826.824219 253.449219 C 825.371094 256.78125 823.929688 260.117188 822.484375 263.449219 C 822.203125 264.09375 821.925781 264.742188 821.636719 265.40625 C 820.15625 268.820312 818.679688 272.238281 817.207031 275.660156 C 816.425781 277.46875 815.648438 279.277344 814.867188 281.082031 C 814.492188 281.960938 814.113281 282.839844 813.734375 283.71875 C 813.207031 284.949219 812.675781 286.179688 812.144531 287.410156 C 811.992188 287.773438 811.835938 288.132812 811.675781 288.507812 C 810.585938 291.03125 809.386719 293.4375 808.152344 295.90625 C 803.371094 295.90625 798.585938 295.90625 793.65625 295.90625 C 790.636719 289.871094 790.636719 289.871094 789.65625 287.554688 C 789.429688 287.015625 789.199219 286.476562 788.960938 285.921875 C 788.714844 285.339844 788.472656 284.757812 788.21875 284.160156 C 787.652344 282.828125 787.085938 281.496094 786.515625 280.164062 C 786.363281 279.804688 786.210938 279.445312 786.050781 279.074219 C 784.089844 274.472656 782.105469 269.878906 780.121094 265.285156 C 779.460938 263.753906 778.800781 262.222656 778.136719 260.691406 C 776.140625 256.0625 774.136719 251.433594 772.117188 246.808594 C 771.785156 246.050781 771.453125 245.292969 771.125 244.53125 C 770.519531 243.148438 769.914062 241.765625 769.308594 240.382812 C 769.042969 239.78125 768.78125 239.175781 768.511719 238.558594 C 768.285156 238.039062 768.054688 237.519531 767.820312 236.984375 C 767.34375 235.757812 767.34375 235.757812 767.34375 234.683594 Z M 767.34375 234.683594 "/>
<path style=" stroke:none;fill-rule:nonzero;fill:rgb(100%,100%,100%);fill-opacity:1;" d="M 960.65625 234.683594 C 978.199219 234.683594 995.742188 234.683594 1013.816406 234.683594 C 1013.816406 238.585938 1013.816406 242.484375 1013.816406 246.5 C 1007.4375 246.5 1001.058594 246.5 994.484375 246.5 C 994.484375 262.804688 994.484375 279.109375 994.484375 295.90625 C 989.699219 295.90625 984.917969 295.90625 979.988281 295.90625 C 979.988281 279.601562 979.988281 263.296875 979.988281 246.5 C 973.609375 246.5 967.226562 246.5 960.65625 246.5 C 960.65625 242.601562 960.65625 238.703125 960.65625 234.683594 Z M 960.65625 234.683594 "/>
<path style=" stroke:none;fill-rule:nonzero;fill:rgb(100%,100%,100%);fill-opacity:1;" d="M 344.203125 234.683594 C 348.988281 234.683594 353.773438 234.683594 358.703125 234.683594 C 358.703125 250.988281 358.703125 267.292969 358.703125 284.09375 C 368.800781 284.09375 378.902344 284.09375 389.308594 284.09375 C 389.308594 287.992188 389.308594 291.890625 389.308594 295.90625 C 374.425781 295.90625 359.539062 295.90625 344.203125 295.90625 C 344.203125 275.703125 344.203125 255.5 344.203125 234.683594 Z M 344.203125 234.683594 "/>
<path style=" stroke:none;fill-rule:nonzero;fill:rgb(100%,100%,100%);fill-opacity:1;" d="M 148.40625 269.359375 C 148.851562 269.363281 149.296875 269.367188 149.757812 269.371094 C 156.632812 269.554688 161.351562 272.324219 166.027344 277.210938 C 170.847656 282.8125 171.625 288.789062 171.382812 295.890625 C 171.210938 298.054688 170.546875 299.835938 169.683594 301.816406 C 168.074219 301.816406 168.074219 301.816406 166.542969 300.417969 C 165.941406 299.804688 165.34375 299.183594 164.75 298.558594 C 164.121094 297.914062 163.492188 297.265625 162.859375 296.621094 C 162.554688 296.3125 162.25 296 161.9375 295.679688 C 160.308594 294.046875 158.558594 292.5625 156.796875 291.074219 C 155.664062 290.070312 154.527344 289.0625 153.394531 288.058594 C 151.617188 286.582031 150.089844 286.570312 147.84375 286.585938 C 145.742188 286.910156 144.820312 287.941406 143.375 289.464844 C 142.761719 290.683594 142.710938 291.460938 142.667969 292.820312 C 142.648438 293.222656 142.628906 293.621094 142.609375 294.035156 C 143.183594 297.398438 145.90625 299.597656 148.339844 301.746094 C 148.964844 302.3125 149.589844 302.875 150.214844 303.441406 C 150.515625 303.710938 150.816406 303.984375 151.125 304.265625 C 152.578125 305.601562 153.953125 307.015625 155.335938 308.429688 C 156.234375 309.304688 157.160156 310.09375 158.140625 310.878906 C 158.582031 311.253906 159.027344 311.628906 159.484375 312.019531 C 159.484375 312.371094 159.484375 312.726562 159.484375 313.09375 C 153.484375 315.726562 146.503906 316.464844 140.183594 314.433594 C 133.066406 311.324219 129.0625 306.660156 126.179688 299.628906 C 124.230469 293.800781 124.894531 287.824219 127.300781 282.222656 C 130.578125 275.945312 135.355469 272.070312 142.078125 269.917969 C 144.195312 269.386719 146.238281 269.328125 148.40625 269.359375 Z M 135.855469 283.019531 C 133.394531 286.984375 132.136719 290.699219 132.632812 295.371094 C 133.738281 300.054688 135.824219 303.679688 139.800781 306.453125 C 140.984375 307.15625 142.074219 307.800781 143.375 308.257812 C 144.171875 307.992188 144.171875 307.992188 144.984375 307.722656 C 144.554688 307.507812 144.128906 307.292969 143.6875 307.070312 C 139.066406 304.589844 136.851562 302.261719 134.582031 297.621094 C 133.453125 291.867188 134.375 287.714844 137.535156 282.882812 C 140.820312 279.742188 143.917969 278.550781 148.476562 278.386719 C 152.769531 278.550781 155.867188 279.515625 159.015625 282.484375 C 160.453125 284.0625 161.488281 285.273438 162.167969 287.316406 C 162.523438 287.316406 162.875 287.316406 163.242188 287.316406 C 162.558594 283.90625 160.46875 281.929688 157.871094 279.796875 C 150.335938 275.125 141.691406 276.292969 135.855469 283.019531 Z M 139.21875 286.253906 C 137.410156 289.085938 136.675781 291.585938 137.230469 294.933594 C 138.203125 298.742188 140.207031 301.203125 143.375 303.425781 C 144.171875 303.160156 144.171875 303.160156 144.984375 302.890625 C 144.691406 302.6875 144.402344 302.484375 144.101562 302.277344 C 139.53125 299.007812 139.53125 299.007812 138.8125 295.789062 C 138.320312 292.515625 138.546875 289.710938 140.152344 286.777344 C 142.054688 284.542969 144.375 283.207031 147.289062 282.882812 C 150.996094 282.707031 153.203125 283.390625 156.011719 285.90625 C 156.652344 286.535156 157.265625 287.191406 157.871094 287.851562 C 158.050781 287.496094 158.226562 287.144531 158.410156 286.777344 C 156.273438 283.644531 154 282.402344 150.355469 281.40625 C 145.753906 280.585938 141.988281 282.6875 139.21875 286.253906 Z M 139.21875 286.253906 "/>
<path style=" stroke:none;fill-rule:nonzero;fill:rgb(100%,100%,100%);fill-opacity:1;" d="M 396.828125 234.683594 C 401.613281 234.683594 406.398438 234.683594 411.324219 234.683594 C 411.324219 254.886719 411.324219 275.09375 411.324219 295.90625 C 406.542969 295.90625 401.757812 295.90625 396.828125 295.90625 C 396.828125 275.703125 396.828125 255.5 396.828125 234.683594 Z M 396.828125 234.683594 "/>
<path style=" stroke:none;fill-rule:nonzero;fill:rgb(100%,100%,100%);fill-opacity:1;" d="M 949.917969 321.148438 C 951.246094 321.414062 951.246094 321.414062 952.601562 321.683594 C 954.019531 325.9375 955.4375 330.191406 956.898438 334.574219 C 957.886719 333.089844 958.417969 331.886719 959.015625 330.222656 C 959.207031 329.691406 959.394531 329.164062 959.59375 328.621094 C 959.789062 328.070312 959.984375 327.523438 960.1875 326.953125 C 960.386719 326.398438 960.585938 325.84375 960.792969 325.269531 C 961.285156 323.894531 961.777344 322.523438 962.265625 321.148438 C 963.152344 321.148438 964.039062 321.148438 964.953125 321.148438 C 966.546875 325.757812 968.140625 330.363281 969.785156 335.109375 C 971.378906 330.503906 972.972656 325.894531 974.617188 321.148438 C 975.503906 321.148438 976.390625 321.148438 977.300781 321.148438 C 975.351562 327.171875 973.402344 333.199219 971.394531 339.40625 C 970.507812 339.40625 969.625 339.40625 968.710938 339.40625 C 967.050781 335.574219 965.566406 331.738281 964.304688 327.753906 C 963.992188 326.554688 963.992188 326.554688 963.339844 325.980469 C 961.746094 330.410156 960.152344 334.84375 958.507812 339.40625 C 957.621094 339.40625 956.734375 339.40625 955.824219 339.40625 C 954.167969 335.078125 952.539062 330.742188 951.058594 326.351562 C 950.726562 325.375 950.726562 325.375 950.390625 324.375 C 949.917969 322.757812 949.917969 322.757812 949.917969 321.148438 Z M 949.917969 321.148438 "/>
<path style=" stroke:none;fill-rule:nonzero;fill:rgb(100%,100%,100%);fill-opacity:1;" d="M 791.507812 321.148438 C 792.835938 321.414062 792.835938 321.414062 794.191406 321.683594 C 795.609375 325.9375 797.027344 330.191406 798.488281 334.574219 C 799.476562 333.089844 800.011719 331.886719 800.605469 330.222656 C 800.796875 329.691406 800.988281 329.164062 801.183594 328.621094 C 801.378906 328.070312 801.574219 327.523438 801.777344 326.953125 C 801.976562 326.398438 802.175781 325.84375 802.382812 325.269531 C 802.875 323.894531 803.367188 322.523438 803.859375 321.148438 C 804.742188 321.148438 805.628906 321.148438 806.542969 321.148438 C 808.136719 325.757812 809.730469 330.363281 811.375 335.109375 C 812.96875 330.503906 814.566406 325.894531 816.207031 321.148438 C 817.09375 321.148438 817.980469 321.148438 818.894531 321.148438 C 816.945312 327.171875 814.996094 333.199219 812.988281 339.40625 C 812.101562 339.40625 811.214844 339.40625 810.300781 339.40625 C 808.644531 335.574219 807.15625 331.738281 805.898438 327.753906 C 805.582031 326.554688 805.582031 326.554688 804.933594 325.980469 C 803.335938 330.410156 801.742188 334.84375 800.097656 339.40625 C 799.214844 339.40625 798.328125 339.40625 797.414062 339.40625 C 795.757812 335.078125 794.132812 330.742188 792.648438 326.351562 C 792.316406 325.375 792.316406 325.375 791.980469 324.375 C 791.507812 322.757812 791.507812 322.757812 791.507812 321.148438 Z M 791.507812 321.148438 "/>
<path style=" stroke:none;fill-rule:nonzero;fill:rgb(100%,100%,100%);fill-opacity:1;" d="M 283.523438 321.148438 C 286.210938 321.683594 286.210938 321.683594 287.15625 322.832031 C 287.433594 323.324219 287.710938 323.816406 288 324.320312 C 288.457031 325.117188 288.457031 325.117188 288.925781 325.933594 C 289.238281 326.492188 289.546875 327.050781 289.867188 327.625 C 290.347656 328.46875 290.347656 328.46875 290.839844 329.328125 C 291.632812 330.714844 292.414062 332.105469 293.191406 333.5 C 293.839844 332.449219 294.488281 331.398438 295.136719 330.34375 C 295.332031 330.03125 295.527344 329.714844 295.726562 329.394531 C 296.65625 327.894531 297.554688 326.398438 298.414062 324.859375 C 298.683594 324.375 298.953125 323.894531 299.230469 323.398438 C 299.46875 322.960938 299.703125 322.527344 299.945312 322.078125 C 300.195312 321.769531 300.449219 321.464844 300.707031 321.148438 C 301.417969 321.148438 302.125 321.148438 302.855469 321.148438 C 302.855469 327.171875 302.855469 333.199219 302.855469 339.40625 C 302.148438 339.40625 301.4375 339.40625 300.707031 339.40625 C 300.441406 333.292969 300.441406 333.292969 300.171875 327.054688 C 298.222656 330.421875 296.273438 333.789062 294.265625 337.257812 C 292.117188 336.722656 292.117188 336.722656 291.332031 335.773438 C 290.976562 335.171875 290.976562 335.171875 290.613281 334.554688 C 290.378906 334.164062 290.144531 333.773438 289.902344 333.371094 C 289.617188 332.871094 289.328125 332.371094 289.027344 331.855469 C 288.097656 330.269531 287.167969 328.6875 286.210938 327.054688 C 286.03125 331.132812 285.855469 335.207031 285.671875 339.40625 C 284.964844 339.40625 284.253906 339.40625 283.523438 339.40625 C 283.523438 333.382812 283.523438 327.355469 283.523438 321.148438 Z M 283.523438 321.148438 "/>
<path style=" stroke:none;fill-rule:nonzero;fill:rgb(100%,100%,100%);fill-opacity:1;" d="M 578.328125 234.683594 C 581.695312 234.683594 585.058594 234.683594 588.527344 234.683594 C 589.652344 237.683594 590.714844 240.628906 591.648438 243.679688 C 591.78125 244.078125 591.910156 244.476562 592.042969 244.886719 C 592.527344 246.476562 592.882812 247.773438 592.597656 249.429688 C 591.257812 250.742188 589.800781 250.664062 587.992188 250.796875 C 583.273438 244.503906 583.273438 244.503906 582.417969 243.351562 C 581.832031 242.578125 581.230469 241.820312 580.617188 241.074219 C 580.320312 240.710938 580.027344 240.347656 579.722656 239.972656 C 579.320312 239.492188 579.320312 239.492188 578.910156 239 C 578.328125 237.90625 578.328125 237.90625 578.328125 234.683594 Z M 578.328125 234.683594 "/>
<path style=" stroke:none;fill-rule:nonzero;fill:rgb(100%,100%,100%);fill-opacity:1;" d="M 670.609375 234.625 C 671.035156 234.628906 671.460938 234.628906 671.898438 234.632812 C 672.585938 234.636719 672.585938 234.636719 673.285156 234.636719 C 674.011719 234.644531 674.011719 234.644531 674.746094 234.652344 C 675.230469 234.652344 675.714844 234.65625 676.214844 234.660156 C 677.414062 234.664062 678.617188 234.675781 679.816406 234.683594 C 680.082031 237.164062 679.683594 238.429688 678.125 240.375 C 677.882812 240.65625 677.644531 240.9375 677.398438 241.230469 C 676.90625 241.839844 676.417969 242.445312 675.925781 243.054688 C 675.679688 243.359375 675.429688 243.664062 675.175781 243.976562 C 674.054688 245.375 673.011719 246.824219 671.960938 248.277344 C 671.613281 248.765625 671.261719 249.25 670.902344 249.75 C 670.652344 250.09375 670.40625 250.441406 670.148438 250.796875 C 668.335938 250.660156 668.335938 250.660156 666.390625 250.257812 C 665.6875 249.347656 665.6875 249.347656 665.316406 248.109375 C 665.53125 246.691406 665.53125 246.691406 666.015625 245.101562 C 666.1875 244.527344 666.355469 243.957031 666.53125 243.367188 C 666.8125 242.476562 666.8125 242.476562 667.097656 241.566406 C 667.277344 240.964844 667.457031 240.363281 667.640625 239.746094 C 669.164062 234.710938 669.164062 234.710938 670.609375 234.625 Z M 670.609375 234.625 "/>
<path style=" stroke:none;fill-rule:nonzero;fill:rgb(100%,100%,100%);fill-opacity:1;" d="M 564.363281 234.683594 C 567.730469 234.683594 571.097656 234.683594 574.566406 234.683594 C 575.824219 237.617188 576.824219 240.339844 577.6875 243.378906 C 577.820312 243.804688 577.949219 244.230469 578.082031 244.667969 C 578.199219 245.082031 578.316406 245.496094 578.4375 245.917969 C 578.546875 246.289062 578.652344 246.660156 578.765625 247.039062 C 578.894531 248.449219 578.605469 249.113281 577.789062 250.257812 C 575.84375 250.660156 575.84375 250.660156 574.03125 250.796875 C 573.8125 250.5 573.597656 250.207031 573.375 249.902344 C 572.386719 248.554688 571.394531 247.207031 570.40625 245.863281 C 569.894531 245.164062 569.894531 245.164062 569.375 244.457031 C 569.042969 244.003906 568.710938 243.550781 568.367188 243.085938 C 568.046875 242.648438 567.726562 242.210938 567.394531 241.757812 C 566.476562 240.511719 566.476562 240.511719 565.195312 239.121094 C 564.363281 237.90625 564.363281 237.90625 564.363281 234.683594 Z M 564.363281 234.683594 "/>
<path style=" stroke:none;fill-rule:nonzero;fill:rgb(100%,100%,100%);fill-opacity:1;" d="M 684.570312 234.625 C 684.996094 234.628906 685.421875 234.628906 685.859375 234.632812 C 686.546875 234.636719 686.546875 234.636719 687.25 234.636719 C 687.972656 234.644531 687.972656 234.644531 688.710938 234.652344 C 689.195312 234.652344 689.675781 234.65625 690.175781 234.660156 C 691.375 234.664062 692.578125 234.675781 693.777344 234.683594 C 694.070312 236.386719 694 237.535156 693.105469 239.027344 C 692.152344 240.296875 691.167969 241.523438 690.152344 242.742188 C 689.472656 243.578125 688.792969 244.417969 688.113281 245.257812 C 687.792969 245.652344 687.472656 246.046875 687.140625 246.453125 C 686.039062 247.851562 685.066406 249.292969 684.113281 250.796875 C 682.300781 250.660156 682.300781 250.660156 680.351562 250.257812 C 679.648438 249.347656 679.648438 249.347656 679.277344 248.109375 C 679.492188 246.691406 679.492188 246.691406 679.976562 245.101562 C 680.148438 244.527344 680.320312 243.957031 680.496094 243.367188 C 680.773438 242.476562 680.773438 242.476562 681.058594 241.566406 C 681.238281 240.964844 681.417969 240.363281 681.601562 239.746094 C 683.125 234.710938 683.125 234.710938 684.570312 234.625 Z M 684.570312 234.625 "/>
<path style=" stroke:none;fill-rule:nonzero;fill:rgb(100%,100%,100%);fill-opacity:1;" d="M 584.769531 321.148438 C 587.761719 321.746094 588.535156 322.625 590.308594 324.875 C 590.5625 325.183594 590.816406 325.496094 591.078125 325.816406 C 591.847656 326.761719 592.605469 327.714844 593.363281 328.667969 C 593.804688 329.214844 594.246094 329.761719 594.699219 330.324219 C 595.691406 331.554688 596.675781 332.796875 597.65625 334.035156 C 597.835938 329.785156 598.011719 325.53125 598.195312 321.148438 C 598.902344 321.148438 599.613281 321.148438 600.34375 321.148438 C 600.34375 327.171875 600.34375 333.199219 600.34375 339.40625 C 597.320312 338.804688 597.320312 338.804688 595.980469 337.089844 C 595.691406 336.722656 595.398438 336.355469 595.097656 335.980469 C 594.800781 335.59375 594.507812 335.207031 594.199219 334.808594 C 593.90625 334.4375 593.613281 334.066406 593.3125 333.683594 C 591.3125 331.148438 589.390625 328.5625 587.457031 325.980469 C 587.277344 330.410156 587.101562 334.84375 586.917969 339.40625 C 586.210938 339.40625 585.5 339.40625 584.769531 339.40625 C 584.769531 333.382812 584.769531 327.355469 584.769531 321.148438 Z M 584.769531 321.148438 "/>
<path style=" stroke:none;fill-rule:nonzero;fill:rgb(100%,100%,100%);fill-opacity:1;" d="M 396.828125 321.148438 C 399.820312 321.746094 400.59375 322.625 402.363281 324.875 C 402.621094 325.183594 402.875 325.496094 403.136719 325.816406 C 403.902344 326.761719 404.660156 327.714844 405.417969 328.667969 C 405.859375 329.214844 406.300781 329.761719 406.757812 330.324219 C 407.75 331.554688 408.734375 332.796875 409.714844 334.035156 C 409.890625 329.785156 410.070312 325.53125 410.253906 321.148438 C 410.960938 321.148438 411.667969 321.148438 412.398438 321.148438 C 412.398438 327.171875 412.398438 333.199219 412.398438 339.40625 C 409.378906 338.804688 409.378906 338.804688 408.039062 337.089844 C 407.746094 336.722656 407.457031 336.355469 407.15625 335.980469 C 406.859375 335.59375 406.5625 335.207031 406.257812 334.808594 C 405.964844 334.4375 405.671875 334.066406 405.367188 333.683594 C 403.371094 331.148438 401.449219 328.5625 399.511719 325.980469 C 399.335938 330.410156 399.15625 334.84375 398.976562 339.40625 C 398.265625 339.40625 397.558594 339.40625 396.828125 339.40625 C 396.828125 333.382812 396.828125 327.355469 396.828125 321.148438 Z M 396.828125 321.148438 "/>
<path style=" stroke:none;fill-rule:nonzero;fill:rgb(100%,100%,100%);fill-opacity:1;" d="M 328.09375 321.148438 C 331.085938 321.746094 331.859375 322.625 333.632812 324.875 C 333.886719 325.183594 334.140625 325.496094 334.402344 325.816406 C 335.171875 326.761719 335.929688 327.714844 336.6875 328.667969 C 337.128906 329.214844 337.570312 329.761719 338.023438 330.324219 C 339.015625 331.554688 340 332.796875 340.980469 334.035156 C 341.160156 329.785156 341.335938 325.53125 341.519531 321.148438 C 342.226562 321.148438 342.9375 321.148438 343.667969 321.148438 C 343.667969 327.171875 343.667969 333.199219 343.667969 339.40625 C 340.644531 338.804688 340.644531 338.804688 339.304688 337.089844 C 339.015625 336.722656 338.722656 336.355469 338.421875 335.980469 C 338.125 335.59375 337.828125 335.207031 337.523438 334.808594 C 337.230469 334.4375 336.9375 334.066406 336.632812 333.683594 C 334.636719 331.148438 332.714844 328.5625 330.777344 325.980469 C 330.601562 330.410156 330.425781 334.84375 330.242188 339.40625 C 329.535156 339.40625 328.824219 339.40625 328.09375 339.40625 C 328.09375 333.382812 328.09375 327.355469 328.09375 321.148438 Z M 328.09375 321.148438 "/>
<path style=" stroke:none;fill-rule:nonzero;fill:rgb(100%,100%,100%);fill-opacity:1;" d="M 474.945312 321.605469 C 477.675781 323.105469 479.175781 325.15625 480.058594 328.128906 C 480.582031 330.925781 480.050781 333.277344 478.648438 335.738281 C 476.851562 338.140625 474.894531 339.210938 471.933594 339.664062 C 468.621094 339.808594 465.898438 339.621094 463.191406 337.589844 C 461.152344 335.519531 460.105469 333.179688 459.921875 330.277344 C 460.105469 327.375 461.152344 325.039062 463.191406 322.96875 C 466.574219 320.429688 471.007812 320.25 474.945312 321.605469 Z M 464.320312 325.378906 C 462.773438 327.324219 462.304688 328.578125 462.441406 331.082031 C 463.011719 333.554688 463.679688 335.019531 465.695312 336.589844 C 468.285156 337.765625 470.460938 338.082031 473.179688 337.226562 C 475.367188 336.289062 476.332031 335.132812 477.375 332.964844 C 478.070312 330.609375 478.03125 329.125 477.039062 326.921875 C 475.996094 325.078125 475.09375 324.09375 473.078125 323.296875 C 469.539062 322.378906 467.152344 323.082031 464.320312 325.378906 Z M 464.320312 325.378906 "/>
<path style=" stroke:none;fill-rule:nonzero;fill:rgb(100%,100%,100%);fill-opacity:1;" d="M 505.296875 321.148438 C 506.914062 321.113281 508.53125 321.082031 510.199219 321.046875 C 510.699219 321.03125 511.203125 321.019531 511.722656 321.003906 C 514.445312 320.976562 516.410156 321.15625 518.722656 322.757812 C 520.101562 324.683594 520.042969 326.683594 520.011719 328.984375 C 519.6875 330.925781 518.605469 331.769531 517.109375 332.964844 C 517.109375 334.542969 517.898438 335.453125 518.722656 336.789062 C 519.019531 337.277344 519.320312 337.765625 519.628906 338.269531 C 519.859375 338.644531 520.09375 339.019531 520.332031 339.40625 C 519.117188 339.554688 519.117188 339.554688 517.648438 339.40625 C 516.5625 338.386719 516.5625 338.386719 515.601562 337.058594 C 515.277344 336.621094 514.953125 336.1875 514.617188 335.734375 C 513.890625 334.574219 513.890625 334.574219 513.890625 333.5 C 511.761719 333.5 509.636719 333.5 507.445312 333.5 C 507.445312 335.449219 507.445312 337.398438 507.445312 339.40625 C 506.738281 339.40625 506.027344 339.40625 505.296875 339.40625 C 505.296875 333.382812 505.296875 327.355469 505.296875 321.148438 Z M 507.445312 322.757812 C 507.445312 325.773438 507.445312 328.785156 507.445312 331.890625 C 508.824219 331.921875 508.824219 331.921875 510.230469 331.957031 C 511.007812 331.976562 511.007812 331.976562 511.796875 331.992188 C 513.816406 331.859375 515.328125 331.28125 517.011719 330.175781 C 518.058594 328.578125 517.875 327.296875 517.648438 325.445312 C 516.664062 324.058594 515.957031 323.457031 514.359375 322.894531 C 512.050781 322.691406 509.761719 322.726562 507.445312 322.757812 Z M 507.445312 322.757812 "/>
<path style=" stroke:none;fill-rule:nonzero;fill:rgb(100%,100%,100%);fill-opacity:1;" d="M 891.921875 321.148438 C 892.632812 321.148438 893.339844 321.148438 894.070312 321.148438 C 894.246094 324.339844 894.425781 327.527344 894.605469 330.816406 C 895.269531 330.117188 895.929688 329.417969 896.609375 328.699219 C 897.484375 327.792969 898.363281 326.886719 899.238281 325.980469 C 899.671875 325.519531 900.105469 325.058594 900.554688 324.585938 C 900.980469 324.148438 901.40625 323.710938 901.84375 323.261719 C 902.230469 322.859375 902.621094 322.453125 903.019531 322.035156 C 904.601562 320.914062 905.597656 320.976562 907.496094 321.148438 C 905.128906 323.988281 902.621094 326.621094 899.976562 329.203125 C 902.152344 332.257812 904.542969 335.042969 907.085938 337.792969 C 908.03125 338.871094 908.03125 338.871094 908.03125 339.40625 C 906.433594 339.652344 905.285156 339.753906 903.941406 338.769531 C 903.042969 337.875 902.210938 336.949219 901.386719 335.984375 C 901.09375 335.660156 900.800781 335.335938 900.5 335.003906 C 898.367188 332.597656 898.367188 332.597656 898.367188 331.351562 C 895.691406 333.121094 895.691406 333.121094 894.238281 335.863281 C 894.117188 337.054688 894.050781 338.210938 894.070312 339.40625 C 893.363281 339.40625 892.652344 339.40625 891.921875 339.40625 C 891.921875 333.382812 891.921875 327.355469 891.921875 321.148438 Z M 891.921875 321.148438 "/>
<path style=" stroke:none;fill-rule:nonzero;fill:rgb(100%,100%,100%);fill-opacity:1;" d="M 986.734375 321.113281 C 987.378906 321.132812 987.378906 321.132812 988.042969 321.148438 C 989.191406 323.574219 990.339844 326.003906 991.484375 328.429688 C 991.871094 329.257812 992.261719 330.085938 992.65625 330.910156 C 993.214844 332.09375 993.777344 333.28125 994.335938 334.46875 C 994.511719 334.839844 994.6875 335.210938 994.867188 335.589844 C 996.097656 338.210938 996.097656 338.210938 996.097656 339.40625 C 995.210938 339.40625 994.324219 339.40625 993.410156 339.40625 C 991.800781 336.386719 991.800781 336.386719 991.800781 334.574219 C 988.433594 334.574219 985.066406 334.574219 981.597656 334.574219 C 981.066406 336.167969 980.535156 337.765625 979.988281 339.40625 C 979.101562 339.40625 978.214844 339.40625 977.300781 339.40625 C 978.539062 335.402344 980.167969 331.660156 981.933594 327.859375 C 982.203125 327.273438 982.472656 326.683594 982.75 326.078125 C 985.023438 321.15625 985.023438 321.15625 986.734375 321.113281 Z M 986.429688 323.832031 C 985.800781 325.152344 985.175781 326.472656 984.550781 327.792969 C 984.371094 328.167969 984.191406 328.542969 984.007812 328.929688 C 983.019531 330.863281 983.019531 330.863281 982.671875 332.964844 C 985.328125 332.964844 987.988281 332.964844 990.726562 332.964844 C 990.304688 331.953125 989.886719 330.945312 989.453125 329.910156 C 988.609375 327.890625 987.773438 325.867188 986.96875 323.832031 C 986.789062 323.832031 986.613281 323.832031 986.429688 323.832031 Z M 986.429688 323.832031 "/>
<path style=" stroke:none;fill-rule:nonzero;fill:rgb(100%,100%,100%);fill-opacity:1;" d="M 940.550781 321.113281 C 941.199219 321.132812 941.199219 321.132812 941.863281 321.148438 C 943.011719 323.574219 944.160156 326.003906 945.304688 328.429688 C 945.691406 329.257812 946.082031 330.085938 946.476562 330.910156 C 947.035156 332.09375 947.59375 333.28125 948.152344 334.46875 C 948.332031 334.839844 948.507812 335.210938 948.6875 335.589844 C 949.917969 338.210938 949.917969 338.210938 949.917969 339.40625 C 949.03125 339.40625 948.144531 339.40625 947.230469 339.40625 C 945.621094 336.386719 945.621094 336.386719 945.621094 334.574219 C 942.253906 334.574219 938.886719 334.574219 935.417969 334.574219 C 934.886719 336.167969 934.355469 337.765625 933.808594 339.40625 C 932.921875 339.40625 932.035156 339.40625 931.121094 339.40625 C 932.359375 335.402344 933.988281 331.660156 935.753906 327.859375 C 936.023438 327.273438 936.292969 326.683594 936.570312 326.078125 C 938.84375 321.15625 938.84375 321.15625 940.550781 321.113281 Z M 940.25 323.832031 C 939.621094 325.152344 938.996094 326.472656 938.371094 327.792969 C 938.191406 328.167969 938.011719 328.542969 937.828125 328.929688 C 936.839844 330.863281 936.839844 330.863281 936.492188 332.964844 C 939.148438 332.964844 941.808594 332.964844 944.546875 332.964844 C 944.125 331.953125 943.703125 330.945312 943.269531 329.910156 C 942.429688 327.890625 941.59375 325.867188 940.789062 323.832031 C 940.609375 323.832031 940.433594 323.832031 940.25 323.832031 Z M 940.25 323.832031 "/>
<path style=" stroke:none;fill-rule:nonzero;fill:rgb(100%,100%,100%);fill-opacity:1;" d="M 739.722656 321.113281 C 740.371094 321.132812 740.371094 321.132812 741.03125 321.148438 C 742.179688 323.574219 743.328125 326.003906 744.472656 328.429688 C 744.863281 329.257812 745.253906 330.085938 745.644531 330.910156 C 746.207031 332.09375 746.765625 333.28125 747.324219 334.46875 C 747.5 334.839844 747.675781 335.210938 747.859375 335.589844 C 749.085938 338.210938 749.085938 338.210938 749.085938 339.40625 C 748.199219 339.40625 747.3125 339.40625 746.402344 339.40625 C 744.789062 336.386719 744.789062 336.386719 744.789062 334.574219 C 741.421875 334.574219 738.054688 334.574219 734.585938 334.574219 C 734.054688 336.167969 733.523438 337.765625 732.976562 339.40625 C 732.089844 339.40625 731.203125 339.40625 730.292969 339.40625 C 731.527344 335.402344 733.15625 331.660156 734.921875 327.859375 C 735.191406 327.273438 735.464844 326.683594 735.742188 326.078125 C 738.011719 321.15625 738.011719 321.15625 739.722656 321.113281 Z M 739.421875 323.832031 C 738.792969 325.152344 738.164062 326.472656 737.539062 327.792969 C 737.363281 328.167969 737.183594 328.542969 736.996094 328.929688 C 736.007812 330.863281 736.007812 330.863281 735.660156 332.964844 C 738.320312 332.964844 740.976562 332.964844 743.714844 332.964844 C 743.296875 331.953125 742.875 330.945312 742.441406 329.910156 C 741.597656 327.890625 740.765625 325.867188 739.957031 323.832031 C 739.78125 323.832031 739.601562 323.832031 739.421875 323.832031 Z M 739.421875 323.832031 "/>
<path style=" stroke:none;fill-rule:nonzero;fill:rgb(100%,100%,100%);fill-opacity:1;" d="M 431.265625 321.597656 C 432.46875 322.367188 433.238281 323.089844 433.878906 324.371094 C 432.816406 324.902344 432.816406 324.902344 431.730469 325.445312 C 431.453125 325.191406 431.175781 324.933594 430.890625 324.671875 C 429.144531 323.550781 427.898438 323.367188 425.824219 323.296875 C 423.066406 324.136719 421.398438 325.089844 419.917969 327.59375 C 419.285156 329.867188 419.304688 331.097656 419.984375 333.367188 C 421.085938 335.273438 421.660156 335.898438 423.675781 336.722656 C 426.375 337.359375 428.097656 337.246094 430.65625 336.183594 C 430.835938 334.234375 431.011719 332.285156 431.195312 330.277344 C 431.902344 330.277344 432.613281 330.277344 433.34375 330.277344 C 433.34375 332.757812 433.34375 335.238281 433.34375 337.796875 C 429.640625 339.648438 427.191406 339.921875 423.140625 339.40625 C 420.511719 338.511719 418.871094 337.078125 417.5 334.675781 C 416.386719 332.023438 416.210938 329.757812 417.03125 327 C 418.070312 324.53125 419.457031 322.902344 421.808594 321.601562 C 424.773438 320.589844 428.320312 320.4375 431.265625 321.597656 Z M 431.265625 321.597656 "/>
<path style=" stroke:none;fill-rule:nonzero;fill:rgb(100%,100%,100%);fill-opacity:1;" d="M 381.328125 321.597656 C 382.527344 322.367188 383.300781 323.089844 383.941406 324.371094 C 382.875 324.902344 382.875 324.902344 381.792969 325.445312 C 381.515625 325.191406 381.238281 324.933594 380.953125 324.671875 C 379.207031 323.550781 377.957031 323.367188 375.886719 323.296875 C 373.125 324.136719 371.457031 325.089844 369.980469 327.59375 C 369.347656 329.867188 369.367188 331.097656 370.046875 333.367188 C 371.148438 335.273438 371.71875 335.898438 373.738281 336.722656 C 376.4375 337.359375 378.15625 337.246094 380.71875 336.183594 C 380.894531 334.234375 381.074219 332.285156 381.253906 330.277344 C 381.964844 330.277344 382.671875 330.277344 383.402344 330.277344 C 383.402344 332.757812 383.402344 335.238281 383.402344 337.796875 C 379.699219 339.648438 377.25 339.921875 373.199219 339.40625 C 370.570312 338.511719 368.933594 337.078125 367.5625 334.675781 C 366.449219 332.023438 366.273438 329.757812 367.09375 327 C 368.128906 324.53125 369.519531 322.902344 371.867188 321.601562 C 374.835938 320.589844 378.382812 320.4375 381.328125 321.597656 Z M 381.328125 321.597656 "/>
<path style=" stroke:none;fill-rule:nonzero;fill:rgb(100%,100%,100%);fill-opacity:1;" d="M 356.320312 321.113281 C 356.96875 321.132812 356.96875 321.132812 357.628906 321.148438 C 358.777344 323.574219 359.925781 326.003906 361.070312 328.429688 C 361.460938 329.257812 361.851562 330.085938 362.242188 330.910156 C 362.804688 332.09375 363.363281 333.28125 363.921875 334.46875 C 364.097656 334.839844 364.273438 335.210938 364.453125 335.589844 C 365.683594 338.210938 365.683594 338.210938 365.683594 339.40625 C 364.796875 339.40625 363.910156 339.40625 362.996094 339.40625 C 361.386719 336.386719 361.386719 336.386719 361.386719 334.574219 C 358.019531 334.574219 354.652344 334.574219 351.183594 334.574219 C 350.652344 336.167969 350.121094 337.765625 349.574219 339.40625 C 348.6875 339.40625 347.800781 339.40625 346.886719 339.40625 C 348.125 335.402344 349.753906 331.660156 351.519531 327.859375 C 351.789062 327.273438 352.058594 326.683594 352.339844 326.078125 C 354.609375 321.15625 354.609375 321.15625 356.320312 321.113281 Z M 356.015625 323.832031 C 355.386719 325.152344 354.761719 326.472656 354.136719 327.792969 C 353.957031 328.167969 353.777344 328.542969 353.59375 328.929688 C 352.605469 330.863281 352.605469 330.863281 352.257812 332.964844 C 354.917969 332.964844 357.574219 332.964844 360.3125 332.964844 C 359.890625 331.953125 359.472656 330.945312 359.039062 329.910156 C 358.195312 327.890625 357.363281 325.867188 356.554688 323.832031 C 356.378906 323.832031 356.199219 323.832031 356.015625 323.832031 Z M 356.015625 323.832031 "/>
<path style=" stroke:none;fill-rule:nonzero;fill:rgb(100%,100%,100%);fill-opacity:1;" d="M 315.507812 321.113281 C 316.15625 321.132812 316.15625 321.132812 316.816406 321.148438 C 317.96875 323.574219 319.113281 326.003906 320.257812 328.429688 C 320.648438 329.257812 321.039062 330.085938 321.429688 330.910156 C 321.992188 332.09375 322.550781 333.28125 323.109375 334.46875 C 323.285156 334.839844 323.460938 335.210938 323.644531 335.589844 C 324.871094 338.210938 324.871094 338.210938 324.871094 339.40625 C 323.988281 339.40625 323.101562 339.40625 322.1875 339.40625 C 320.578125 336.386719 320.578125 336.386719 320.578125 334.574219 C 317.210938 334.574219 313.84375 334.574219 310.375 334.574219 C 309.84375 336.167969 309.3125 337.765625 308.761719 339.40625 C 307.878906 339.40625 306.992188 339.40625 306.078125 339.40625 C 307.316406 335.402344 308.941406 331.660156 310.710938 327.859375 C 310.980469 327.273438 311.25 326.683594 311.527344 326.078125 C 313.800781 321.15625 313.800781 321.15625 315.507812 321.113281 Z M 315.207031 323.832031 C 314.578125 325.152344 313.953125 326.472656 313.328125 327.792969 C 313.148438 328.167969 312.96875 328.542969 312.785156 328.929688 C 311.796875 330.863281 311.796875 330.863281 311.449219 332.964844 C 314.105469 332.964844 316.765625 332.964844 319.503906 332.964844 C 319.082031 331.953125 318.660156 330.945312 318.226562 329.910156 C 317.382812 327.890625 316.550781 325.867188 315.742188 323.832031 C 315.566406 323.832031 315.390625 323.832031 315.207031 323.832031 Z M 315.207031 323.832031 "/>
<path style=" stroke:none;fill-rule:nonzero;fill:rgb(100%,100%,100%);fill-opacity:1;" d="M 920.597656 321.699219 C 920.878906 321.871094 921.164062 322.042969 921.457031 322.222656 C 921.457031 322.929688 921.457031 323.640625 921.457031 324.371094 C 921.023438 324.28125 920.589844 324.191406 920.140625 324.097656 C 919.28125 323.933594 919.28125 323.933594 918.402344 323.765625 C 917.835938 323.652344 917.269531 323.542969 916.683594 323.425781 C 914.863281 323.285156 913.910156 323.476562 912.328125 324.371094 C 911.847656 325.738281 911.847656 325.738281 911.789062 327.054688 C 913.527344 328.269531 915.132812 328.875 917.160156 329.40625 C 919.582031 330.101562 921.042969 330.832031 922.53125 332.964844 C 922.867188 334.574219 922.867188 334.574219 922.53125 336.183594 C 921.363281 337.566406 920.394531 338.597656 918.769531 339.40625 C 911.664062 339.917969 911.664062 339.917969 908.570312 337.796875 C 908.746094 337.085938 908.921875 336.378906 909.105469 335.648438 C 909.601562 335.839844 909.601562 335.839844 910.109375 336.039062 C 913.542969 337.238281 915.859375 337.34375 919.308594 336.183594 C 919.484375 335.121094 919.664062 334.058594 919.84375 332.964844 C 919.46875 332.871094 919.09375 332.78125 918.703125 332.6875 C 915.433594 331.851562 912.574219 330.886719 909.644531 329.203125 C 908.765625 327.453125 908.753906 325.71875 909.105469 323.832031 C 911.679688 320.300781 916.679688 320.023438 920.597656 321.699219 Z M 920.597656 321.699219 "/>
<path style=" stroke:none;fill-rule:nonzero;fill:rgb(100%,100%,100%);fill-opacity:1;" d="M 704.730469 321.699219 C 705.015625 321.871094 705.296875 322.042969 705.589844 322.222656 C 705.589844 322.929688 705.589844 323.640625 705.589844 324.371094 C 705.15625 324.28125 704.722656 324.191406 704.277344 324.097656 C 703.414062 323.933594 703.414062 323.933594 702.535156 323.765625 C 701.96875 323.652344 701.402344 323.542969 700.820312 323.425781 C 698.996094 323.285156 698.046875 323.476562 696.460938 324.371094 C 695.980469 325.738281 695.980469 325.738281 695.925781 327.054688 C 697.660156 328.269531 699.269531 328.875 701.292969 329.40625 C 703.714844 330.101562 705.179688 330.832031 706.664062 332.964844 C 707 334.574219 707 334.574219 706.664062 336.183594 C 705.496094 337.566406 704.527344 338.597656 702.90625 339.40625 C 695.796875 339.917969 695.796875 339.917969 692.703125 337.796875 C 692.878906 337.085938 693.058594 336.378906 693.238281 335.648438 C 693.738281 335.839844 693.738281 335.839844 694.246094 336.039062 C 697.675781 337.238281 699.992188 337.34375 703.441406 336.183594 C 703.621094 335.121094 703.796875 334.058594 703.980469 332.964844 C 703.601562 332.871094 703.226562 332.78125 702.839844 332.6875 C 699.570312 331.851562 696.707031 330.886719 693.777344 329.203125 C 692.902344 327.453125 692.886719 325.71875 693.238281 323.832031 C 695.816406 320.300781 700.816406 320.023438 704.730469 321.699219 Z M 704.730469 321.699219 "/>
<path style=" stroke:none;fill-rule:nonzero;fill:rgb(100%,100%,100%);fill-opacity:1;" d="M 647.273438 321.699219 C 647.558594 321.871094 647.839844 322.042969 648.132812 322.222656 C 648.132812 322.929688 648.132812 323.640625 648.132812 324.371094 C 647.699219 324.28125 647.265625 324.191406 646.820312 324.097656 C 645.957031 323.933594 645.957031 323.933594 645.078125 323.765625 C 644.511719 323.652344 643.945312 323.542969 643.363281 323.425781 C 641.539062 323.285156 640.589844 323.476562 639.003906 324.371094 C 638.523438 325.738281 638.523438 325.738281 638.46875 327.054688 C 640.203125 328.269531 641.8125 328.875 643.839844 329.40625 C 646.257812 330.101562 647.722656 330.832031 649.207031 332.964844 C 649.542969 334.574219 649.542969 334.574219 649.207031 336.183594 C 648.042969 337.566406 647.070312 338.597656 645.449219 339.40625 C 638.339844 339.917969 638.339844 339.917969 635.246094 337.796875 C 635.421875 337.085938 635.601562 336.378906 635.785156 335.648438 C 636.28125 335.839844 636.28125 335.839844 636.789062 336.039062 C 640.21875 337.238281 642.535156 337.34375 645.984375 336.183594 C 646.164062 335.121094 646.339844 334.058594 646.523438 332.964844 C 646.144531 332.871094 645.769531 332.78125 645.382812 332.6875 C 642.113281 331.851562 639.25 330.886719 636.320312 329.203125 C 635.445312 327.453125 635.429688 325.71875 635.785156 323.832031 C 638.359375 320.300781 643.359375 320.023438 647.273438 321.699219 Z M 647.273438 321.699219 "/>
<path style=" stroke:none;fill-rule:nonzero;fill:rgb(100%,100%,100%);fill-opacity:1;" d="M 673.371094 321.148438 C 674.082031 321.148438 674.789062 321.148438 675.519531 321.148438 C 675.527344 321.46875 675.535156 321.792969 675.542969 322.125 C 675.582031 323.601562 675.636719 325.074219 675.6875 326.550781 C 675.699219 327.058594 675.710938 327.566406 675.722656 328.085938 C 675.839844 331.152344 676.132812 333.5 677.667969 336.183594 C 679.75 337.167969 680.945312 337.351562 683.207031 336.921875 C 684.867188 336.074219 685.078125 335.734375 685.722656 334.035156 C 685.917969 332.585938 685.917969 332.585938 685.945312 331.007812 C 685.964844 330.433594 685.984375 329.859375 686.007812 329.265625 C 686.023438 328.667969 686.039062 328.074219 686.058594 327.457031 C 686.078125 326.851562 686.097656 326.25 686.121094 325.625 C 686.171875 324.132812 686.21875 322.640625 686.257812 321.148438 C 686.96875 321.148438 687.675781 321.148438 688.40625 321.148438 C 688.46875 323.40625 688.507812 325.667969 688.542969 327.929688 C 688.570312 328.886719 688.570312 328.886719 688.597656 329.863281 C 688.664062 335.871094 688.664062 335.871094 686.257812 338.332031 C 683.796875 340.09375 680.546875 339.785156 677.667969 339.40625 C 675.800781 338.546875 674.746094 337.335938 673.835938 335.476562 C 673.324219 333.886719 673.25 332.625 673.265625 330.957031 C 673.269531 330.382812 673.273438 329.808594 673.277344 329.21875 C 673.285156 328.628906 673.296875 328.035156 673.304688 327.425781 C 673.308594 326.820312 673.3125 326.21875 673.320312 325.597656 C 673.332031 324.113281 673.351562 322.632812 673.371094 321.148438 Z M 673.371094 321.148438 "/>
<path style=" stroke:none;fill-rule:nonzero;fill:rgb(100%,100%,100%);fill-opacity:1;" d="M 484.355469 321.148438 C 485.0625 321.148438 485.773438 321.148438 486.503906 321.148438 C 486.511719 321.46875 486.519531 321.792969 486.527344 322.125 C 486.566406 323.601562 486.617188 325.074219 486.671875 326.550781 C 486.683594 327.058594 486.695312 327.566406 486.707031 328.085938 C 486.824219 331.152344 487.117188 333.5 488.652344 336.183594 C 490.734375 337.167969 491.925781 337.351562 494.1875 336.921875 C 495.851562 336.074219 496.0625 335.734375 496.707031 334.035156 C 496.902344 332.585938 496.902344 332.585938 496.929688 331.007812 C 496.949219 330.433594 496.96875 329.859375 496.992188 329.265625 C 497.007812 328.667969 497.023438 328.074219 497.042969 327.457031 C 497.0625 326.851562 497.082031 326.25 497.105469 325.625 C 497.15625 324.132812 497.199219 322.640625 497.242188 321.148438 C 497.953125 321.148438 498.660156 321.148438 499.390625 321.148438 C 499.453125 323.40625 499.492188 325.667969 499.523438 327.929688 C 499.550781 328.886719 499.550781 328.886719 499.578125 329.863281 C 499.648438 335.871094 499.648438 335.871094 497.242188 338.332031 C 494.78125 340.09375 491.53125 339.785156 488.652344 339.40625 C 486.785156 338.546875 485.730469 337.335938 484.820312 335.476562 C 484.304688 333.886719 484.234375 332.625 484.25 330.957031 C 484.253906 330.382812 484.257812 329.808594 484.261719 329.21875 C 484.269531 328.628906 484.277344 328.035156 484.289062 327.425781 C 484.292969 326.820312 484.296875 326.21875 484.304688 325.597656 C 484.316406 324.113281 484.332031 322.632812 484.355469 321.148438 Z M 484.355469 321.148438 "/>
<path style=" stroke:none;fill-rule:nonzero;fill:rgb(100%,100%,100%);fill-opacity:1;" d="M 546.109375 321.148438 C 546.992188 321.148438 547.878906 321.148438 548.792969 321.148438 C 550.917969 325.933594 553.046875 330.71875 555.238281 335.648438 C 557.246094 331.082031 557.246094 331.082031 559.234375 326.507812 C 559.617188 325.65625 559.617188 325.65625 560.007812 324.792969 C 560.265625 324.210938 560.519531 323.628906 560.785156 323.027344 C 561.679688 321.683594 561.679688 321.683594 563.128906 321.222656 C 563.535156 321.199219 563.945312 321.171875 564.363281 321.148438 C 563.09375 325.234375 561.445312 329.089844 559.699219 332.996094 C 559.425781 333.613281 559.152344 334.234375 558.867188 334.871094 C 558.195312 336.382812 557.523438 337.894531 556.847656 339.40625 C 555.960938 339.40625 555.074219 339.40625 554.164062 339.40625 C 551.90625 335 549.710938 330.582031 547.71875 326.046875 C 547.554688 325.683594 547.394531 325.316406 547.226562 324.9375 C 546.109375 322.355469 546.109375 322.355469 546.109375 321.148438 Z M 546.109375 321.148438 "/>
<path style=" stroke:none;fill-rule:nonzero;fill:rgb(100%,100%,100%);fill-opacity:1;" d="M 884.996094 321.515625 C 885.882812 321.953125 885.882812 321.953125 887.089844 322.757812 C 887.089844 323.46875 887.089844 324.175781 887.089844 324.90625 C 885.480469 324.90625 885.480469 324.90625 883.800781 324.035156 C 880.878906 322.703125 878.15625 323.945312 875.277344 324.90625 C 874.164062 327 873.640625 329.128906 873.730469 331.484375 C 874.605469 334.269531 874.605469 334.269531 876.703125 336.210938 C 879.6875 337.5625 881.894531 337.125 884.941406 336.183594 C 885.65625 336.003906 886.371094 335.824219 887.089844 335.648438 C 887.089844 336.355469 887.089844 337.066406 887.089844 337.796875 C 884.066406 339.8125 880.976562 339.890625 877.425781 339.40625 C 874.816406 338.496094 873.148438 337.070312 871.785156 334.675781 C 870.671875 332.023438 870.496094 329.757812 871.316406 327 C 872.363281 324.507812 873.761719 322.910156 876.128906 321.601562 C 878.945312 320.617188 882.152344 320.585938 884.996094 321.515625 Z M 884.996094 321.515625 "/>
<path style=" stroke:none;fill-rule:nonzero;fill:rgb(100%,100%,100%);fill-opacity:1;" d="M 842.039062 321.515625 C 842.921875 321.953125 842.921875 321.953125 844.132812 322.757812 C 844.132812 323.46875 844.132812 324.175781 844.132812 324.90625 C 842.519531 324.90625 842.519531 324.90625 840.84375 324.035156 C 837.921875 322.703125 835.199219 323.945312 832.316406 324.90625 C 831.207031 327 830.683594 329.128906 830.773438 331.484375 C 831.648438 334.269531 831.648438 334.269531 833.746094 336.210938 C 836.730469 337.5625 838.9375 337.125 841.984375 336.183594 C 842.699219 336.003906 843.414062 335.824219 844.132812 335.648438 C 844.132812 336.355469 844.132812 337.066406 844.132812 337.796875 C 841.109375 339.8125 838.015625 339.890625 834.464844 339.40625 C 831.859375 338.496094 830.1875 337.070312 828.828125 334.675781 C 827.714844 332.023438 827.539062 329.757812 828.359375 327 C 829.402344 324.507812 830.804688 322.910156 833.167969 321.601562 C 835.988281 320.617188 839.195312 320.585938 842.039062 321.515625 Z M 842.039062 321.515625 "/>
<path style=" stroke:none;fill-rule:nonzero;fill:rgb(100%,100%,100%);fill-opacity:1;" d="M 775.933594 321.148438 C 780.1875 321.148438 784.441406 321.148438 788.824219 321.148438 C 788.824219 321.679688 788.824219 322.210938 788.824219 322.757812 C 785.277344 322.757812 781.734375 322.757812 778.082031 322.757812 C 778.082031 324.886719 778.082031 327.011719 778.082031 329.203125 C 781.273438 329.203125 784.460938 329.203125 787.75 329.203125 C 787.75 329.734375 787.75 330.265625 787.75 330.816406 C 784.558594 330.816406 781.367188 330.816406 778.082031 330.816406 C 778.082031 333.117188 778.082031 335.421875 778.082031 337.796875 C 781.804688 337.796875 785.523438 337.796875 789.359375 337.796875 C 789.359375 338.328125 789.359375 338.859375 789.359375 339.40625 C 784.929688 339.40625 780.5 339.40625 775.933594 339.40625 C 775.933594 333.382812 775.933594 327.355469 775.933594 321.148438 Z M 775.933594 321.148438 "/>
<path style=" stroke:none;fill-rule:nonzero;fill:rgb(100%,100%,100%);fill-opacity:1;" d="M 567.050781 321.148438 C 571.304688 321.148438 575.554688 321.148438 579.9375 321.148438 C 579.9375 321.679688 579.9375 322.210938 579.9375 322.757812 C 576.394531 322.757812 572.847656 322.757812 569.199219 322.757812 C 569.199219 324.886719 569.199219 327.011719 569.199219 329.203125 C 572.386719 329.203125 575.578125 329.203125 578.863281 329.203125 C 578.863281 329.734375 578.863281 330.265625 578.863281 330.816406 C 575.675781 330.816406 572.484375 330.816406 569.199219 330.816406 C 569.199219 333.117188 569.199219 335.421875 569.199219 337.796875 C 572.917969 337.796875 576.640625 337.796875 580.472656 337.796875 C 580.472656 338.328125 580.472656 338.859375 580.472656 339.40625 C 576.042969 339.40625 571.613281 339.40625 567.050781 339.40625 C 567.050781 333.382812 567.050781 327.355469 567.050781 321.148438 Z M 567.050781 321.148438 "/>
<path style=" stroke:none;fill-rule:nonzero;fill:rgb(100%,100%,100%);fill-opacity:1;" d="M 531.609375 321.148438 C 535.863281 321.148438 540.113281 321.148438 544.496094 321.148438 C 544.496094 321.679688 544.496094 322.210938 544.496094 322.757812 C 540.953125 322.757812 537.410156 322.757812 533.757812 322.757812 C 533.757812 324.886719 533.757812 327.011719 533.757812 329.203125 C 536.945312 329.203125 540.136719 329.203125 543.421875 329.203125 C 543.421875 329.734375 543.421875 330.265625 543.421875 330.816406 C 540.234375 330.816406 537.042969 330.816406 533.757812 330.816406 C 533.757812 333.117188 533.757812 335.421875 533.757812 337.796875 C 537.480469 337.796875 541.199219 337.796875 545.035156 337.796875 C 545.035156 338.328125 545.035156 338.859375 545.035156 339.40625 C 540.605469 339.40625 536.171875 339.40625 531.609375 339.40625 C 531.609375 333.382812 531.609375 327.355469 531.609375 321.148438 Z M 531.609375 321.148438 "/>
<path style=" stroke:none;fill-rule:nonzero;fill:rgb(100%,100%,100%);fill-opacity:1;" d="M 995.023438 321.148438 C 996.273438 321.023438 996.273438 321.023438 997.707031 321.148438 C 998.503906 321.984375 998.503906 321.984375 999.144531 323.144531 C 999.378906 323.558594 999.613281 323.96875 999.851562 324.394531 C 1000.085938 324.828125 1000.320312 325.265625 1000.558594 325.714844 C 1000.804688 326.148438 1001.046875 326.582031 1001.300781 327.03125 C 1001.902344 328.109375 1002.492188 329.191406 1003.078125 330.277344 C 1003.296875 329.949219 1003.515625 329.625 1003.742188 329.285156 C 1004.300781 328.457031 1004.855469 327.632812 1005.414062 326.804688 C 1005.976562 325.941406 1006.511719 325.0625 1007.015625 324.167969 C 1007.234375 323.78125 1007.449219 323.394531 1007.675781 322.996094 C 1007.863281 322.640625 1008.054688 322.285156 1008.246094 321.917969 C 1008.984375 321.148438 1008.984375 321.148438 1010.40625 321.03125 C 1010.824219 321.070312 1011.238281 321.109375 1011.667969 321.148438 C 1010.050781 324.210938 1008.398438 327.140625 1006.398438 329.976562 C 1004.394531 333.03125 1004.105469 335.808594 1004.152344 339.40625 C 1003.441406 339.40625 1002.734375 339.40625 1002.003906 339.40625 C 1002.039062 339.066406 1002.074219 338.726562 1002.113281 338.375 C 1002.210938 332.402344 998.789062 328.046875 995.605469 323.226562 C 995.023438 322.222656 995.023438 322.222656 995.023438 321.148438 Z M 995.023438 321.148438 "/>
<path style=" stroke:none;fill-rule:nonzero;fill:rgb(100%,100%,100%);fill-opacity:1;" d="M 443.007812 321.148438 C 444.261719 321.023438 444.261719 321.023438 445.691406 321.148438 C 446.492188 321.984375 446.492188 321.984375 447.128906 323.144531 C 447.363281 323.558594 447.597656 323.96875 447.835938 324.394531 C 448.070312 324.828125 448.304688 325.265625 448.546875 325.714844 C 448.789062 326.148438 449.035156 326.582031 449.285156 327.03125 C 449.886719 328.109375 450.480469 329.191406 451.0625 330.277344 C 451.28125 329.949219 451.5 329.625 451.726562 329.285156 C 452.285156 328.457031 452.839844 327.632812 453.398438 326.804688 C 453.960938 325.941406 454.496094 325.0625 455 324.167969 C 455.21875 323.78125 455.4375 323.394531 455.660156 322.996094 C 455.847656 322.640625 456.039062 322.285156 456.234375 321.917969 C 456.96875 321.148438 456.96875 321.148438 458.394531 321.03125 C 458.808594 321.070312 459.226562 321.109375 459.652344 321.148438 C 458.035156 324.210938 456.382812 327.140625 454.386719 329.976562 C 452.382812 333.03125 452.09375 335.808594 452.136719 339.40625 C 451.425781 339.40625 450.71875 339.40625 449.988281 339.40625 C 450.023438 339.066406 450.058594 338.726562 450.097656 338.375 C 450.195312 332.402344 446.773438 328.046875 443.589844 323.226562 C 443.007812 322.222656 443.007812 322.222656 443.007812 321.148438 Z M 443.007812 321.148438 "/>
<path style=" stroke:none;fill-rule:nonzero;fill:rgb(100%,100%,100%);fill-opacity:1;" d="M 759.289062 321.148438 C 763.542969 321.148438 767.792969 321.148438 772.175781 321.148438 C 772.175781 321.679688 772.175781 322.210938 772.175781 322.757812 C 768.632812 322.757812 765.089844 322.757812 761.4375 322.757812 C 761.4375 325.0625 761.4375 327.367188 761.4375 329.742188 C 764.625 329.742188 767.816406 329.742188 771.101562 329.742188 C 771.101562 330.273438 771.101562 330.804688 771.101562 331.351562 C 767.914062 331.351562 764.722656 331.351562 761.4375 331.351562 C 761.4375 334.011719 761.4375 336.667969 761.4375 339.40625 C 760.726562 339.40625 760.019531 339.40625 759.289062 339.40625 C 759.289062 333.382812 759.289062 327.355469 759.289062 321.148438 Z M 759.289062 321.148438 "/>
<path style=" stroke:none;fill-rule:nonzero;fill:rgb(100%,100%,100%);fill-opacity:1;" d="M 658.875 321.148438 C 661.707031 321.148438 664.542969 321.148438 667.464844 321.148438 C 667.527344 323.316406 667.582031 325.484375 667.613281 327.65625 C 667.625 328.390625 667.644531 329.128906 667.667969 329.867188 C 667.699219 330.929688 667.714844 331.992188 667.726562 333.054688 C 667.742188 333.691406 667.753906 334.328125 667.769531 334.988281 C 667.375 337.226562 666.523438 338.003906 664.78125 339.40625 C 662.941406 339.894531 661.265625 339.804688 659.410156 339.40625 C 658.1875 338.621094 657.613281 337.90625 656.726562 336.722656 C 657.257812 336.191406 657.789062 335.660156 658.335938 335.109375 C 658.546875 335.367188 658.757812 335.621094 658.972656 335.882812 C 660.191406 336.933594 661.046875 337.101562 662.632812 337.257812 C 663.164062 337.082031 663.695312 336.90625 664.242188 336.722656 C 664.933594 335.339844 664.894531 334.269531 664.949219 332.722656 C 664.972656 332.144531 664.996094 331.566406 665.019531 330.972656 C 665.039062 330.367188 665.058594 329.761719 665.082031 329.136719 C 665.105469 328.527344 665.128906 327.917969 665.152344 327.289062 C 665.210938 325.777344 665.265625 324.269531 665.316406 322.757812 C 663.191406 322.757812 661.0625 322.757812 658.875 322.757812 C 658.875 322.226562 658.875 321.695312 658.875 321.148438 Z M 658.875 321.148438 "/>
<path style=" stroke:none;fill-rule:nonzero;fill:rgb(100%,100%,100%);fill-opacity:1;" d="M 707.738281 321.148438 C 712.699219 321.148438 717.660156 321.148438 722.773438 321.148438 C 722.773438 321.679688 722.773438 322.210938 722.773438 322.757812 C 720.648438 322.757812 718.519531 322.757812 716.332031 322.757812 C 716.332031 328.253906 716.332031 333.746094 716.332031 339.40625 C 715.621094 339.40625 714.914062 339.40625 714.183594 339.40625 C 714.183594 333.914062 714.183594 328.417969 714.183594 322.757812 C 712.054688 322.757812 709.929688 322.757812 707.738281 322.757812 C 707.738281 322.226562 707.738281 321.695312 707.738281 321.148438 Z M 707.738281 321.148438 "/>
<path style=" stroke:none;fill-rule:nonzero;fill:rgb(100%,100%,100%);fill-opacity:1;" d="M 603.566406 321.148438 C 608.527344 321.148438 613.488281 321.148438 618.601562 321.148438 C 618.601562 321.679688 618.601562 322.210938 618.601562 322.757812 C 616.472656 322.757812 614.347656 322.757812 612.15625 322.757812 C 612.15625 328.253906 612.15625 333.746094 612.15625 339.40625 C 611.449219 339.40625 610.738281 339.40625 610.007812 339.40625 C 610.007812 333.914062 610.007812 328.417969 610.007812 322.757812 C 607.882812 322.757812 605.753906 322.757812 603.566406 322.757812 C 603.566406 322.226562 603.566406 321.695312 603.566406 321.148438 Z M 603.566406 321.148438 "/>
<path style=" stroke:none;fill-rule:nonzero;fill:rgb(100%,100%,100%);fill-opacity:1;" d="M 848.964844 321.148438 C 849.671875 321.148438 850.382812 321.148438 851.113281 321.148438 C 851.113281 326.640625 851.113281 332.136719 851.113281 337.796875 C 854.480469 337.796875 857.84375 337.796875 861.316406 337.796875 C 861.316406 338.328125 861.316406 338.859375 861.316406 339.40625 C 857.238281 339.40625 853.164062 339.40625 848.964844 339.40625 C 848.964844 333.382812 848.964844 327.355469 848.964844 321.148438 Z M 848.964844 321.148438 "/>
<path style=" stroke:none;fill-rule:nonzero;fill:rgb(100%,100%,100%);fill-opacity:1;" d="M 864.535156 321.148438 C 865.246094 321.148438 865.953125 321.148438 866.683594 321.148438 C 866.683594 327.171875 866.683594 333.199219 866.683594 339.40625 C 865.976562 339.40625 865.265625 339.40625 864.535156 339.40625 C 864.535156 333.382812 864.535156 327.355469 864.535156 321.148438 Z M 864.535156 321.148438 "/>
<path style=" stroke:none;fill-rule:nonzero;fill:rgb(100%,100%,100%);fill-opacity:1;" d="M 628.800781 321.148438 C 629.511719 321.148438 630.21875 321.148438 630.949219 321.148438 C 630.949219 327.171875 630.949219 333.199219 630.949219 339.40625 C 630.242188 339.40625 629.53125 339.40625 628.800781 339.40625 C 628.800781 333.382812 628.800781 327.355469 628.800781 321.148438 Z M 628.800781 321.148438 "/>
<path style=" stroke:none;fill-rule:nonzero;fill:rgb(100%,100%,100%);fill-opacity:1;" d="M 388.773438 321.148438 C 389.480469 321.148438 390.191406 321.148438 390.921875 321.148438 C 390.921875 327.171875 390.921875 333.199219 390.921875 339.40625 C 390.210938 339.40625 389.503906 339.40625 388.773438 339.40625 C 388.773438 333.382812 388.773438 327.355469 388.773438 321.148438 Z M 388.773438 321.148438 "/>
</g>
</svg>