<svg xmlns="http://www.w3.org/2000/svg" xmlns:xlink="http://www.w3.org/1999/xlink" version="1.1" viewBox="9.66 163.8 1012.21 252.41">
<g id="surface1">
<path style=" stroke:none;fill-rule:nonzero;fill:rgb(95.686275%,46.666667%,12.941177%);fill-opacity:1;" d="M 253.453125 219.648438 C 253.632812 220.003906 253.808594 220.355469 253.992188 220.722656 C 250.226562 225.570312 246.378906 230.335938 242.46875 235.066406 C 240.648438 237.265625 238.84375 239.480469 237.042969 241.699219 C 236.613281 242.230469 236.613281 242.230469 236.175781 242.769531 C 235.601562 243.476562 235.027344 244.1875 234.449219 244.898438 C 233.289062 246.328125 232.128906 247.753906 230.96875 249.183594 C 230.386719 249.898438 229.804688 250.617188 229.226562 251.332031 C 227.757812 253.136719 226.292969 254.941406 224.824219 256.742188 C 222.050781 260.140625 219.296875 263.546875 216.605469 267.007812 C 214.4375 269.789062 212.199219 272.492188 209.910156 275.175781 C 208.128906 277.261719 206.402344 279.382812 204.699219 281.53125 C 203.210938 283.402344 201.703125 285.257812 200.191406 287.113281 C 199.894531 287.480469 199.597656 287.84375 199.292969 288.222656 C 197.777344 290.085938 196.257812 291.949219 194.742188 293.808594 C 191.972656 297.203125 189.222656 300.609375 186.53125 304.0625 C 184.367188 306.84375 182.128906 309.550781 179.839844 312.230469 C 178.058594 314.316406 176.332031 316.4375 174.628906 318.585938 C 173.140625 320.457031 171.632812 322.3125 170.121094 324.167969 C 169.824219 324.535156 169.527344 324.902344 169.21875 325.277344 C 167.707031 327.140625 166.1875 329.003906 164.671875 330.863281 C 161.902344 334.257812 159.152344 337.664062 156.460938 341.121094 C 154.296875 343.898438 152.054688 346.605469 149.769531 349.285156 C 147.988281 351.371094 146.261719 353.492188 144.558594 355.640625 C 143.066406 357.511719 141.558594 359.367188 140.050781 361.222656 C 139.753906 361.589844 139.453125 361.957031 139.148438 362.335938 C 138.535156 363.089844 137.921875 363.84375 137.308594 364.597656 C 135.550781 366.757812 133.789062 368.925781 132.03125 371.089844 C 130.566406 372.894531 129.097656 374.699219 127.628906 376.5 C 124.859375 379.898438 122.105469 383.308594 119.410156 386.765625 C 117.242188 389.546875 115.003906 392.253906 112.71875 394.933594 C 110.941406 397.015625 109.21875 399.132812 107.519531 401.277344 C 105.660156 403.609375 103.769531 405.917969 101.882812 408.230469 C 99.953125 410.597656 98.074219 412.992188 96.265625 415.449219 C 96.039062 415.699219 95.8125 415.945312 95.582031 416.203125 C 95.226562 416.203125 94.875 416.203125 94.507812 416.203125 C 94.457031 410.707031 94.609375 405.238281 94.851562 399.746094 C 94.890625 398.878906 94.925781 398.007812 94.964844 397.140625 C 95.0625 394.804688 95.164062 392.472656 95.265625 390.136719 C 95.375 387.691406 95.480469 385.242188 95.582031 382.792969 C 95.78125 378.167969 95.980469 373.542969 96.183594 368.917969 C 96.410156 363.648438 96.636719 358.375 96.863281 353.105469 C 97.328125 342.273438 97.796875 331.441406 98.265625 320.609375 C 97.242188 320.183594 96.214844 319.753906 95.191406 319.324219 C 94.617188 319.085938 94.046875 318.847656 93.457031 318.601562 C 91.4375 317.765625 89.402344 316.972656 87.355469 316.199219 C 86.949219 316.042969 86.542969 315.890625 86.125 315.730469 C 84.78125 315.21875 83.4375 314.710938 82.089844 314.199219 C 81.109375 313.828125 80.128906 313.457031 79.148438 313.082031 C 77.011719 312.269531 74.871094 311.457031 72.730469 310.644531 C 69.742188 309.511719 66.75 308.375 63.761719 307.242188 C 45.738281 300.394531 27.707031 293.578125 9.664062 286.777344 C 9.664062 286.246094 9.664062 285.714844 9.664062 285.167969 C 10.328125 284.988281 10.328125 284.988281 11 284.808594 C 16.855469 283.238281 22.707031 281.667969 28.5625 280.097656 C 29.289062 279.902344 29.289062 279.902344 30.035156 279.703125 C 46.246094 275.351562 62.457031 270.996094 78.667969 266.640625 C 93.878906 262.546875 109.09375 258.460938 124.304688 254.378906 C 145.503906 248.695312 166.699219 242.996094 187.894531 237.296875 C 195.230469 235.324219 202.5625 233.351562 209.898438 231.382812 C 213.367188 230.449219 216.832031 229.519531 220.300781 228.585938 C 223.074219 227.839844 225.84375 227.09375 228.617188 226.351562 C 231.199219 225.65625 233.78125 224.960938 236.363281 224.269531 C 237.304688 224.015625 238.25 223.761719 239.195312 223.507812 C 243.949219 222.230469 248.703125 220.949219 253.453125 219.648438 Z M 124.578125 269.59375 C 124.226562 269.847656 123.875 270.101562 123.507812 270.363281 C 118.15625 274.5625 114.53125 281.453125 113.457031 288.117188 C 112.546875 296.105469 114.398438 303.914062 119.210938 310.40625 C 125.042969 317.433594 132.296875 320.847656 141.230469 321.871094 C 149.15625 322.148438 156.375 319.09375 162.367188 314.03125 C 167.921875 308.722656 171.25 301.730469 171.480469 294.0625 C 171.582031 286.3125 169.984375 279.953125 164.851562 273.890625 C 164.519531 273.476562 164.183594 273.0625 163.839844 272.636719 C 159.464844 267.742188 152.570312 264.242188 146 263.570312 C 137.800781 263.109375 131.292969 264.679688 124.578125 269.59375 Z M 124.578125 269.59375 "/>
<path style=" stroke:none;fill-rule:nonzero;fill:rgb(1.568628%,2.745098%,2.745098%);fill-opacity:1;" d="M 903.199219 233.609375 C 915.550781 233.609375 915.550781 233.609375 918.46875 235.960938 C 919.136719 236.949219 919.773438 237.957031 920.382812 238.980469 C 921.085938 239.875 921.800781 240.757812 922.53125 241.632812 C 923.054688 242.296875 923.054688 242.296875 923.589844 242.976562 C 925.53125 245.429688 927.527344 247.839844 929.511719 250.257812 C 930.261719 251.175781 931.011719 252.09375 931.757812 253.011719 C 933.230469 254.8125 934.707031 256.605469 936.1875 258.398438 C 936.679688 258.992188 936.679688 258.992188 937.179688 259.597656 C 937.820312 260.375 938.460938 261.148438 939.105469 261.925781 C 941.332031 264.625 943.46875 267.363281 945.621094 270.128906 C 945.796875 258.078125 945.976562 246.027344 946.15625 233.609375 C 950.941406 233.609375 955.726562 233.609375 960.65625 233.609375 C 960.65625 254.167969 960.65625 274.726562 960.65625 295.90625 C 947.769531 295.90625 947.769531 295.90625 944.277344 292.753906 C 942.988281 290.8125 942.988281 290.8125 942.414062 289.839844 C 941.613281 288.515625 940.636719 287.359375 939.644531 286.171875 C 939.304688 285.742188 938.960938 285.308594 938.605469 284.863281 C 935.449219 280.894531 932.199219 276.996094 928.972656 273.082031 C 924.410156 267.542969 924.410156 267.542969 922.429688 265.128906 C 922.066406 264.6875 921.707031 264.246094 921.332031 263.792969 C 920.453125 262.703125 919.613281 261.582031 918.769531 260.464844 C 918.59375 272.160156 918.417969 283.855469 918.234375 295.90625 C 913.273438 295.90625 908.3125 295.90625 903.199219 295.90625 C 903.199219 275.351562 903.199219 254.792969 903.199219 233.609375 Z M 903.199219 233.609375 "/>
<path style=" stroke:none;fill-rule:nonzero;fill:rgb(1.568628%,2.745098%,2.745098%);fill-opacity:1;" d="M 601.953125 233.609375 C 614.304688 233.609375 614.304688 233.609375 617.660156 236.632812 C 618.441406 237.664062 618.441406 237.664062 618.960938 238.566406 C 620.207031 240.617188 621.628906 242.453125 623.128906 244.316406 C 623.621094 244.945312 624.109375 245.574219 624.597656 246.203125 C 626.417969 248.515625 628.339844 250.734375 630.265625 252.957031 C 632.167969 255.160156 634.007812 257.402344 635.816406 259.6875 C 637.378906 261.65625 638.976562 263.597656 640.574219 265.542969 C 641.671875 266.882812 642.753906 268.238281 643.839844 269.59375 C 644.015625 257.71875 644.191406 245.84375 644.375 233.609375 C 649.160156 233.609375 653.945312 233.609375 658.875 233.609375 C 658.875 254.167969 658.875 274.726562 658.875 295.90625 C 646.523438 295.90625 646.523438 295.90625 643.90625 293.859375 C 643.324219 292.945312 642.765625 292.015625 642.226562 291.074219 C 641.449219 290.101562 640.652344 289.136719 639.84375 288.1875 C 639.027344 287.179688 638.210938 286.175781 637.394531 285.167969 C 636.589844 284.183594 635.785156 283.195312 634.976562 282.214844 C 633.800781 280.773438 632.625 279.335938 631.449219 277.894531 C 629.59375 275.625 627.734375 273.359375 625.867188 271.101562 C 625.535156 270.703125 625.207031 270.304688 624.867188 269.894531 C 624.21875 269.109375 623.570312 268.328125 622.921875 267.546875 C 622.617188 267.179688 622.3125 266.808594 622 266.429688 C 621.734375 266.109375 621.464844 265.785156 621.191406 265.453125 C 619.75 263.640625 618.378906 261.777344 616.988281 259.925781 C 616.8125 271.800781 616.632812 283.671875 616.453125 295.90625 C 611.667969 295.90625 606.882812 295.90625 601.953125 295.90625 C 601.953125 275.351562 601.953125 254.792969 601.953125 233.609375 Z M 601.953125 233.609375 "/>
<path style=" stroke:none;fill-rule:nonzero;fill:rgb(1.568628%,2.745098%,2.745098%);fill-opacity:1;" d="M 488.652344 233.609375 C 493.433594 233.609375 498.21875 233.609375 503.148438 233.609375 C 503.328125 242.828125 503.503906 252.042969 503.6875 261.535156 C 505.8125 259.234375 507.9375 256.929688 510.128906 254.554688 C 512.714844 251.972656 512.714844 251.972656 513.890625 250.8125 C 514.886719 249.800781 515.820312 248.757812 516.742188 247.675781 C 518.644531 245.453125 520.710938 243.421875 522.789062 241.367188 C 524.6875 239.484375 526.492188 237.546875 528.222656 235.503906 C 528.785156 234.847656 529.386719 234.222656 530 233.609375 C 531.648438 233.488281 531.648438 233.488281 533.746094 233.507812 C 534.296875 233.507812 534.296875 233.507812 534.859375 233.511719 C 536.035156 233.515625 537.210938 233.53125 538.390625 233.542969 C 539.1875 233.550781 539.984375 233.554688 540.78125 233.558594 C 542.734375 233.570312 544.691406 233.589844 546.644531 233.609375 C 545.773438 235.460938 544.804688 236.621094 543.320312 238.042969 C 541.429688 239.859375 539.699219 241.765625 537.980469 243.75 C 536.320312 245.640625 534.582031 247.460938 532.851562 249.285156 C 532.101562 250.085938 531.347656 250.882812 530.597656 251.679688 C 529.203125 253.160156 527.796875 254.628906 526.378906 256.085938 C 525.785156 256.707031 525.1875 257.324219 524.59375 257.945312 C 524.316406 258.226562 524.039062 258.503906 523.75 258.792969 C 522.90625 259.652344 522.90625 259.652344 521.945312 261 C 522.132812 262.691406 522.777344 263.6875 523.851562 264.972656 C 524.136719 265.316406 524.417969 265.65625 524.710938 266.011719 C 525.015625 266.371094 525.320312 266.734375 525.636719 267.109375 C 526.277344 267.882812 526.917969 268.65625 527.558594 269.433594 C 528.039062 270.015625 528.039062 270.015625 528.53125 270.609375 C 529.875 272.242188 531.179688 273.902344 532.480469 275.566406 C 532.839844 276.027344 532.839844 276.027344 533.207031 276.496094 C 533.6875 277.109375 534.167969 277.722656 534.648438 278.339844 C 535.859375 279.890625 537.074219 281.4375 538.289062 282.984375 C 538.527344 283.289062 538.765625 283.59375 539.007812 283.90625 C 540.351562 285.617188 541.707031 287.316406 543.078125 289.003906 C 543.375 289.371094 543.675781 289.738281 543.980469 290.117188 C 544.5625 290.832031 545.144531 291.546875 545.726562 292.257812 C 547.71875 294.714844 547.71875 294.714844 547.71875 295.90625 C 545.359375 296.042969 543.003906 296.136719 540.644531 296.203125 C 539.84375 296.230469 539.042969 296.265625 538.242188 296.3125 C 531.632812 296.6875 531.632812 296.6875 529.003906 294.816406 C 527.765625 293.453125 526.726562 292.066406 525.703125 290.535156 C 525.1875 289.890625 524.671875 289.25 524.144531 288.613281 C 523.703125 288.035156 523.257812 287.457031 522.816406 286.878906 C 520.355469 283.699219 517.796875 280.617188 515.183594 277.5625 C 511.742188 273.507812 511.742188 273.507812 511.742188 272.277344 C 511.355469 272.671875 510.972656 273.066406 510.574219 273.472656 C 509.054688 274.964844 509.054688 274.964844 507.640625 276.113281 C 505.46875 277.96875 503.921875 279.40625 503.203125 282.226562 C 503.039062 284.320312 503.023438 286.355469 503.082031 288.457031 C 503.082031 289.183594 503.082031 289.90625 503.078125 290.632812 C 503.078125 292.390625 503.109375 294.148438 503.148438 295.90625 C 498.363281 295.90625 493.582031 295.90625 488.652344 295.90625 C 488.652344 275.351562 488.652344 254.792969 488.652344 233.609375 Z M 488.652344 233.609375 "/>
<path style=" stroke:none;fill-rule:nonzero;fill:rgb(7.843138%,21.960784%,38.82353%);fill-opacity:1;" d="M 107.394531 163.796875 C 109.621094 164.539062 110.214844 166.066406 111.355469 167.992188 C 111.839844 168.785156 112.324219 169.578125 112.808594 170.371094 C 113.0625 170.789062 113.320312 171.210938 113.582031 171.640625 C 114.90625 173.785156 116.285156 175.886719 117.664062 177.996094 C 120.375 182.140625 123.054688 186.304688 125.71875 190.480469 C 128.105469 194.210938 130.492188 197.941406 132.902344 201.65625 C 135.6875 205.949219 138.441406 210.261719 141.195312 214.574219 C 143.492188 218.167969 145.808594 221.75 148.140625 225.320312 C 150.300781 228.636719 152.445312 231.96875 154.550781 235.324219 C 154.777344 235.6875 155.007812 236.050781 155.246094 236.425781 C 156.796875 238.917969 156.796875 238.917969 156.796875 239.519531 C 139.078125 239.519531 121.355469 239.519531 103.101562 239.519531 C 103.101562 232.871094 103.101562 232.871094 103.238281 230.5625 C 103.269531 230.035156 103.300781 229.507812 103.332031 228.964844 C 103.382812 228.132812 103.382812 228.132812 103.4375 227.285156 C 103.472656 226.679688 103.507812 226.078125 103.546875 225.457031 C 103.664062 223.484375 103.78125 221.507812 103.902344 219.535156 C 103.988281 218.152344 104.070312 216.769531 104.152344 215.382812 C 104.324219 212.492188 104.5 209.597656 104.675781 206.703125 C 104.902344 203.011719 105.121094 199.316406 105.34375 195.621094 C 105.515625 192.765625 105.6875 189.910156 105.859375 187.054688 C 105.941406 185.695312 106.023438 184.332031 106.105469 182.972656 C 106.222656 181.0625 106.335938 179.152344 106.453125 177.246094 C 106.503906 176.414062 106.503906 176.414062 106.554688 175.566406 C 106.792969 171.640625 107.085938 167.71875 107.394531 163.796875 Z M 107.394531 163.796875 "/>
<path style=" stroke:none;fill-rule:nonzero;fill:rgb(7.843138%,21.960784%,38.82353%);fill-opacity:1;" d="M 195.460938 300.203125 C 197.207031 301.832031 198.476562 303.546875 199.773438 305.546875 C 199.984375 305.863281 200.191406 306.183594 200.402344 306.511719 C 200.855469 307.207031 201.308594 307.902344 201.757812 308.597656 C 202.492188 309.730469 203.230469 310.863281 203.96875 311.996094 C 204.765625 313.21875 205.5625 314.441406 206.359375 315.664062 C 209.230469 320.074219 212.128906 324.472656 215.023438 328.867188 C 216.558594 331.191406 218.085938 333.515625 219.617188 335.839844 C 219.925781 336.304688 220.234375 336.773438 220.550781 337.253906 C 222.789062 340.65625 225.027344 344.054688 227.265625 347.457031 C 228.222656 348.910156 229.175781 350.359375 230.132812 351.8125 C 230.753906 352.757812 231.375 353.699219 231.992188 354.640625 C 236.207031 361.046875 236.207031 361.046875 240.460938 367.421875 C 240.824219 367.960938 241.183594 368.5 241.558594 369.054688 C 242.191406 369.996094 242.828125 370.933594 243.464844 371.871094 C 245.398438 374.734375 245.398438 374.734375 245.398438 375.925781 C 242.453125 375.582031 239.917969 374.601562 237.183594 373.519531 C 236.6875 373.324219 236.191406 373.132812 235.679688 372.933594 C 234.027344 372.289062 232.382812 371.640625 230.734375 370.992188 C 228.96875 370.300781 227.207031 369.613281 225.445312 368.925781 C 224.203125 368.441406 222.960938 367.953125 221.71875 367.46875 C 217.046875 365.644531 212.371094 363.832031 207.695312 362.03125 C 207.183594 361.835938 207.183594 361.835938 206.664062 361.632812 C 203.660156 360.476562 200.65625 359.320312 197.648438 358.164062 C 189.917969 355.1875 182.199219 352.175781 174.519531 349.074219 C 174.855469 347.054688 175.433594 345.34375 176.257812 343.472656 C 176.515625 342.878906 176.773438 342.289062 177.039062 341.679688 C 177.328125 341.023438 177.617188 340.367188 177.90625 339.710938 C 178.210938 339.019531 178.511719 338.324219 178.816406 337.632812 C 179.316406 336.492188 179.816406 335.347656 180.316406 334.203125 C 181.820312 330.777344 183.308594 327.34375 184.792969 323.90625 C 185.515625 322.242188 186.238281 320.574219 186.957031 318.910156 C 187.433594 317.8125 187.90625 316.714844 188.378906 315.621094 C 189.054688 314.058594 189.730469 312.496094 190.410156 310.9375 C 190.609375 310.472656 190.808594 310.011719 191.011719 309.539062 C 192.390625 306.371094 193.886719 303.277344 195.460938 300.203125 Z M 195.460938 300.203125 "/>
<path style=" stroke:none;fill-rule:nonzero;fill:rgb(1.568628%,2.745098%,2.745098%);fill-opacity:1;" d="M 721.164062 233.609375 C 736.757812 233.609375 752.351562 233.609375 768.417969 233.609375 C 768.417969 237.6875 768.417969 241.761719 768.417969 245.964844 C 757.785156 245.964844 747.152344 245.964844 736.199219 245.964844 C 736.199219 250.214844 736.199219 254.46875 736.199219 258.851562 C 745.589844 258.851562 754.980469 258.851562 764.660156 258.851562 C 764.660156 262.574219 764.660156 266.296875 764.660156 270.128906 C 755.265625 270.128906 745.875 270.128906 736.199219 270.128906 C 736.199219 274.738281 736.199219 279.34375 736.199219 284.09375 C 747.183594 284.09375 758.171875 284.09375 769.492188 284.09375 C 769.492188 287.992188 769.492188 291.890625 769.492188 295.90625 C 753.542969 295.90625 737.59375 295.90625 721.164062 295.90625 C 721.164062 275.351562 721.164062 254.792969 721.164062 233.609375 Z M 721.164062 233.609375 "/>
<path style=" stroke:none;fill-rule:nonzero;fill:rgb(1.568628%,2.745098%,2.745098%);fill-opacity:1;" d="M 844.132812 233.609375 C 859.726562 233.609375 875.320312 233.609375 891.386719 233.609375 C 891.386719 237.6875 891.386719 241.761719 891.386719 245.964844 C 880.574219 245.964844 869.765625 245.964844 858.628906 245.964844 C 858.628906 250.214844 858.628906 254.46875 858.628906 258.851562 C 868.199219 258.851562 877.769531 258.851562 887.625 258.851562 C 887.625 262.574219 887.625 266.296875 887.625 270.128906 C 878.058594 270.128906 868.488281 270.128906 858.628906 270.128906 C 858.628906 274.738281 858.628906 279.34375 858.628906 284.09375 C 869.792969 284.09375 880.957031 284.09375 892.460938 284.09375 C 892.460938 287.992188 892.460938 291.890625 892.460938 295.90625 C 876.511719 295.90625 860.5625 295.90625 844.132812 295.90625 C 844.132812 275.351562 844.132812 254.792969 844.132812 233.609375 Z M 844.132812 233.609375 "/>
<path style=" stroke:none;fill-rule:nonzero;fill:rgb(1.568628%,2.745098%,2.745098%);fill-opacity:1;" d="M 334.972656 241.230469 C 336.023438 242.261719 336.023438 242.261719 336.6875 243.277344 C 336.679688 244.898438 336.152344 245.421875 335.035156 246.597656 C 334.339844 247.199219 334.339844 247.199219 333.632812 247.808594 C 333.148438 248.230469 332.667969 248.648438 332.167969 249.082031 C 331.480469 249.664062 331.480469 249.664062 330.777344 250.257812 C 330.425781 250.558594 330.070312 250.859375 329.707031 251.167969 C 328.996094 251.765625 328.277344 252.355469 327.558594 252.945312 C 326.828125 252.246094 326.828125 252.246094 326.082031 251.535156 C 321.644531 247.722656 316.582031 245.761719 310.773438 245.851562 C 305.21875 246.277344 300.628906 248.496094 296.78125 252.507812 C 292.917969 257.46875 292.453125 263.535156 293.191406 269.59375 C 293.675781 271.550781 294.351562 273.210938 295.339844 274.964844 C 295.820312 275.828125 295.820312 275.828125 296.3125 276.707031 C 299.542969 280.769531 303.265625 282.75 308.292969 283.957031 C 308.800781 284.003906 309.3125 284.046875 309.835938 284.09375 C 310.46875 284.148438 311.097656 284.203125 311.75 284.261719 C 317.886719 284.15625 322.84375 281.375 327.019531 277.109375 C 328.652344 277.835938 329.726562 278.636719 330.945312 279.929688 C 332.765625 281.808594 334.683594 283.488281 336.6875 285.167969 C 336.25 288.433594 333.238281 290.265625 330.777344 292.148438 C 324.699219 295.933594 318.34375 297.285156 311.246094 297.214844 C 310.660156 297.210938 310.074219 297.210938 309.472656 297.207031 C 304.972656 297.117188 301.132812 296.574219 296.949219 294.832031 C 296.46875 294.640625 295.988281 294.445312 295.496094 294.242188 C 287.820312 290.765625 282.761719 284.824219 279.351562 277.257812 C 277.816406 273.164062 277.410156 269.542969 277.417969 265.195312 C 277.417969 264.648438 277.417969 264.105469 277.417969 263.542969 C 277.488281 259.292969 278.050781 255.792969 279.765625 251.871094 C 280.007812 251.273438 280.007812 251.273438 280.253906 250.667969 C 283.742188 242.894531 290.347656 237.863281 298.023438 234.683594 C 310.429688 230.523438 325.171875 232.121094 334.972656 241.230469 Z M 334.972656 241.230469 "/>
<path style=" stroke:none;fill-rule:nonzero;fill:rgb(1.568628%,2.745098%,2.745098%);fill-opacity:1;" d="M 478.082031 241.757812 C 478.984375 242.742188 478.984375 242.742188 479.523438 244.351562 C 476.515625 247.445312 473.457031 250.542969 469.855469 252.945312 C 469.613281 252.703125 469.375 252.464844 469.125 252.214844 C 464.589844 247.953125 459.382812 245.722656 453.144531 245.816406 C 448.019531 246.304688 443.351562 248.097656 439.785156 251.871094 C 435.871094 257.046875 434.902344 262.105469 435.488281 268.519531 C 436.507812 273.484375 438.566406 277.804688 442.785156 280.773438 C 448.285156 283.964844 453.84375 284.949219 460.03125 283.421875 C 463.851562 282.167969 466.648438 280.058594 469.320312 277.109375 C 471.480469 277.996094 473.042969 279.503906 474.722656 281.070312 C 475.007812 281.332031 475.292969 281.589844 475.585938 281.855469 C 477.0625 283.222656 478.382812 284.578125 479.523438 286.242188 C 475.039062 292.382812 467.542969 295.785156 460.191406 296.980469 C 450.050781 297.808594 440.125 297.015625 431.898438 290.460938 C 430.542969 289.273438 429.25 288.050781 427.972656 286.777344 C 427.507812 286.324219 427.507812 286.324219 427.035156 285.859375 C 421.433594 279.894531 419.644531 271.796875 419.730469 263.851562 C 420.003906 255.398438 423.117188 247.753906 429.046875 241.667969 C 442.96875 229.625 464.332031 229.347656 478.082031 241.757812 Z M 478.082031 241.757812 "/>
<path style=" stroke:none;fill-rule:nonzero;fill:rgb(1.568628%,2.745098%,2.745098%);fill-opacity:1;" d="M 771.640625 233.609375 C 776.957031 233.609375 782.269531 233.609375 787.75 233.609375 C 788.261719 234.835938 788.777344 236.058594 789.308594 237.320312 C 789.835938 238.582031 790.367188 239.84375 790.898438 241.109375 C 791.28125 242.015625 791.664062 242.925781 792.046875 243.832031 C 794.332031 249.265625 796.625 254.699219 798.941406 260.117188 C 799.257812 260.859375 799.257812 260.859375 799.582031 261.613281 C 800.605469 264.007812 801.628906 266.40625 802.65625 268.800781 C 803.03125 269.671875 803.402344 270.542969 803.773438 271.414062 C 803.945312 271.8125 804.117188 272.210938 804.296875 272.625 C 805.46875 275.378906 805.46875 275.378906 805.46875 276.574219 C 805.824219 276.574219 806.175781 276.574219 806.542969 276.574219 C 806.632812 276.289062 806.722656 276 806.8125 275.707031 C 807.847656 272.496094 809.097656 269.421875 810.453125 266.335938 C 810.671875 265.832031 810.894531 265.324219 811.121094 264.804688 C 811.828125 263.175781 812.542969 261.550781 813.253906 259.925781 C 813.742188 258.8125 814.230469 257.695312 814.714844 256.582031 C 816.105469 253.398438 817.5 250.21875 818.894531 247.035156 C 819.078125 246.613281 819.265625 246.1875 819.457031 245.75 C 821.230469 241.703125 823.015625 237.65625 824.800781 233.609375 C 829.585938 233.609375 834.367188 233.609375 839.296875 233.609375 C 838.90625 235.972656 838.617188 237.414062 837.703125 239.496094 C 837.375 240.257812 837.375 240.257812 837.035156 241.03125 C 836.796875 241.574219 836.558594 242.117188 836.308594 242.675781 C 836.058594 243.25 835.808594 243.824219 835.550781 244.414062 C 834.734375 246.285156 833.910156 248.15625 833.089844 250.023438 C 832.523438 251.316406 831.960938 252.605469 831.398438 253.898438 C 830.265625 256.484375 829.136719 259.074219 828.003906 261.660156 C 826.035156 266.148438 824.085938 270.644531 822.144531 275.144531 C 821.617188 276.355469 821.09375 277.570312 820.566406 278.785156 C 818.566406 283.414062 816.582031 288.046875 814.660156 292.710938 C 813.578125 295.316406 813.578125 295.316406 812.988281 295.90625 C 811.875 295.953125 810.757812 295.964844 809.644531 295.960938 C 808.628906 295.957031 808.628906 295.957031 807.59375 295.953125 C 806.875 295.949219 806.15625 295.945312 805.433594 295.941406 C 804.714844 295.9375 803.992188 295.9375 803.269531 295.933594 C 801.496094 295.925781 799.722656 295.917969 797.949219 295.90625 C 792.882812 284.765625 788.027344 273.539062 783.230469 262.28125 C 781.675781 258.640625 780.109375 255.007812 778.539062 251.375 C 777.867188 249.816406 777.191406 248.261719 776.519531 246.703125 C 776.085938 245.699219 775.652344 244.695312 775.21875 243.695312 C 774.613281 242.304688 774.011719 240.914062 773.414062 239.519531 C 773.234375 239.105469 773.050781 238.695312 772.867188 238.269531 C 771.640625 235.40625 771.640625 235.40625 771.640625 233.609375 Z M 771.640625 233.609375 "/>
<path style=" stroke:none;fill-rule:nonzero;fill:rgb(1.568628%,2.745098%,2.745098%);fill-opacity:1;" d="M 967.636719 233.609375 C 985.535156 233.609375 1003.429688 233.609375 1021.871094 233.609375 C 1021.871094 237.6875 1021.871094 241.761719 1021.871094 245.964844 C 1015.492188 245.964844 1009.113281 245.964844 1002.539062 245.964844 C 1002.539062 262.445312 1002.539062 278.925781 1002.539062 295.90625 C 997.578125 295.90625 992.617188 295.90625 987.503906 295.90625 C 987.503906 279.425781 987.503906 262.945312 987.503906 245.964844 C 980.949219 245.964844 974.390625 245.964844 967.636719 245.964844 C 967.636719 241.886719 967.636719 237.8125 967.636719 233.609375 Z M 967.636719 233.609375 "/>
<path style=" stroke:none;fill-rule:nonzero;fill:rgb(1.568628%,2.745098%,2.745098%);fill-opacity:1;" d="M 341.519531 233.609375 C 346.480469 233.609375 351.441406 233.609375 356.554688 233.609375 C 356.554688 250.269531 356.554688 266.929688 356.554688 284.09375 C 366.65625 284.09375 376.753906 284.09375 387.160156 284.09375 C 387.160156 287.992188 387.160156 291.890625 387.160156 295.90625 C 372.101562 295.90625 357.039062 295.90625 341.519531 295.90625 C 341.519531 275.351562 341.519531 254.792969 341.519531 233.609375 Z M 341.519531 233.609375 "/>
<path style=" stroke:none;fill-rule:nonzero;fill:rgb(7.843138%,21.960784%,38.82353%);fill-opacity:1;" d="M 157.335938 273.890625 C 161.652344 277.324219 164.699219 282.308594 165.792969 287.753906 C 166.355469 292.71875 165.90625 297.089844 164.316406 301.816406 C 162.1875 301.816406 161.761719 301.132812 160.222656 299.699219 C 159.746094 299.257812 159.269531 298.816406 158.777344 298.363281 C 157.042969 296.703125 155.351562 295.003906 153.667969 293.296875 C 148.96875 288.355469 148.96875 288.355469 142.835938 286.242188 C 141.027344 286.476562 139.554688 286.867188 138.003906 287.851562 C 136.429688 290.160156 136.296875 292.066406 136.714844 294.792969 C 137.386719 297.210938 138.664062 298.574219 140.488281 300.238281 C 140.777344 300.515625 141.070312 300.792969 141.367188 301.078125 C 143.234375 302.847656 145.160156 304.550781 147.121094 306.21875 C 149.371094 308.222656 151.464844 310.402344 153.574219 312.554688 C 151.253906 315.179688 148.074219 315.640625 144.695312 315.953125 C 137.28125 316.167969 131.160156 314.4375 125.652344 309.332031 C 120.496094 303.679688 118.683594 297.574219 119.007812 290.0625 C 119.460938 283.921875 122.238281 278.683594 126.734375 274.492188 C 135.953125 267.25 147.839844 267.054688 157.335938 273.890625 Z M 130.484375 281.945312 C 127.003906 286.351562 126.199219 290.914062 126.726562 296.445312 C 127.90625 301.097656 130.195312 304.277344 134.277344 306.816406 C 135.871094 307.75 137.261719 308.441406 139.078125 308.796875 C 139.078125 308.441406 139.078125 308.085938 139.078125 307.722656 C 138.734375 307.578125 138.390625 307.433594 138.035156 307.285156 C 133.777344 305.355469 131.386719 303.011719 128.910156 299.097656 C 127.5 295.265625 127.671875 290.0625 129.109375 286.273438 C 131.050781 282.667969 134.15625 280.003906 138.039062 278.722656 C 143.125 277.523438 147.363281 278.25 151.890625 280.921875 C 154.117188 282.617188 155.453125 284.914062 156.796875 287.316406 C 157.152344 287.136719 157.507812 286.960938 157.871094 286.777344 C 154.53125 281.269531 151.820312 278.757812 145.566406 276.929688 C 139.851562 275.699219 134.515625 277.871094 130.484375 281.945312 Z M 134.375 284.542969 C 131.824219 287.753906 130.664062 290.675781 131.023438 294.832031 C 131.785156 297.898438 133.0625 300.148438 135.320312 302.351562 C 136.558594 303.035156 137.734375 303.488281 139.078125 303.964844 C 139.078125 303.609375 139.078125 303.253906 139.078125 302.890625 C 138.167969 302.253906 138.167969 302.253906 137.03125 301.648438 C 134.796875 300.304688 133.617188 299.058594 132.878906 296.503906 C 132.117188 292.960938 132.492188 290.242188 134.3125 287.117188 C 134.867188 286.25 134.867188 286.25 134.78125 285.167969 C 138.574219 283.199219 141.761719 282.378906 146.058594 283.019531 C 148.183594 284.003906 150.355469 285.164062 151.429688 287.316406 C 151.78125 287.316406 152.136719 287.316406 152.503906 287.316406 C 152.007812 285.144531 151.132812 284.296875 149.3125 283.152344 C 144.496094 280.304688 138.382812 280.347656 134.375 284.542969 Z M 134.375 284.542969 "/>
<path style=" stroke:none;fill-rule:nonzero;fill:rgb(1.568628%,2.745098%,2.745098%);fill-opacity:1;" d="M 394.679688 233.609375 C 399.640625 233.609375 404.601562 233.609375 409.714844 233.609375 C 409.714844 254.167969 409.714844 274.726562 409.714844 295.90625 C 404.753906 295.90625 399.792969 295.90625 394.679688 295.90625 C 394.679688 275.351562 394.679688 254.792969 394.679688 233.609375 Z M 394.679688 233.609375 "/>
<path style=" stroke:none;fill-rule:nonzero;fill:rgb(1.568628%,2.745098%,2.745098%);fill-opacity:1;" d="M 956.359375 321.148438 C 957.246094 321.148438 958.132812 321.148438 959.042969 321.148438 C 960.230469 324.257812 961.324219 327.386719 962.367188 330.546875 C 962.515625 330.988281 962.660156 331.429688 962.8125 331.882812 C 963.167969 332.960938 963.523438 334.035156 963.878906 335.109375 C 964.894531 333.585938 965.40625 332.359375 965.996094 330.640625 C 966.1875 330.089844 966.375 329.535156 966.574219 328.96875 C 966.769531 328.390625 966.964844 327.816406 967.167969 327.222656 C 967.464844 326.351562 967.464844 326.351562 967.773438 325.460938 C 968.265625 324.023438 968.757812 322.585938 969.246094 321.148438 C 970.132812 321.148438 971.019531 321.148438 971.933594 321.148438 C 973.527344 325.757812 975.121094 330.363281 976.765625 335.109375 C 978.0625 331.867188 979.316406 328.6875 980.390625 325.378906 C 980.566406 324.835938 980.566406 324.835938 980.75 324.285156 C 981.03125 323.417969 981.316406 322.550781 981.597656 321.683594 C 982.484375 321.507812 983.371094 321.332031 984.28125 321.148438 C 983.46875 325.332031 982.144531 329.253906 980.726562 333.265625 C 980.5 333.910156 980.273438 334.554688 980.042969 335.21875 C 979.488281 336.792969 978.933594 338.371094 978.375 339.945312 C 977.488281 339.945312 976.605469 339.945312 975.691406 339.945312 C 974.199219 336.402344 972.925781 332.816406 971.75 329.160156 C 971.285156 327.433594 971.285156 327.433594 970.320312 325.980469 C 968.726562 330.589844 967.132812 335.195312 965.488281 339.945312 C 964.601562 339.945312 963.714844 339.945312 962.804688 339.945312 C 961.09375 335.875 959.695312 331.738281 958.375 327.527344 C 958.179688 326.910156 957.984375 326.292969 957.78125 325.660156 C 957.304688 324.15625 956.832031 322.652344 956.359375 321.148438 Z M 956.359375 321.148438 "/>
<path style=" stroke:none;fill-rule:nonzero;fill:rgb(1.568628%,2.745098%,2.745098%);fill-opacity:1;" d="M 795.804688 321.148438 C 796.6875 321.148438 797.574219 321.148438 798.488281 321.148438 C 799.675781 324.257812 800.769531 327.386719 801.8125 330.546875 C 801.957031 330.988281 802.101562 331.429688 802.253906 331.882812 C 802.609375 332.960938 802.964844 334.035156 803.320312 335.109375 C 804.335938 333.585938 804.851562 332.359375 805.4375 330.640625 C 805.628906 330.089844 805.820312 329.535156 806.015625 328.96875 C 806.210938 328.390625 806.40625 327.816406 806.609375 327.222656 C 806.910156 326.351562 806.910156 326.351562 807.214844 325.460938 C 807.710938 324.023438 808.199219 322.585938 808.691406 321.148438 C 809.578125 321.148438 810.460938 321.148438 811.375 321.148438 C 812.96875 325.757812 814.566406 330.363281 816.207031 335.109375 C 817.507812 331.867188 818.757812 328.6875 819.832031 325.378906 C 820.011719 324.835938 820.011719 324.835938 820.191406 324.285156 C 820.476562 323.417969 820.757812 322.550781 821.042969 321.683594 C 821.925781 321.507812 822.8125 321.332031 823.726562 321.148438 C 822.910156 325.332031 821.589844 329.253906 820.167969 333.265625 C 819.941406 333.910156 819.71875 334.554688 819.484375 335.21875 C 818.933594 336.792969 818.375 338.371094 817.820312 339.945312 C 816.933594 339.945312 816.046875 339.945312 815.132812 339.945312 C 813.644531 336.402344 812.367188 332.816406 811.195312 329.160156 C 810.730469 327.433594 810.730469 327.433594 809.765625 325.980469 C 808.167969 330.589844 806.574219 335.195312 804.933594 339.945312 C 804.046875 339.945312 803.160156 339.945312 802.246094 339.945312 C 800.535156 335.875 799.140625 331.738281 797.816406 327.527344 C 797.621094 326.910156 797.425781 326.292969 797.226562 325.660156 C 796.75 324.15625 796.277344 322.652344 795.804688 321.148438 Z M 795.804688 321.148438 "/>
<path style=" stroke:none;fill-rule:nonzero;fill:rgb(1.568628%,2.745098%,2.745098%);fill-opacity:1;" d="M 279.765625 321.148438 C 282.449219 321.683594 282.449219 321.683594 283.398438 322.832031 C 283.675781 323.324219 283.953125 323.816406 284.242188 324.320312 C 284.699219 325.117188 284.699219 325.117188 285.167969 325.933594 C 285.480469 326.492188 285.789062 327.050781 286.109375 327.625 C 286.589844 328.46875 286.589844 328.46875 287.082031 329.328125 C 287.871094 330.714844 288.65625 332.105469 289.433594 333.5 C 290.753906 332.296875 291.558594 331.09375 292.398438 329.519531 C 292.648438 329.066406 292.894531 328.613281 293.152344 328.144531 C 293.671875 327.195312 294.183594 326.238281 294.691406 325.28125 C 294.941406 324.828125 295.195312 324.378906 295.453125 323.914062 C 295.675781 323.5 295.898438 323.085938 296.128906 322.65625 C 296.949219 321.683594 296.949219 321.683594 299.632812 321.148438 C 299.632812 327.351562 299.632812 333.554688 299.632812 339.945312 C 298.925781 339.945312 298.214844 339.945312 297.488281 339.945312 C 297.308594 335.691406 297.132812 331.4375 296.949219 327.054688 C 293.761719 332.371094 293.761719 332.371094 290.503906 337.796875 C 288.359375 337.257812 288.359375 337.257812 287.570312 336.261719 C 287.335938 335.835938 287.097656 335.414062 286.855469 334.976562 C 286.621094 334.5625 286.386719 334.148438 286.144531 333.722656 C 285.855469 333.195312 285.566406 332.667969 285.269531 332.125 C 284.339844 330.453125 283.410156 328.777344 282.449219 327.054688 C 282.273438 331.308594 282.097656 335.5625 281.914062 339.945312 C 281.207031 339.945312 280.496094 339.945312 279.765625 339.945312 C 279.765625 333.742188 279.765625 327.539062 279.765625 321.148438 Z M 279.765625 321.148438 "/>
<path style=" stroke:none;fill-rule:nonzero;fill:rgb(95.686275%,46.666667%,12.941177%);fill-opacity:1;" d="M 568.195312 233.675781 C 568.628906 233.703125 569.058594 233.726562 569.507812 233.753906 C 569.957031 233.785156 570.410156 233.816406 570.875 233.847656 C 571.558594 233.886719 571.558594 233.886719 572.257812 233.929688 C 573.386719 234 574.515625 234.074219 575.640625 234.148438 C 576.898438 237.328125 577.855469 240.503906 578.695312 243.816406 C 578.816406 244.28125 578.9375 244.75 579.0625 245.230469 C 579.355469 246.371094 579.648438 247.507812 579.9375 248.648438 C 577.648438 250.285156 577.648438 250.285156 575.929688 250.175781 C 574.238281 249.613281 573.761719 248.992188 572.738281 247.550781 C 572.414062 247.105469 572.09375 246.664062 571.765625 246.207031 C 571.4375 245.738281 571.113281 245.269531 570.773438 244.789062 C 570.445312 244.332031 570.117188 243.875 569.78125 243.402344 C 568.859375 242.113281 567.953125 240.816406 567.050781 239.519531 C 566.699219 239.035156 566.699219 239.035156 566.339844 238.546875 C 565.136719 236.863281 564.902344 236.320312 564.902344 234.148438 C 566.167969 233.515625 566.796875 233.585938 568.195312 233.675781 Z M 568.195312 233.675781 "/>
<path style=" stroke:none;fill-rule:nonzero;fill:rgb(95.686275%,46.666667%,12.941177%);fill-opacity:1;" d="M 695.925781 233.609375 C 696.101562 233.789062 696.28125 233.964844 696.460938 234.148438 C 696.410156 237.785156 694.78125 239.761719 692.535156 242.503906 C 691.910156 243.289062 691.285156 244.074219 690.664062 244.859375 C 690.367188 245.226562 690.070312 245.59375 689.765625 245.976562 C 688.695312 247.359375 687.738281 248.785156 686.796875 250.257812 C 683.171875 249.855469 683.171875 249.855469 681.964844 248.648438 C 682.140625 243.839844 684.332031 238.730469 685.722656 234.148438 C 686.820312 234.058594 687.914062 233.96875 689.011719 233.878906 C 689.925781 233.804688 689.925781 233.804688 690.863281 233.730469 C 692.558594 233.621094 694.222656 233.550781 695.925781 233.609375 Z M 695.925781 233.609375 "/>
<path style=" stroke:none;fill-rule:nonzero;fill:rgb(95.686275%,46.666667%,12.941177%);fill-opacity:1;" d="M 675.527344 233.675781 C 675.933594 233.703125 676.339844 233.726562 676.757812 233.753906 C 677.179688 233.785156 677.601562 233.816406 678.035156 233.847656 C 678.464844 233.875 678.894531 233.902344 679.335938 233.929688 C 680.390625 234 681.445312 234.074219 682.5 234.148438 C 682.273438 237.0625 681.726562 238.550781 679.78125 240.726562 C 677.601562 243.230469 675.703125 245.816406 673.867188 248.585938 C 672.636719 249.941406 671.953125 250.15625 670.148438 250.257812 C 668.910156 249.753906 668.910156 249.753906 668.003906 249.183594 C 668.328125 245.957031 668.984375 242.96875 669.882812 239.855469 C 670.003906 239.421875 670.125 238.988281 670.25 238.542969 C 671.140625 235.386719 671.140625 235.386719 671.761719 234.148438 C 673.277344 233.640625 673.984375 233.570312 675.527344 233.675781 Z M 675.527344 233.675781 "/>
<path style=" stroke:none;fill-rule:nonzero;fill:rgb(95.686275%,46.666667%,12.941177%);fill-opacity:1;" d="M 590.140625 234.148438 C 590.785156 236.25 591.421875 238.351562 592.054688 240.457031 C 592.328125 241.351562 592.328125 241.351562 592.609375 242.265625 C 592.78125 242.839844 592.953125 243.414062 593.128906 244.007812 C 593.289062 244.535156 593.449219 245.066406 593.613281 245.609375 C 593.902344 247.0625 593.914062 247.824219 593.363281 249.183594 C 591.785156 250.273438 591.066406 250.257812 589.066406 250.257812 C 588.222656 249.421875 588.222656 249.421875 587.421875 248.257812 C 587.128906 247.835938 586.832031 247.414062 586.527344 246.980469 C 586.222656 246.535156 585.921875 246.085938 585.609375 245.628906 C 585.007812 244.757812 584.402344 243.890625 583.800781 243.023438 C 583.511719 242.601562 583.222656 242.183594 582.925781 241.753906 C 582.175781 240.71875 581.386719 239.804688 580.523438 238.867188 C 579.21875 237.128906 579.148438 236.269531 579.402344 234.148438 C 580.6875 234.042969 581.972656 233.941406 583.261719 233.847656 C 583.800781 233.800781 583.800781 233.800781 584.355469 233.753906 C 586.40625 233.605469 588.140625 233.699219 590.140625 234.148438 Z M 590.140625 234.148438 "/>
<path style=" stroke:none;fill-rule:nonzero;fill:rgb(1.568628%,2.745098%,2.745098%);fill-opacity:1;" d="M 585.84375 321.148438 C 588.8125 321.742188 589.585938 322.582031 591.347656 324.808594 C 591.601562 325.117188 591.855469 325.425781 592.113281 325.742188 C 594.59375 328.796875 596.941406 331.941406 599.269531 335.109375 C 599.445312 330.503906 599.625 325.894531 599.804688 321.148438 C 600.515625 321.148438 601.222656 321.148438 601.953125 321.148438 C 601.953125 327.351562 601.953125 333.554688 601.953125 339.945312 C 598.984375 339.351562 598.214844 338.511719 596.449219 336.285156 C 596.195312 335.976562 595.945312 335.667969 595.683594 335.351562 C 593.207031 332.296875 590.855469 329.148438 588.527344 325.980469 C 588.351562 330.589844 588.175781 335.195312 587.992188 339.945312 C 587.285156 339.945312 586.574219 339.945312 585.84375 339.945312 C 585.84375 333.742188 585.84375 327.539062 585.84375 321.148438 Z M 585.84375 321.148438 "/>
<path style=" stroke:none;fill-rule:nonzero;fill:rgb(1.568628%,2.745098%,2.745098%);fill-opacity:1;" d="M 394.679688 321.148438 C 397.648438 321.742188 398.417969 322.582031 400.183594 324.808594 C 400.4375 325.117188 400.691406 325.425781 400.949219 325.742188 C 403.429688 328.796875 405.777344 331.941406 408.105469 335.109375 C 408.28125 330.503906 408.457031 325.894531 408.640625 321.148438 C 409.351562 321.148438 410.058594 321.148438 410.789062 321.148438 C 410.789062 327.351562 410.789062 333.554688 410.789062 339.945312 C 407.820312 339.351562 407.050781 338.511719 405.285156 336.285156 C 405.03125 335.976562 404.777344 335.667969 404.519531 335.351562 C 402.039062 332.296875 399.691406 329.148438 397.363281 325.980469 C 397.1875 330.589844 397.011719 335.195312 396.828125 339.945312 C 396.117188 339.945312 395.410156 339.945312 394.679688 339.945312 C 394.679688 333.742188 394.679688 327.539062 394.679688 321.148438 Z M 394.679688 321.148438 "/>
<path style=" stroke:none;fill-rule:nonzero;fill:rgb(1.568628%,2.745098%,2.745098%);fill-opacity:1;" d="M 324.871094 321.148438 C 327.84375 321.742188 328.613281 322.582031 330.375 324.808594 C 330.628906 325.117188 330.882812 325.425781 331.144531 325.742188 C 333.621094 328.796875 335.96875 331.941406 338.296875 335.109375 C 338.472656 330.503906 338.652344 325.894531 338.832031 321.148438 C 339.542969 321.148438 340.25 321.148438 340.980469 321.148438 C 340.980469 327.351562 340.980469 333.554688 340.980469 339.945312 C 338.011719 339.351562 337.242188 338.511719 335.476562 336.285156 C 335.226562 335.976562 334.972656 335.667969 334.710938 335.351562 C 332.234375 332.296875 329.886719 329.148438 327.558594 325.980469 C 327.378906 330.589844 327.203125 335.195312 327.019531 339.945312 C 326.3125 339.945312 325.601562 339.945312 324.871094 339.945312 C 324.871094 333.742188 324.871094 327.539062 324.871094 321.148438 Z M 324.871094 321.148438 "/>
<path style=" stroke:none;fill-rule:nonzero;fill:rgb(1.568628%,2.745098%,2.745098%);fill-opacity:1;" d="M 474.957031 321.753906 C 477.085938 323.347656 478.664062 325.019531 479.523438 327.59375 C 479.796875 330.933594 479.925781 333.898438 477.910156 336.722656 C 475.382812 339.257812 473.308594 340.039062 469.757812 340.144531 C 466.433594 340.109375 464.175781 339.660156 461.800781 337.257812 C 459.957031 334.839844 459.285156 332.355469 459.453125 329.328125 C 459.957031 326.316406 461.191406 324.070312 463.648438 322.222656 C 467.09375 320.308594 471.300781 320.578125 474.957031 321.753906 Z M 463.277344 326.117188 C 462.105469 327.960938 461.839844 329.167969 461.800781 331.351562 C 462.605469 333.84375 463.519531 335.601562 465.5625 337.257812 C 468.585938 338.265625 471.515625 338.300781 474.386719 336.890625 C 476.558594 334.933594 477.457031 333.503906 477.609375 330.578125 C 477.519531 328.15625 476.851562 326.753906 475.226562 324.90625 C 473.144531 323.070312 471.109375 323.050781 468.441406 323.144531 C 466.070312 323.429688 464.921875 324.472656 463.277344 326.117188 Z M 463.277344 326.117188 "/>
<path style=" stroke:none;fill-rule:nonzero;fill:rgb(1.568628%,2.745098%,2.745098%);fill-opacity:1;" d="M 504.761719 321.148438 C 506.464844 321.105469 508.171875 321.058594 509.929688 321.015625 C 510.460938 320.996094 510.992188 320.976562 511.539062 320.953125 C 514.65625 320.914062 516.339844 321.246094 518.722656 323.296875 C 520.113281 325.128906 519.988281 326.964844 519.796875 329.203125 C 518.949219 331.339844 518.5 332.214844 516.574219 333.5 C 517.3125 335.65625 518.367188 337.109375 519.796875 338.871094 C 519.796875 339.226562 519.796875 339.578125 519.796875 339.945312 C 518.554688 340.109375 518.554688 340.109375 517.109375 339.945312 C 516.253906 338.789062 516.253906 338.789062 515.464844 337.292969 C 514.300781 335.457031 513.800781 334.703125 511.679688 334.097656 C 510.070312 333.980469 508.519531 333.945312 506.910156 334.035156 C 506.910156 335.988281 506.910156 337.9375 506.910156 339.945312 C 506.199219 339.945312 505.492188 339.945312 504.761719 339.945312 C 504.761719 333.742188 504.761719 327.539062 504.761719 321.148438 Z M 506.910156 323.296875 C 506.910156 326.132812 506.910156 328.96875 506.910156 331.890625 C 508.105469 331.910156 509.300781 331.933594 510.53125 331.957031 C 511.542969 331.976562 511.542969 331.976562 512.570312 331.992188 C 514.292969 331.894531 515.199219 331.824219 516.574219 330.816406 C 517.386719 328.859375 517.785156 327.621094 517.277344 325.546875 C 516.597656 324.21875 516.597656 324.21875 514.964844 323.296875 C 513.5625 323.21875 512.234375 323.195312 510.835938 323.230469 C 508.890625 323.261719 508.890625 323.261719 506.910156 323.296875 Z M 506.910156 323.296875 "/>
<path style=" stroke:none;fill-rule:nonzero;fill:rgb(1.568628%,2.745098%,2.745098%);fill-opacity:1;" d="M 429.671875 321.515625 C 430.554688 321.953125 430.554688 321.953125 431.730469 322.757812 C 431.730469 323.46875 431.730469 324.175781 431.730469 324.90625 C 430.121094 324.90625 430.121094 324.90625 429.109375 324.382812 C 427.035156 323.378906 424.851562 323.554688 422.601562 323.832031 C 420.40625 324.832031 419.585938 325.65625 418.308594 327.691406 C 417.628906 330.285156 417.859375 332.101562 418.84375 334.574219 C 420.074219 336.164062 420.695312 336.625 422.601562 337.257812 C 423.496094 337.308594 424.390625 337.328125 425.289062 337.328125 C 425.984375 337.328125 425.984375 337.328125 426.695312 337.332031 C 428.054688 337.3125 428.054688 337.3125 429.582031 336.722656 C 429.761719 334.59375 429.9375 332.46875 430.121094 330.277344 C 430.828125 330.277344 431.539062 330.277344 432.269531 330.277344 C 432.328125 331.496094 432.367188 332.714844 432.402344 333.9375 C 432.425781 334.617188 432.453125 335.292969 432.476562 335.996094 C 432.269531 337.796875 432.269531 337.796875 431.285156 338.808594 C 428.183594 340.402344 424.9375 340.289062 421.527344 339.945312 C 418.917969 339.070312 417.261719 337.617188 415.890625 335.246094 C 414.71875 332.457031 414.585938 329.867188 415.421875 326.964844 C 416.453125 324.511719 417.867188 322.894531 420.195312 321.601562 C 423.179688 320.585938 426.667969 320.5625 429.671875 321.515625 Z M 429.671875 321.515625 "/>
<path style=" stroke:none;fill-rule:nonzero;fill:rgb(1.568628%,2.745098%,2.745098%);fill-opacity:1;" d="M 378.660156 321.515625 C 379.542969 321.953125 379.542969 321.953125 380.71875 322.757812 C 380.71875 323.46875 380.71875 324.175781 380.71875 324.90625 C 379.105469 324.90625 379.105469 324.90625 378.097656 324.382812 C 376.019531 323.378906 373.835938 323.554688 371.589844 323.832031 C 369.394531 324.832031 368.570312 325.65625 367.292969 327.691406 C 366.613281 330.285156 366.84375 332.101562 367.832031 334.574219 C 369.0625 336.164062 369.683594 336.625 371.589844 337.257812 C 372.484375 337.308594 373.378906 337.328125 374.273438 337.328125 C 374.972656 337.328125 374.972656 337.328125 375.683594 337.332031 C 377.039062 337.3125 377.039062 337.3125 378.570312 336.722656 C 378.746094 334.59375 378.925781 332.46875 379.105469 330.277344 C 379.816406 330.277344 380.523438 330.277344 381.253906 330.277344 C 381.3125 331.496094 381.355469 332.714844 381.390625 333.9375 C 381.414062 334.617188 381.4375 335.292969 381.464844 335.996094 C 381.253906 337.796875 381.253906 337.796875 380.273438 338.808594 C 377.167969 340.402344 373.921875 340.289062 370.515625 339.945312 C 367.90625 339.070312 366.25 337.617188 364.878906 335.246094 C 363.703125 332.457031 363.570312 329.867188 364.40625 326.964844 C 365.441406 324.511719 366.855469 322.894531 369.183594 321.601562 C 372.164062 320.585938 375.652344 320.5625 378.660156 321.515625 Z M 378.660156 321.515625 "/>
<path style=" stroke:none;fill-rule:nonzero;fill:rgb(1.568628%,2.745098%,2.745098%);fill-opacity:1;" d="M 897.828125 321.148438 C 898.539062 321.148438 899.246094 321.148438 899.976562 321.148438 C 900.152344 324.515625 900.332031 327.882812 900.515625 331.351562 C 902.503906 329.402344 904.429688 327.445312 906.253906 325.34375 C 906.566406 324.988281 906.875 324.628906 907.195312 324.261719 C 907.855469 323.5 908.5 322.730469 909.140625 321.953125 C 910.574219 320.84375 911.636719 320.988281 913.402344 321.148438 C 911.09375 323.851562 908.765625 326.53125 906.421875 329.203125 C 907.242188 331.929688 908.925781 333.703125 910.785156 335.78125 C 913.9375 339.347656 913.9375 339.347656 913.9375 339.945312 C 912.484375 340.105469 912.484375 340.105469 910.714844 339.945312 C 909.402344 338.84375 909.402344 338.84375 908.199219 337.394531 C 907.796875 336.921875 907.398438 336.445312 906.984375 335.957031 C 906.058594 334.796875 905.152344 333.625 904.273438 332.425781 C 902.71875 333.125 901.597656 333.785156 900.515625 335.109375 C 900.207031 336.332031 900.207031 336.332031 900.144531 337.628906 C 900.109375 338.0625 900.074219 338.496094 900.039062 338.945312 C 900.019531 339.273438 899.996094 339.605469 899.976562 339.945312 C 899.269531 339.945312 898.558594 339.945312 897.828125 339.945312 C 897.828125 333.742188 897.828125 327.539062 897.828125 321.148438 Z M 897.828125 321.148438 "/>
<path style=" stroke:none;fill-rule:nonzero;fill:rgb(1.568628%,2.745098%,2.745098%);fill-opacity:1;" d="M 992.875 321.148438 C 993.761719 321.148438 994.648438 321.148438 995.558594 321.148438 C 998.761719 327.273438 1001.480469 333.574219 1004.152344 339.945312 C 1003.265625 339.945312 1002.378906 339.945312 1001.464844 339.945312 C 999.316406 336.320312 999.316406 336.320312 999.316406 335.109375 C 995.953125 335.109375 992.585938 335.109375 989.117188 335.109375 C 988.585938 336.707031 988.050781 338.300781 987.503906 339.945312 C 986.617188 339.945312 985.734375 339.945312 984.820312 339.945312 C 986.105469 335.726562 987.878906 331.816406 989.753906 327.828125 C 990.054688 327.175781 990.359375 326.527344 990.664062 325.875 C 991.398438 324.296875 992.136719 322.722656 992.875 321.148438 Z M 993.949219 323.832031 C 993.320312 325.242188 992.695312 326.652344 992.070312 328.0625 C 991.890625 328.464844 991.710938 328.863281 991.527344 329.277344 C 991.355469 329.660156 991.1875 330.046875 991.011719 330.441406 C 990.777344 330.972656 990.777344 330.972656 990.535156 331.515625 C 990.125 332.429688 990.125 332.429688 990.191406 333.5 C 992.847656 333.5 995.503906 333.5 998.246094 333.5 C 997.1875 330.167969 995.960938 327.003906 994.484375 323.832031 C 994.308594 323.832031 994.132812 323.832031 993.949219 323.832031 Z M 993.949219 323.832031 "/>
<path style=" stroke:none;fill-rule:nonzero;fill:rgb(1.568628%,2.745098%,2.745098%);fill-opacity:1;" d="M 945.621094 321.148438 C 946.507812 321.148438 947.390625 321.148438 948.304688 321.148438 C 951.507812 327.273438 954.226562 333.574219 956.898438 339.945312 C 956.011719 339.945312 955.125 339.945312 954.210938 339.945312 C 952.0625 336.320312 952.0625 336.320312 952.0625 335.109375 C 948.695312 335.109375 945.332031 335.109375 941.863281 335.109375 C 941.328125 336.707031 940.796875 338.300781 940.25 339.945312 C 939.363281 339.945312 938.476562 339.945312 937.566406 339.945312 C 938.851562 335.726562 940.625 331.816406 942.5 327.828125 C 942.800781 327.175781 943.105469 326.527344 943.410156 325.875 C 944.144531 324.296875 944.878906 322.722656 945.621094 321.148438 Z M 946.695312 323.832031 C 946.066406 325.242188 945.4375 326.652344 944.816406 328.0625 C 944.636719 328.464844 944.457031 328.863281 944.273438 329.277344 C 944.101562 329.660156 943.933594 330.046875 943.757812 330.441406 C 943.519531 330.972656 943.519531 330.972656 943.28125 331.515625 C 942.871094 332.429688 942.871094 332.429688 942.933594 333.5 C 945.59375 333.5 948.25 333.5 950.988281 333.5 C 949.933594 330.167969 948.707031 327.003906 947.230469 323.832031 C 947.054688 323.832031 946.875 323.832031 946.695312 323.832031 Z M 946.695312 323.832031 "/>
<path style=" stroke:none;fill-rule:nonzero;fill:rgb(1.568628%,2.745098%,2.745098%);fill-opacity:1;" d="M 741.566406 321.148438 C 742.453125 321.148438 743.339844 321.148438 744.253906 321.148438 C 747.453125 327.273438 750.175781 333.574219 752.84375 339.945312 C 751.957031 339.945312 751.074219 339.945312 750.160156 339.945312 C 748.011719 336.320312 748.011719 336.320312 748.011719 335.109375 C 744.644531 335.109375 741.277344 335.109375 737.808594 335.109375 C 737.277344 336.707031 736.746094 338.300781 736.199219 339.945312 C 735.3125 339.945312 734.425781 339.945312 733.511719 339.945312 C 734.800781 335.726562 736.574219 331.816406 738.445312 327.828125 C 738.75 327.175781 739.054688 326.527344 739.355469 325.875 C 740.089844 324.296875 740.828125 322.722656 741.566406 321.148438 Z M 742.640625 323.832031 C 742.011719 325.242188 741.386719 326.652344 740.761719 328.0625 C 740.582031 328.464844 740.402344 328.863281 740.21875 329.277344 C 740.050781 329.660156 739.878906 330.046875 739.707031 330.441406 C 739.46875 330.972656 739.46875 330.972656 739.226562 331.515625 C 738.820312 332.429688 738.820312 332.429688 738.882812 333.5 C 741.542969 333.5 744.199219 333.5 746.9375 333.5 C 745.878906 330.167969 744.65625 327.003906 743.179688 323.832031 C 743.003906 323.832031 742.824219 323.832031 742.640625 323.832031 Z M 742.640625 323.832031 "/>
<path style=" stroke:none;fill-rule:nonzero;fill:rgb(1.568628%,2.745098%,2.745098%);fill-opacity:1;" d="M 352.257812 321.148438 C 353.144531 321.148438 354.03125 321.148438 354.941406 321.148438 C 358.144531 327.273438 360.863281 333.574219 363.535156 339.945312 C 362.648438 339.945312 361.761719 339.945312 360.851562 339.945312 C 358.703125 336.320312 358.703125 336.320312 358.703125 335.109375 C 355.335938 335.109375 351.96875 335.109375 348.5 335.109375 C 347.96875 336.707031 347.4375 338.300781 346.886719 339.945312 C 346.003906 339.945312 345.117188 339.945312 344.203125 339.945312 C 345.488281 335.726562 347.265625 331.816406 349.136719 327.828125 C 349.441406 327.175781 349.742188 326.527344 350.046875 325.875 C 350.78125 324.296875 351.519531 322.722656 352.257812 321.148438 Z M 353.332031 323.832031 C 352.703125 325.242188 352.078125 326.652344 351.453125 328.0625 C 351.273438 328.464844 351.09375 328.863281 350.910156 329.277344 C 350.738281 329.660156 350.570312 330.046875 350.394531 330.441406 C 350.160156 330.972656 350.160156 330.972656 349.917969 331.515625 C 349.511719 332.429688 349.511719 332.429688 349.574219 333.5 C 352.230469 333.5 354.890625 333.5 357.628906 333.5 C 356.570312 330.167969 355.34375 327.003906 353.871094 323.832031 C 353.691406 323.832031 353.515625 323.832031 353.332031 323.832031 Z M 353.332031 323.832031 "/>
<path style=" stroke:none;fill-rule:nonzero;fill:rgb(1.568628%,2.745098%,2.745098%);fill-opacity:1;" d="M 310.910156 321.148438 C 311.796875 321.148438 312.683594 321.148438 313.597656 321.148438 C 316.796875 327.273438 319.515625 333.574219 322.1875 339.945312 C 321.300781 339.945312 320.414062 339.945312 319.503906 339.945312 C 317.355469 336.320312 317.355469 336.320312 317.355469 335.109375 C 313.988281 335.109375 310.621094 335.109375 307.152344 335.109375 C 306.621094 336.707031 306.089844 338.300781 305.542969 339.945312 C 304.65625 339.945312 303.769531 339.945312 302.855469 339.945312 C 304.140625 335.726562 305.917969 331.816406 307.789062 327.828125 C 308.09375 327.175781 308.394531 326.527344 308.699219 325.875 C 309.433594 324.296875 310.171875 322.722656 310.910156 321.148438 Z M 311.984375 323.832031 C 311.355469 325.242188 310.730469 326.652344 310.105469 328.0625 C 309.925781 328.464844 309.746094 328.863281 309.5625 329.277344 C 309.394531 329.660156 309.222656 330.046875 309.046875 330.441406 C 308.8125 330.972656 308.8125 330.972656 308.570312 331.515625 C 308.164062 332.429688 308.164062 332.429688 308.226562 333.5 C 310.882812 333.5 313.542969 333.5 316.28125 333.5 C 315.222656 330.167969 313.996094 327.003906 312.523438 323.832031 C 312.34375 323.832031 312.167969 323.832031 311.984375 323.832031 Z M 311.984375 323.832031 "/>
<path style=" stroke:none;fill-rule:nonzero;fill:rgb(1.568628%,2.745098%,2.745098%);fill-opacity:1;" d="M 780.230469 321.148438 C 784.484375 321.148438 788.738281 321.148438 793.117188 321.148438 C 793.117188 321.855469 793.117188 322.566406 793.117188 323.296875 C 789.574219 323.296875 786.03125 323.296875 782.378906 323.296875 C 782.378906 325.246094 782.378906 327.195312 782.378906 329.203125 C 785.566406 329.203125 788.757812 329.203125 792.042969 329.203125 C 792.042969 329.914062 792.042969 330.621094 792.042969 331.351562 C 788.855469 331.351562 785.664062 331.351562 782.378906 331.351562 C 782.378906 333.480469 782.378906 335.605469 782.378906 337.796875 C 786.101562 337.796875 789.820312 337.796875 793.65625 337.796875 C 793.65625 338.503906 793.65625 339.214844 793.65625 339.945312 C 789.226562 339.945312 784.796875 339.945312 780.230469 339.945312 C 780.230469 333.742188 780.230469 327.539062 780.230469 321.148438 Z M 780.230469 321.148438 "/>
<path style=" stroke:none;fill-rule:nonzero;fill:rgb(1.568628%,2.745098%,2.745098%);fill-opacity:1;" d="M 567.585938 321.148438 C 571.839844 321.148438 576.09375 321.148438 580.472656 321.148438 C 580.472656 321.855469 580.472656 322.566406 580.472656 323.296875 C 576.929688 323.296875 573.386719 323.296875 569.734375 323.296875 C 569.734375 325.246094 569.734375 327.195312 569.734375 329.203125 C 572.925781 329.203125 576.113281 329.203125 579.402344 329.203125 C 579.402344 329.914062 579.402344 330.621094 579.402344 331.351562 C 576.210938 331.351562 573.019531 331.351562 569.734375 331.351562 C 569.734375 333.480469 569.734375 335.605469 569.734375 337.796875 C 573.457031 337.796875 577.175781 337.796875 581.011719 337.796875 C 581.011719 338.503906 581.011719 339.214844 581.011719 339.945312 C 576.582031 339.945312 572.152344 339.945312 567.585938 339.945312 C 567.585938 333.742188 567.585938 327.539062 567.585938 321.148438 Z M 567.585938 321.148438 "/>
<path style=" stroke:none;fill-rule:nonzero;fill:rgb(1.568628%,2.745098%,2.745098%);fill-opacity:1;" d="M 531.609375 321.148438 C 535.863281 321.148438 540.113281 321.148438 544.496094 321.148438 C 544.496094 321.855469 544.496094 322.566406 544.496094 323.296875 C 540.953125 323.296875 537.410156 323.296875 533.757812 323.296875 C 533.757812 325.246094 533.757812 327.195312 533.757812 329.203125 C 536.945312 329.203125 540.136719 329.203125 543.421875 329.203125 C 543.421875 329.914062 543.421875 330.621094 543.421875 331.351562 C 540.234375 331.351562 537.042969 331.351562 533.757812 331.351562 C 533.757812 333.480469 533.757812 335.605469 533.757812 337.796875 C 537.480469 337.796875 541.199219 337.796875 545.035156 337.796875 C 545.035156 338.503906 545.035156 339.214844 545.035156 339.945312 C 540.605469 339.945312 536.171875 339.945312 531.609375 339.945312 C 531.609375 333.742188 531.609375 327.539062 531.609375 321.148438 Z M 531.609375 321.148438 "/>
<path style=" stroke:none;fill-rule:nonzero;fill:rgb(1.568628%,2.745098%,2.745098%);fill-opacity:1;" d="M 927.3125 321.699219 C 927.683594 321.871094 928.054688 322.042969 928.4375 322.222656 C 928.261719 322.929688 928.082031 323.640625 927.898438 324.371094 C 927.566406 324.28125 927.234375 324.191406 926.894531 324.101562 C 923.863281 323.617188 920.847656 323.164062 918.234375 324.90625 C 918.101562 326.5625 918.101562 326.5625 918.234375 328.128906 C 918.664062 328.226562 919.089844 328.324219 919.53125 328.425781 C 926.667969 330.117188 926.667969 330.117188 928.972656 332.425781 C 929.3125 334.082031 929.277344 335.597656 928.972656 337.257812 C 927.824219 338.914062 927.550781 339.292969 925.753906 339.945312 C 922.539062 340.371094 918.96875 340.75 916.152344 338.871094 C 915.777344 338.515625 915.402344 338.160156 915.011719 337.796875 C 915.367188 337.085938 915.722656 336.378906 916.085938 335.648438 C 916.507812 335.914062 916.929688 336.179688 917.363281 336.453125 C 919.824219 337.472656 922.039062 337.609375 924.679688 337.257812 C 925.210938 336.90625 925.742188 336.550781 926.289062 336.183594 C 926.316406 334.882812 926.316406 334.882812 925.753906 333.5 C 924.09375 332.601562 922.515625 332.054688 920.726562 331.492188 C 920.300781 331.355469 919.878906 331.222656 919.441406 331.082031 C 919.046875 330.96875 918.652344 330.851562 918.242188 330.730469 C 916.996094 330.207031 916.367188 329.746094 915.550781 328.667969 C 915.148438 327.003906 915.210938 325.503906 915.550781 323.832031 C 918.21875 320.09375 923.222656 320.253906 927.3125 321.699219 Z M 927.3125 321.699219 "/>
<path style=" stroke:none;fill-rule:nonzero;fill:rgb(1.568628%,2.745098%,2.745098%);fill-opacity:1;" d="M 708.222656 321.699219 C 708.59375 321.871094 708.964844 322.042969 709.347656 322.222656 C 709.171875 322.929688 708.996094 323.640625 708.8125 324.371094 C 708.480469 324.28125 708.148438 324.191406 707.804688 324.101562 C 704.777344 323.617188 701.761719 323.164062 699.148438 324.90625 C 699.011719 326.5625 699.011719 326.5625 699.148438 328.128906 C 699.574219 328.226562 700.003906 328.324219 700.441406 328.425781 C 707.578125 330.117188 707.578125 330.117188 709.886719 332.425781 C 710.226562 334.082031 710.191406 335.597656 709.886719 337.257812 C 708.738281 338.914062 708.464844 339.292969 706.664062 339.945312 C 703.449219 340.371094 699.878906 340.75 697.066406 338.871094 C 696.691406 338.515625 696.3125 338.160156 695.925781 337.796875 C 696.28125 337.085938 696.632812 336.378906 697 335.648438 C 697.417969 335.914062 697.839844 336.179688 698.273438 336.453125 C 700.738281 337.472656 702.949219 337.609375 705.589844 337.257812 C 706.121094 336.90625 706.652344 336.550781 707.203125 336.183594 C 707.230469 334.882812 707.230469 334.882812 706.664062 333.5 C 705.007812 332.601562 703.429688 332.054688 701.640625 331.492188 C 701.214844 331.355469 700.792969 331.222656 700.355469 331.082031 C 699.960938 330.96875 699.5625 330.851562 699.15625 330.730469 C 697.90625 330.207031 697.277344 329.746094 696.460938 328.667969 C 696.0625 327.003906 696.121094 325.503906 696.460938 323.832031 C 699.132812 320.09375 704.132812 320.253906 708.222656 321.699219 Z M 708.222656 321.699219 "/>
<path style=" stroke:none;fill-rule:nonzero;fill:rgb(1.568628%,2.745098%,2.745098%);fill-opacity:1;" d="M 649.15625 321.699219 C 649.527344 321.871094 649.898438 322.042969 650.28125 322.222656 C 650.105469 322.929688 649.925781 323.640625 649.746094 324.371094 C 649.414062 324.28125 649.082031 324.191406 648.738281 324.101562 C 645.707031 323.617188 642.691406 323.164062 640.078125 324.90625 C 639.945312 326.5625 639.945312 326.5625 640.078125 328.128906 C 640.507812 328.226562 640.933594 328.324219 641.375 328.425781 C 648.511719 330.117188 648.511719 330.117188 650.820312 332.425781 C 651.15625 334.082031 651.121094 335.597656 650.820312 337.257812 C 649.671875 338.914062 649.398438 339.292969 647.597656 339.945312 C 644.382812 340.371094 640.8125 340.75 638 338.871094 C 637.621094 338.515625 637.246094 338.160156 636.855469 337.796875 C 637.210938 337.085938 637.566406 336.378906 637.929688 335.648438 C 638.351562 335.914062 638.773438 336.179688 639.207031 336.453125 C 641.671875 337.472656 643.882812 337.609375 646.523438 337.257812 C 647.054688 336.90625 647.585938 336.550781 648.132812 336.183594 C 648.160156 334.882812 648.160156 334.882812 647.597656 333.5 C 645.9375 332.601562 644.363281 332.054688 642.570312 331.492188 C 642.148438 331.355469 641.722656 331.222656 641.289062 331.082031 C 640.890625 330.96875 640.496094 330.851562 640.085938 330.730469 C 638.839844 330.207031 638.210938 329.746094 637.394531 328.667969 C 636.992188 327.003906 637.054688 325.503906 637.394531 323.832031 C 640.0625 320.09375 645.066406 320.253906 649.15625 321.699219 Z M 649.15625 321.699219 "/>
<path style=" stroke:none;fill-rule:nonzero;fill:rgb(1.568628%,2.745098%,2.745098%);fill-opacity:1;" d="M 676.058594 321.148438 C 676.765625 321.148438 677.472656 321.148438 678.203125 321.148438 C 678.214844 321.65625 678.214844 321.65625 678.226562 322.171875 C 678.269531 323.722656 678.320312 325.269531 678.371094 326.820312 C 678.382812 327.351562 678.398438 327.882812 678.410156 328.433594 C 678.523438 331.570312 678.816406 333.960938 680.351562 336.722656 C 682.207031 337.648438 684.230469 337.523438 686.257812 337.257812 C 688.03125 336.019531 688.542969 335.027344 688.945312 332.964844 C 689.019531 332.03125 689.078125 331.101562 689.113281 330.167969 C 689.136719 329.640625 689.160156 329.117188 689.183594 328.574219 C 689.203125 328.027344 689.222656 327.484375 689.246094 326.921875 C 689.269531 326.367188 689.292969 325.8125 689.316406 325.242188 C 689.375 323.878906 689.429688 322.511719 689.480469 321.148438 C 690.191406 321.148438 690.898438 321.148438 691.628906 321.148438 C 691.675781 323.21875 691.703125 325.289062 691.730469 327.359375 C 691.742188 327.941406 691.757812 328.523438 691.769531 329.125 C 691.808594 333.183594 691.699219 336.03125 688.792969 339.085938 C 686.136719 340.648438 683.328125 340.375 680.351562 339.945312 C 678.414062 339.101562 677.429688 337.890625 676.519531 335.96875 C 675.832031 333.109375 675.945312 330.316406 675.988281 327.390625 C 675.996094 326.789062 676 326.191406 676.003906 325.574219 C 676.015625 324.097656 676.035156 322.621094 676.058594 321.148438 Z M 676.058594 321.148438 "/>
<path style=" stroke:none;fill-rule:nonzero;fill:rgb(1.568628%,2.745098%,2.745098%);fill-opacity:1;" d="M 483.816406 321.148438 C 484.527344 321.148438 485.234375 321.148438 485.964844 321.148438 C 485.976562 321.65625 485.976562 321.65625 485.988281 322.171875 C 486.03125 323.722656 486.082031 325.269531 486.132812 326.820312 C 486.144531 327.351562 486.15625 327.882812 486.171875 328.433594 C 486.285156 331.570312 486.578125 333.960938 488.113281 336.722656 C 489.96875 337.648438 491.992188 337.523438 494.019531 337.257812 C 495.792969 336.019531 496.304688 335.027344 496.707031 332.964844 C 496.78125 332.03125 496.835938 331.101562 496.875 330.167969 C 496.898438 329.640625 496.921875 329.117188 496.945312 328.574219 C 496.964844 328.027344 496.984375 327.484375 497.007812 326.921875 C 497.03125 326.367188 497.054688 325.8125 497.078125 325.242188 C 497.136719 323.878906 497.191406 322.511719 497.242188 321.148438 C 497.953125 321.148438 498.660156 321.148438 499.390625 321.148438 C 499.4375 323.21875 499.464844 325.289062 499.492188 327.359375 C 499.503906 327.941406 499.519531 328.523438 499.53125 329.125 C 499.570312 333.183594 499.460938 336.03125 496.550781 339.085938 C 493.898438 340.648438 491.089844 340.375 488.113281 339.945312 C 486.175781 339.101562 485.191406 337.890625 484.28125 335.96875 C 483.59375 333.109375 483.707031 330.316406 483.75 327.390625 C 483.757812 326.789062 483.761719 326.191406 483.765625 325.574219 C 483.777344 324.097656 483.796875 322.621094 483.816406 321.148438 Z M 483.816406 321.148438 "/>
<path style=" stroke:none;fill-rule:nonzero;fill:rgb(1.568628%,2.745098%,2.745098%);fill-opacity:1;" d="M 891.457031 321.597656 C 892.660156 322.367188 893.429688 323.089844 894.070312 324.371094 C 893.007812 324.902344 893.007812 324.902344 891.921875 325.445312 C 891.621094 325.183594 891.324219 324.921875 891.015625 324.652344 C 888.941406 323.28125 886.804688 323.542969 884.40625 323.832031 C 882.410156 324.683594 881.164062 325.691406 880.109375 327.59375 C 879.308594 330.621094 879.707031 332.371094 881.183594 335.109375 C 882.265625 336.464844 882.710938 336.695312 884.40625 337.257812 C 887.460938 337.527344 889.957031 337.648438 892.460938 335.648438 C 892.992188 336.355469 893.523438 337.066406 894.070312 337.796875 C 890.6875 340.3125 887.46875 340.523438 883.332031 339.945312 C 880.722656 339.050781 879.066406 337.625 877.691406 335.246094 C 876.519531 332.457031 876.386719 329.867188 877.222656 326.964844 C 878.253906 324.511719 879.667969 322.894531 882 321.601562 C 884.964844 320.589844 888.511719 320.4375 891.457031 321.597656 Z M 891.457031 321.597656 "/>
<path style=" stroke:none;fill-rule:nonzero;fill:rgb(1.568628%,2.745098%,2.745098%);fill-opacity:1;" d="M 847.960938 321.597656 C 849.164062 322.367188 849.933594 323.089844 850.574219 324.371094 C 849.511719 324.902344 849.511719 324.902344 848.425781 325.445312 C 848.128906 325.183594 847.828125 324.921875 847.519531 324.652344 C 845.445312 323.28125 843.3125 323.542969 840.910156 323.832031 C 838.914062 324.683594 837.667969 325.691406 836.613281 327.59375 C 835.8125 330.621094 836.210938 332.371094 837.6875 335.109375 C 838.773438 336.464844 839.214844 336.695312 840.910156 337.257812 C 843.964844 337.527344 846.464844 337.648438 848.964844 335.648438 C 849.496094 336.355469 850.027344 337.066406 850.574219 337.796875 C 847.191406 340.3125 843.972656 340.523438 839.835938 339.945312 C 837.226562 339.050781 835.574219 337.625 834.195312 335.246094 C 833.023438 332.457031 832.890625 329.867188 833.726562 326.964844 C 834.757812 324.511719 836.171875 322.894531 838.503906 321.601562 C 841.46875 320.589844 845.015625 320.4375 847.960938 321.597656 Z M 847.960938 321.597656 "/>
<path style=" stroke:none;fill-rule:nonzero;fill:rgb(1.568628%,2.745098%,2.745098%);fill-opacity:1;" d="M 546.644531 321.148438 C 547.53125 321.148438 548.417969 321.148438 549.328125 321.148438 C 551.457031 326.109375 553.582031 331.074219 555.773438 336.183594 C 557.871094 331.4375 557.871094 331.4375 559.964844 326.691406 C 560.226562 326.101562 560.488281 325.515625 560.753906 324.910156 C 561.023438 324.304688 561.289062 323.699219 561.566406 323.078125 C 562.21875 321.683594 562.21875 321.683594 562.753906 321.148438 C 563.648438 321.125 564.542969 321.125 565.4375 321.148438 C 565.289062 321.488281 565.140625 321.828125 564.988281 322.179688 C 561.117188 331.03125 561.117188 331.03125 557.382812 339.945312 C 556.5 339.945312 555.613281 339.945312 554.699219 339.945312 C 552.472656 335.675781 550.429688 331.359375 548.558594 326.921875 C 548.367188 326.472656 548.179688 326.027344 547.980469 325.5625 C 547.808594 325.144531 547.632812 324.726562 547.453125 324.292969 C 547.296875 323.921875 547.140625 323.546875 546.980469 323.160156 C 546.644531 322.222656 546.644531 322.222656 546.644531 321.148438 Z M 546.644531 321.148438 "/>
<path style=" stroke:none;fill-rule:nonzero;fill:rgb(1.568628%,2.745098%,2.745098%);fill-opacity:1;" d="M 763.046875 321.148438 C 767.300781 321.148438 771.554688 321.148438 775.933594 321.148438 C 775.933594 321.855469 775.933594 322.566406 775.933594 323.296875 C 772.390625 323.296875 768.847656 323.296875 765.195312 323.296875 C 765.195312 325.601562 765.195312 327.902344 765.195312 330.277344 C 768.386719 330.277344 771.574219 330.277344 774.859375 330.277344 C 774.859375 330.988281 774.859375 331.695312 774.859375 332.425781 C 771.671875 332.425781 768.480469 332.425781 765.195312 332.425781 C 765.195312 334.90625 765.195312 337.386719 765.195312 339.945312 C 764.488281 339.945312 763.777344 339.945312 763.046875 339.945312 C 763.046875 333.742188 763.046875 327.539062 763.046875 321.148438 Z M 763.046875 321.148438 "/>
<path style=" stroke:none;fill-rule:nonzero;fill:rgb(1.568628%,2.745098%,2.745098%);fill-opacity:1;" d="M 1003.078125 321.148438 C 1004.242188 320.882812 1004.242188 320.882812 1005.761719 321.148438 C 1006.933594 322.421875 1007.753906 323.882812 1008.613281 325.378906 C 1008.859375 325.777344 1009.101562 326.179688 1009.355469 326.59375 C 1011.132812 329.558594 1011.132812 329.558594 1011.132812 330.816406 C 1011.484375 330.816406 1011.839844 330.816406 1012.207031 330.816406 C 1012.339844 330.445312 1012.476562 330.078125 1012.613281 329.699219 C 1013.386719 327.875 1014.316406 326.175781 1015.328125 324.472656 C 1015.503906 324.148438 1015.683594 323.828125 1015.863281 323.5 C 1016.410156 322.582031 1016.410156 322.582031 1017.574219 321.148438 C 1019.058594 320.941406 1019.058594 320.941406 1020.261719 321.148438 C 1019.796875 321.964844 1019.332031 322.785156 1018.867188 323.601562 C 1018.472656 324.296875 1018.082031 324.992188 1017.6875 325.691406 C 1016.667969 327.488281 1015.613281 329.179688 1014.386719 330.847656 C 1012.625 333.550781 1012.796875 336.8125 1012.742188 339.945312 C 1012.035156 339.945312 1011.324219 339.945312 1010.59375 339.945312 C 1010.597656 339.546875 1010.597656 339.152344 1010.601562 338.746094 C 1010.449219 334.125 1009.117188 331.292969 1006.535156 327.527344 C 1005.882812 326.539062 1005.234375 325.554688 1004.585938 324.566406 C 1004.296875 324.140625 1004.007812 323.714844 1003.710938 323.277344 C 1003.078125 322.222656 1003.078125 322.222656 1003.078125 321.148438 Z M 1003.078125 321.148438 "/>
<path style=" stroke:none;fill-rule:nonzero;fill:rgb(1.568628%,2.745098%,2.745098%);fill-opacity:1;" d="M 441.933594 321.148438 C 443.097656 320.882812 443.097656 320.882812 444.617188 321.148438 C 445.789062 322.421875 446.609375 323.882812 447.472656 325.378906 C 447.714844 325.777344 447.960938 326.179688 448.210938 326.59375 C 449.988281 329.558594 449.988281 329.558594 449.988281 330.816406 C 450.34375 330.816406 450.699219 330.816406 451.0625 330.816406 C 451.199219 330.445312 451.332031 330.078125 451.472656 329.699219 C 452.246094 327.875 453.175781 326.175781 454.183594 324.472656 C 454.359375 324.148438 454.539062 323.828125 454.722656 323.5 C 455.269531 322.582031 455.269531 322.582031 456.433594 321.148438 C 457.914062 320.941406 457.914062 320.941406 459.117188 321.148438 C 458.652344 321.964844 458.191406 322.785156 457.726562 323.601562 C 457.332031 324.296875 456.9375 324.992188 456.546875 325.691406 C 455.527344 327.488281 454.46875 329.179688 453.242188 330.847656 C 451.480469 333.550781 451.652344 336.8125 451.597656 339.945312 C 450.890625 339.945312 450.183594 339.945312 449.453125 339.945312 C 449.453125 339.546875 449.457031 339.152344 449.457031 338.746094 C 449.304688 334.125 447.972656 331.292969 445.390625 327.527344 C 444.738281 326.539062 444.089844 325.554688 443.441406 324.566406 C 443.152344 324.140625 442.863281 323.714844 442.566406 323.277344 C 441.933594 322.222656 441.933594 322.222656 441.933594 321.148438 Z M 441.933594 321.148438 "/>
<path style=" stroke:none;fill-rule:nonzero;fill:rgb(1.568628%,2.745098%,2.745098%);fill-opacity:1;" d="M 661.558594 321.148438 C 664.570312 321.148438 667.582031 321.148438 670.6875 321.148438 C 670.730469 323.597656 670.761719 326.046875 670.789062 328.5 C 670.800781 329.195312 670.816406 329.886719 670.828125 330.605469 C 670.832031 331.273438 670.839844 331.945312 670.84375 332.632812 C 670.851562 333.25 670.859375 333.867188 670.871094 334.5 C 670.609375 336.894531 669.679688 338.265625 668.003906 339.945312 C 665.476562 340.289062 663.261719 340.246094 660.953125 339.140625 C 660.621094 338.875 660.289062 338.605469 659.949219 338.332031 C 660.125 337.445312 660.300781 336.5625 660.484375 335.648438 C 662.566406 336.65625 662.566406 336.65625 663.167969 337.257812 C 664.421875 337.28125 665.675781 337.28125 666.929688 337.257812 C 667.914062 335.566406 668.15625 334.265625 668.222656 332.316406 C 668.246094 331.789062 668.265625 331.265625 668.289062 330.722656 C 668.304688 330.175781 668.320312 329.632812 668.335938 329.070312 C 668.359375 328.515625 668.378906 327.960938 668.402344 327.390625 C 668.449219 326.027344 668.496094 324.660156 668.539062 323.296875 C 666.234375 323.296875 663.933594 323.296875 661.558594 323.296875 C 661.558594 322.585938 661.558594 321.878906 661.558594 321.148438 Z M 661.558594 321.148438 "/>
<path style=" stroke:none;fill-rule:nonzero;fill:rgb(1.568628%,2.745098%,2.745098%);fill-opacity:1;" d="M 710.960938 321.148438 C 716.097656 321.148438 721.238281 321.148438 726.53125 321.148438 C 726.53125 321.855469 726.53125 322.566406 726.53125 323.296875 C 724.230469 323.296875 721.925781 323.296875 719.550781 323.296875 C 719.550781 328.789062 719.550781 334.285156 719.550781 339.945312 C 718.84375 339.945312 718.132812 339.945312 717.402344 339.945312 C 717.402344 334.449219 717.402344 328.957031 717.402344 323.296875 C 715.277344 323.296875 713.152344 323.296875 710.960938 323.296875 C 710.960938 322.585938 710.960938 321.878906 710.960938 321.148438 Z M 710.960938 321.148438 "/>
<path style=" stroke:none;fill-rule:nonzero;fill:rgb(1.568628%,2.745098%,2.745098%);fill-opacity:1;" d="M 605.175781 321.148438 C 610.3125 321.148438 615.453125 321.148438 620.746094 321.148438 C 620.746094 321.855469 620.746094 322.566406 620.746094 323.296875 C 618.445312 323.296875 616.140625 323.296875 613.765625 323.296875 C 613.765625 328.789062 613.765625 334.285156 613.765625 339.945312 C 613.058594 339.945312 612.347656 339.945312 611.621094 339.945312 C 611.621094 334.449219 611.621094 328.957031 611.621094 323.296875 C 609.492188 323.296875 607.367188 323.296875 605.175781 323.296875 C 605.175781 322.585938 605.175781 321.878906 605.175781 321.148438 Z M 605.175781 321.148438 "/>
<path style=" stroke:none;fill-rule:nonzero;fill:rgb(1.568628%,2.745098%,2.745098%);fill-opacity:1;" d="M 854.332031 321.148438 C 855.042969 321.148438 855.75 321.148438 856.480469 321.148438 C 856.480469 326.640625 856.480469 332.136719 856.480469 337.796875 C 860.027344 337.796875 863.570312 337.796875 867.222656 337.796875 C 867.222656 338.503906 867.222656 339.214844 867.222656 339.945312 C 862.96875 339.945312 858.714844 339.945312 854.332031 339.945312 C 854.332031 333.742188 854.332031 327.539062 854.332031 321.148438 Z M 854.332031 321.148438 "/>
<path style=" stroke:none;fill-rule:nonzero;fill:rgb(1.568628%,2.745098%,2.745098%);fill-opacity:1;" d="M 869.90625 321.148438 C 870.613281 321.148438 871.324219 321.148438 872.054688 321.148438 C 872.054688 327.351562 872.054688 333.554688 872.054688 339.945312 C 871.34375 339.945312 870.636719 339.945312 869.90625 339.945312 C 869.90625 333.742188 869.90625 327.539062 869.90625 321.148438 Z M 869.90625 321.148438 "/>
<path style=" stroke:none;fill-rule:nonzero;fill:rgb(1.568628%,2.745098%,2.745098%);fill-opacity:1;" d="M 630.414062 321.148438 C 631.121094 321.148438 631.832031 321.148438 632.5625 321.148438 C 632.5625 327.351562 632.5625 333.554688 632.5625 339.945312 C 631.851562 339.945312 631.144531 339.945312 630.414062 339.945312 C 630.414062 333.742188 630.414062 327.539062 630.414062 321.148438 Z M 630.414062 321.148438 "/>
<path style=" stroke:none;fill-rule:nonzero;fill:rgb(1.568628%,2.745098%,2.745098%);fill-opacity:1;" d="M 386.625 321.148438 C 387.332031 321.148438 388.042969 321.148438 388.773438 321.148438 C 388.773438 327.351562 388.773438 333.554688 388.773438 339.945312 C 388.0625 339.945312 387.355469 339.945312 386.625 339.945312 C 386.625 333.742188 386.625 327.539062 386.625 321.148438 Z M 386.625 321.148438 "/>
</g>
</svg>