<?xml version="1.0" encoding="UTF-8"?>
<svg version="1.1" xmlns="http://www.w3.org/2000/svg" width="1920" height="1080">
<path d="M0 0 C0.33 0.66 0.66 1.32 1 2 C-6.00820606 11.02485311 -13.17574337 19.90133825 -20.45703125 28.70703125 C-23.84702909 32.80817859 -27.21008778 36.93059865 -30.5625 41.0625 C-31.36083252 42.04645752 -31.36083252 42.04645752 -32.17529297 43.05029297 C-33.24738147 44.37211273 -34.3193219 45.69405259 -35.39111328 47.01611328 C-37.55006868 49.67827892 -39.71156314 52.3383765 -41.87329102 54.99829102 C-42.95603093 56.33063148 -44.03855119 57.66315048 -45.12084961 58.99584961 C-47.85051659 62.35686254 -50.58287451 65.71562484 -53.3203125 69.0703125 C-58.48017636 75.39886347 -63.60650853 81.7460689 -68.625 88.1875 C-72.65982038 93.36372575 -76.83021471 98.40258191 -81.09082031 103.39404297 C-84.40457959 107.27983432 -87.61960376 111.22983142 -90.79296875 115.23046875 C-93.56873411 118.71368581 -96.37700787 122.16978197 -99.1875 125.625 C-99.74147461 126.30651123 -100.29544922 126.98802246 -100.86621094 127.69018555 C-103.68780462 131.16045405 -106.51219949 134.62841002 -109.33984375 138.09375 C-114.49292805 144.41469373 -119.61276413 150.7540982 -124.625 157.1875 C-128.65982038 162.36372575 -132.83021471 167.40258191 -137.09082031 172.39404297 C-140.40457959 176.27983432 -143.61960376 180.22983142 -146.79296875 184.23046875 C-149.56873411 187.71368581 -152.37700787 191.16978197 -155.1875 194.625 C-155.74147461 195.30651123 -156.29544922 195.98802246 -156.86621094 196.69018555 C-159.68780462 200.16045405 -162.51219949 203.62841002 -165.33984375 207.09375 C-170.49292805 213.41469373 -175.61276413 219.7540982 -180.625 226.1875 C-184.65982038 231.36372575 -188.83021471 236.40258191 -193.09082031 241.39404297 C-196.40457959 245.27983432 -199.61960376 249.22983142 -202.79296875 253.23046875 C-205.56873313 256.71368458 -208.37691565 260.16985828 -211.1875 263.625 C-211.7429248 264.30796143 -212.29834961 264.99092285 -212.87060547 265.69458008 C-214.01177787 267.09757779 -215.1530549 268.50049041 -216.29443359 269.90332031 C-219.57151521 273.93188844 -222.84567444 277.96283262 -226.11938477 281.99414062 C-228.84960243 285.35567235 -231.58240038 288.7150438 -234.3203125 292.0703125 C-239.48017636 298.39886347 -244.60650853 304.7460689 -249.625 311.1875 C-253.65982038 316.36372575 -257.83021471 321.40258191 -262.09082031 326.39404297 C-265.39680001 330.2707118 -268.60539639 334.21044348 -271.76953125 338.203125 C-275.23420262 342.5476166 -278.7538062 346.84738724 -282.26831055 351.15161133 C-285.85774508 355.55862463 -289.35790325 360.01730669 -292.73046875 364.59375 C-293.14941406 365.0578125 -293.56835938 365.521875 -294 366 C-294.66 366 -295.32 366 -296 366 C-296.09333181 355.76495054 -295.80893057 345.57849543 -295.35742188 335.35595703 C-295.28820055 333.73815997 -295.2192437 332.12035157 -295.15052795 330.50253296 C-294.9651868 326.15627515 -294.77619568 321.81018319 -294.58649635 317.46411371 C-294.3881459 312.90519482 -294.19322542 308.34612924 -293.9979248 303.78707886 C-293.62845582 295.17427727 -293.25594892 286.56160994 -292.88232183 277.94898784 C-292.45673549 268.13516723 -292.0345795 258.32119996 -291.61269665 248.50721955 C-290.74558635 228.33798211 -289.87421695 208.16893058 -289 188 C-290.91023945 187.20126239 -292.82076696 186.4032137 -294.73141479 185.60545349 C-295.79530867 185.1609658 -296.85920254 184.7164781 -297.95533562 184.25852108 C-301.72031707 182.70225479 -305.50997471 181.2258993 -309.3203125 179.78515625 C-310.07648361 179.49742844 -310.83265472 179.20970062 -311.61174011 178.91325378 C-314.1154563 177.96113858 -316.62021135 177.01178986 -319.125 176.0625 C-320.95082122 175.36896315 -322.77658434 174.67527336 -324.60229492 173.98144531 C-328.58678133 172.46770262 -332.57177087 170.95529404 -336.55712891 169.44384766 C-342.12448247 167.33241699 -347.69098669 165.21875638 -353.2572937 163.10456848 C-386.82091254 150.35710274 -420.40403481 137.66194206 -454 125 C-454 124.01 -454 123.02 -454 122 C-452.76882195 121.66984642 -452.76882195 121.66984642 -451.51277161 121.33302307 C-440.6125668 118.40994138 -429.71248929 115.48638522 -418.8125 112.5625 C-417.45289658 112.19779099 -417.45289658 112.19779099 -416.06582642 111.82571411 C-385.87460551 103.72684954 -355.68637096 95.61692119 -325.5 87.5 C-297.17141579 79.88264241 -268.84118981 72.27147007 -240.5076561 64.67254257 C-201.03143029 54.08518872 -161.56077507 43.47717244 -122.09143066 32.86419678 C-108.4313778 29.19117519 -94.77101307 25.51931501 -81.1104908 21.84803963 C-74.65420483 20.11289261 -68.19794755 18.37763883 -61.74168682 16.64239788 C-56.5790684 15.25485929 -51.4164316 13.86738914 -46.25375366 12.48007202 C-41.44550801 11.18799487 -36.63731368 9.8957269 -31.82915688 8.60331917 C-30.07154572 8.13091964 -28.31391572 7.65859025 -26.55626488 7.18633842 C-17.69982313 4.80672542 -8.84446279 2.42386608 0 0 Z M-240 93 C-240.65742188 93.47308594 -241.31484375 93.94617188 -241.9921875 94.43359375 C-251.9635725 102.25559132 -258.71201974 115.08634559 -260.71484375 127.4921875 C-262.40617372 142.3666237 -258.9595174 156.91067038 -250 169 C-239.13878884 182.08239473 -225.63065356 188.44221102 -208.9921875 190.34375 C-194.2320539 190.86013951 -180.78905091 185.17441817 -169.625 175.75 C-159.28726934 165.86538416 -153.08824235 152.84093123 -152.65649414 138.56616211 C-152.47027914 124.13233409 -155.44014508 112.29270031 -165 101 C-165.62261719 100.23171875 -166.24523437 99.4634375 -166.88671875 98.671875 C-175.03033624 89.55102341 -187.87451371 83.03589438 -200.10717773 81.78442383 C-215.37664388 80.93141003 -227.49660277 83.85362421 -240 93 Z " fill="#F47721" transform="translate(472,409)"/>
<path d="M0 0 C23 0 23 0 28.4375 4.375 C29.6775541 6.21566485 30.86660275 8.09180925 32 10 C33.31081359 11.66382477 34.64425253 13.31008059 36 14.9375 C36.97646484 16.175 36.97646484 16.175 37.97265625 17.4375 C41.5880752 22.00727809 45.30432069 26.49509436 49 31 C50.39596765 32.70822358 51.79179898 34.41655857 53.1875 36.125 C55.92724541 39.47625273 58.67569223 42.81992068 61.43359375 46.15625 C62.34685425 47.26202393 62.34685425 47.26202393 63.27856445 48.39013672 C64.47261809 49.83537895 65.66769867 51.27977361 66.86401367 52.72314453 C71.01291955 57.74647283 74.99565748 62.85155962 79 68 C79.33 45.56 79.66 23.12 80 0 C88.91 0 97.82 0 107 0 C107 38.28 107 76.56 107 116 C83 116 83 116 76.5 110.125 C74.1015625 106.515625 74.1015625 106.515625 73.03222656 104.70117188 C71.53682601 102.23666121 69.72071439 100.08415622 67.875 97.875 C67.235625 97.06933594 66.59625 96.26367188 65.9375 95.43359375 C60.05510886 88.04502585 54.00472263 80.78921947 48 73.5 C39.50362886 63.18549879 39.50362886 63.18549879 35.8125 58.6875 C35.13832031 57.86636719 34.46414063 57.04523438 33.76953125 56.19921875 C32.13509521 54.16789978 30.56433681 52.08578241 29 50 C28.67 71.78 28.34 93.56 28 116 C18.76 116 9.52 116 0 116 C0 77.72 0 39.44 0 0 Z " fill="#040707" transform="translate(1682,435)"/>
<path d="M0 0 C23 0 23 0 29.25 5.625 C30.70825195 7.54370117 30.70825195 7.54370117 31.67578125 9.23046875 C33.98981887 13.04779348 36.64221683 16.46366417 39.4375 19.9375 C40.34949141 21.10765764 41.26094646 22.2782335 42.171875 23.44921875 C45.56182897 27.75084687 49.13963628 31.88447655 52.72363281 36.02441406 C56.26883587 40.12536417 59.69667118 44.30139924 63.05859375 48.5546875 C65.97110417 52.22316139 68.94912253 55.83733085 71.921875 59.45703125 C73.96515734 61.95736359 75.98283807 64.47854758 78 67 C78.33 44.89 78.66 22.78 79 0 C87.91 0 96.82 0 106 0 C106 38.28 106 76.56 106 116 C83 116 83 116 78.125 112.1875 C77.04052825 110.4848527 76.00017727 108.75349144 75 107 C73.54828346 105.18602025 72.06759027 103.39494541 70.5625 101.625 C69.0406872 99.75079488 67.51985806 97.87579063 66 96 C64.50099052 94.16585669 63.00099484 92.33251892 61.5 90.5 C59.30774854 87.8210008 57.11580532 85.14175792 54.92578125 82.4609375 C51.47173075 78.23435445 48.01275706 74.01258888 44.53125 69.80859375 C43.91789795 69.06689941 43.3045459 68.32520508 42.67260742 67.56103516 C41.46596072 66.10241642 40.25787554 64.64498601 39.0480957 63.18896484 C38.48179443 62.50398926 37.91549316 61.81901367 37.33203125 61.11328125 C36.83421143 60.51298096 36.3363916 59.91268066 35.82348633 59.29418945 C33.14176558 55.92022642 30.58594103 52.44792137 28 49 C27.67 71.11 27.34 93.22 27 116 C18.09 116 9.18 116 0 116 C0 77.72 0 39.44 0 0 Z " fill="#040707" transform="translate(1121,435)"/>
<path d="M0 0 C8.91 0 17.82 0 27 0 C27.33 17.16 27.66 34.32 28 52 C31.96 47.71 35.92 43.42 40 39 C44.8125 34.1875 44.8125 34.1875 47 32.03125 C48.85932284 30.14287524 50.59388084 28.20357247 52.3125 26.1875 C55.85403662 22.05157961 59.70404688 18.2674806 63.57495117 14.44458008 C67.11145987 10.93494369 70.47101057 7.32522634 73.6953125 3.5234375 C74.74271981 2.30041699 75.86139532 1.13860468 77 0 C80.07275391 -0.22705078 80.07275391 -0.22705078 83.9765625 -0.1953125 C85.00443375 -0.19106766 85.00443375 -0.19106766 86.05307007 -0.18673706 C88.24389027 -0.17553281 90.43430316 -0.15042859 92.625 -0.125 C94.1093691 -0.11497048 95.5937446 -0.10584458 97.078125 -0.09765625 C100.71888261 -0.07559294 104.35940156 -0.04106176 108 0 C106.37915347 3.44401787 104.57463755 5.60671518 101.8125 8.25 C98.28548426 11.6349468 95.06523704 15.18625858 91.86743164 18.87646484 C88.77129734 22.39720954 85.53831522 25.78596868 82.3125 29.1875 C80.91398917 30.6744102 79.51555251 32.16139016 78.1171875 33.6484375 C75.51902599 36.40465283 72.90048578 39.13804007 70.2578125 41.8515625 C69.15101452 43.00518229 68.04424207 44.15882657 66.9375 45.3125 C66.41905518 45.83287842 65.90061035 46.35325684 65.36645508 46.8894043 C63.78972609 48.48860846 63.78972609 48.48860846 62 51 C62.35057019 54.14647567 63.55124253 56.00709587 65.5546875 58.3984375 C66.08143066 59.03539551 66.60817383 59.67235352 67.15087891 60.32861328 C67.71983887 61.0039209 68.28879883 61.67922852 68.875 62.375 C70.06866297 63.81691859 71.26135533 65.25964118 72.453125 66.703125 C73.3512793 67.7869043 73.3512793 67.7869043 74.26757812 68.89257812 C76.76735088 71.93345163 79.20204584 75.0227873 81.625 78.125 C82.29390259 78.97952759 82.29390259 78.97952759 82.97631836 79.85131836 C83.87189182 80.99604973 84.76699609 82.14114833 85.66162109 83.28662109 C87.91644945 86.17322915 90.17648975 89.05573305 92.4375 91.9375 C92.88085693 92.50388184 93.32421387 93.07026367 93.78100586 93.65380859 C96.28051277 96.83956906 98.80566476 100.00200839 101.359375 103.14453125 C101.91439697 103.82974854 102.46941895 104.51496582 103.04125977 105.22094727 C104.12090859 106.55165487 105.20460122 107.87909394 106.29272461 109.20288086 C110 113.77767225 110 113.77767225 110 116 C105.60788326 116.24939948 101.21962577 116.42960836 96.82250977 116.54931641 C95.33121914 116.599257 93.84040954 116.66724616 92.35083008 116.75439453 C80.04585442 117.45565027 80.04585442 117.45565027 75.14550781 113.96899414 C72.83936745 111.42921419 70.90437767 108.85008183 69 106 C68.04380137 104.7980088 67.07902662 103.6027314 66.1015625 102.41796875 C65.27295308 101.34352067 64.44741079 100.26670004 63.625 99.1875 C59.04383741 93.26467027 54.27985523 87.52667417 49.41015625 81.83984375 C43 74.28687196 43 74.28687196 43 72 C42.28312012 72.73492676 41.56624023 73.46985352 40.82763672 74.22705078 C38 77 38 77 35.36376953 79.14404297 C31.31942031 82.5942813 28.44051789 85.27380122 27.10058594 90.52441406 C26.79647992 94.4256025 26.76636146 98.21401266 26.875 102.125 C26.87694656 103.47656361 26.8743731 104.82814159 26.8671875 106.1796875 C26.8671875 109.45342435 26.92745781 112.72706697 27 116 C18.09 116 9.18 116 0 116 C0 77.72 0 39.44 0 0 Z " fill="#040707" transform="translate(910,435)"/>
<path d="M0 0 C4.14636832 1.38212277 5.24882595 4.22612586 7.375 7.8125 C8.27424173 9.29015937 9.17537047 10.7666716 10.078125 12.2421875 C10.55443359 13.02303711 11.03074219 13.80388672 11.52148438 14.60839844 C13.98693243 18.59643165 16.55721162 22.51488406 19.125 26.4375 C24.16714806 34.16083823 29.15898799 41.91499383 34.125 49.6875 C38.56537958 56.6367725 43.01106402 63.5819787 47.5 70.5 C52.68612492 78.49247812 57.81411508 86.52178526 62.94384766 94.55053711 C67.22311724 101.24178636 71.5344602 107.91086505 75.875 114.5625 C79.90260724 120.74077129 83.89229965 126.94043011 87.8125 133.1875 C88.23966309 133.86562744 88.66682617 134.54375488 89.10693359 135.24243164 C92 139.87850677 92 139.87850677 92 141 C59 141 26 141 -8 141 C-8 128.62484599 -8 128.62484599 -7.74098206 124.32290649 C-7.68352814 123.34211624 -7.62607422 122.36132599 -7.56687927 121.35081482 C-7.47105309 119.79971764 -7.47105309 119.79971764 -7.37329102 118.21728516 C-7.30662231 117.09539291 -7.23995361 115.97350067 -7.17126465 114.81761169 C-6.95197981 111.14123092 -6.72802145 107.46515171 -6.50390625 103.7890625 C-6.34910476 101.21277371 -6.19456293 98.63646932 -6.04026794 96.06015015 C-5.71691412 90.67213863 -5.39150747 85.28425758 -5.06420898 79.89648438 C-4.64640551 73.01867317 -4.23265008 66.14062478 -3.82019138 59.26249123 C-3.5012926 53.94505199 -3.18087933 48.62770444 -2.86015129 43.31037521 C-2.7072643 40.77566103 -2.55457761 38.24093476 -2.40210152 35.70619583 C-2.18790933 32.15122837 -1.9722286 28.59635431 -1.75610352 25.04150391 C-1.66331367 23.49647942 -1.66331367 23.49647942 -1.56864929 21.92024231 C-1.1218017 14.60720996 -0.57987046 7.30364033 0 0 Z " fill="#143863" transform="translate(200,305)"/>
<path d="M0 0 C3.25391953 3.03120399 5.61734391 6.22311672 8.03515625 9.94921875 C8.42151749 10.54132141 8.80787872 11.13342407 9.20594788 11.74346924 C10.04936274 13.03721755 10.89055823 14.33241478 11.72979736 15.62887573 C13.09726271 17.74119792 14.47045199 19.84969619 15.84521484 21.95727539 C17.32967738 24.23309158 18.81379923 26.50912186 20.29626465 28.78623962 C25.64573653 37.00192967 31.03884022 45.18869675 36.43493652 53.37380981 C39.28711219 57.7003306 42.13757378 62.0279805 44.98828125 66.35546875 C45.56138031 67.2253392 46.13447937 68.09520966 46.72494507 68.99143982 C50.89568155 75.32225497 55.06353953 81.6549597 59.23046875 87.98828125 C61.00980517 90.6921729 62.78920382 93.39602358 64.56863403 96.09985352 C65.72416481 97.85590925 66.87950171 99.61209259 68.03463745 101.3684082 C75.878353 113.29561911 75.878353 113.29561911 83.8046875 125.16796875 C84.47846436 126.17053711 85.15224121 127.17310547 85.84643555 128.20605469 C87.02579126 129.95577379 88.2091827 131.70278357 89.39770508 133.44628906 C93 138.78328479 93 138.78328479 93 141 C87.51453719 140.35937413 82.79210355 138.53678699 77.69921875 136.51953125 C76.77463867 136.15887573 75.85005859 135.79822021 74.89746094 135.42663574 C71.82541094 134.22712774 68.75652428 133.01972609 65.6875 131.8125 C62.40498161 130.52866546 59.12166178 129.2468944 55.83833313 127.96513367 C53.52482439 127.0617724 51.2115874 126.15771494 48.89860535 125.25300598 C40.20207165 121.85277792 31.49480632 118.48128285 22.78125 115.125 C21.8340808 114.76008233 21.8340808 114.76008233 20.86777687 114.38779259 C15.27117946 112.23166503 9.67409659 110.07680033 4.07650757 107.92324829 C-10.32332885 102.38176861 -24.69249566 96.77605649 -39 91 C-38.37356437 87.24181091 -37.29274474 84.0507999 -35.76171875 80.56640625 C-35.28089844 79.46458008 -34.80007813 78.36275391 -34.3046875 77.22753906 C-33.76571549 76.00581945 -33.2266498 74.78414117 -32.6875 73.5625 C-32.1232038 72.27463045 -31.55941763 70.98653733 -30.99609375 69.69824219 C-30.06463238 67.56849408 -29.13263712 65.43898954 -28.19882202 63.31027222 C-25.39995007 56.92786007 -22.6295907 50.53330089 -19.86328125 44.13671875 C-18.52062884 41.03545206 -17.17768079 37.93431356 -15.83462524 34.83322144 C-14.95054741 32.79084456 -14.06721638 30.74814424 -13.18466187 28.70510864 C-11.92787738 25.79702548 -10.6674484 22.89054613 -9.40625 19.984375 C-9.03579056 19.12490768 -8.66533112 18.26544037 -8.28364563 17.37992859 C-5.71896158 11.48252772 -2.92712026 5.72579129 0 0 Z " fill="#143863" transform="translate(364,559)"/>
<path d="M0 0 C29.04 0 58.08 0 88 0 C88 7.59 88 15.18 88 23 C68.2 23 48.4 23 28 23 C28 30.92 28 38.84 28 47 C45.49 47 62.98 47 81 47 C81 53.93 81 60.86 81 68 C63.51 68 46.02 68 28 68 C28 76.58 28 85.16 28 94 C48.46 94 68.92 94 90 94 C90 101.26 90 108.52 90 116 C60.3 116 30.6 116 0 116 C0 77.72 0 39.44 0 0 Z " fill="#040707" transform="translate(1343,435)"/>
<path d="M0 0 C29.04 0 58.08 0 88 0 C88 7.59 88 15.18 88 23 C67.87 23 47.74 23 27 23 C27 30.92 27 38.84 27 47 C44.82 47 62.64 47 81 47 C81 53.93 81 60.86 81 68 C63.18 68 45.36 68 27 68 C27 76.58 27 85.16 27 94 C47.79 94 68.58 94 90 94 C90 101.26 90 108.52 90 116 C60.3 116 30.6 116 0 116 C0 77.72 0 39.44 0 0 Z " fill="#040707" transform="translate(1572,435)"/>
<path d="M0 0 C1.95703125 1.91796875 1.95703125 1.91796875 3.1875 3.8125 C3.17546496 6.83329611 2.19700972 7.80248883 0.11328125 9.99609375 C-1.18029297 11.11177734 -1.18029297 11.11177734 -2.5 12.25 C-3.39847656 13.03117187 -4.29695312 13.81234375 -5.22265625 14.6171875 C-6.50462891 15.70386719 -6.50462891 15.70386719 -7.8125 16.8125 C-8.47121094 17.37195313 -9.12992188 17.93140625 -9.80859375 18.5078125 C-11.13409783 19.6203459 -12.47158234 20.71859349 -13.8125 21.8125 C-15.17375 20.513125 -15.17375 20.513125 -16.5625 19.1875 C-24.82478442 12.08868012 -34.25445438 8.44090943 -45.06640625 8.6015625 C-55.40977825 9.39607472 -63.9567781 13.52712867 -71.125 21 C-78.32026208 30.23959838 -79.18725874 41.53606984 -77.8125 52.8125 C-76.9124217 56.45873556 -75.65197919 59.5472653 -73.8125 62.8125 C-72.9153125 64.42125 -72.9153125 64.42125 -72 66.0625 C-65.98492261 73.62431157 -59.04804073 77.31597022 -49.6875 79.5625 C-48.73875 79.645 -47.79 79.7275 -46.8125 79.8125 C-45.636875 79.915625 -44.46125 80.01875 -43.25 80.125 C-31.82422567 79.92762578 -22.58880177 74.75375362 -14.8125 66.8125 C-11.77541295 68.16231647 -9.77508753 69.65166739 -7.5 72.0625 C-4.11441957 75.55800187 -0.54394002 78.69027468 3.1875 81.8125 C2.37507542 87.89879939 -3.2334674 91.30981371 -7.8125 94.8125 C-19.13192647 101.86245152 -30.96985909 104.37842636 -44.1875 104.25 C-45.27877197 104.24315186 -46.37004395 104.23630371 -47.49438477 104.22924805 C-55.8681687 104.06298045 -63.02062993 103.05468332 -70.8125 99.8125 C-71.70582031 99.45027344 -72.59914063 99.08804688 -73.51953125 98.71484375 C-87.81221221 92.23812964 -97.23370092 81.17441752 -103.5859375 67.0859375 C-106.44295447 59.46115973 -107.20082723 52.71795836 -107.1875 44.625 C-107.18588867 43.60849365 -107.18427734 42.5919873 -107.18261719 41.54467773 C-107.05388877 33.63482152 -106.00560908 27.11577026 -102.8125 19.8125 C-102.36197266 18.70455078 -102.36197266 18.70455078 -101.90234375 17.57421875 C-95.40948274 3.09879269 -83.10412001 -6.26668599 -68.8125 -12.1875 C-45.70973555 -19.93572444 -18.25686506 -16.96182792 0 0 Z " fill="#040707" transform="translate(623.8125,449.1875)"/>
<path d="M0 0 C1.6796875 1.83203125 1.6796875 1.83203125 2.6796875 4.83203125 C-2.91960837 10.58880732 -8.61789608 16.36375363 -15.3203125 20.83203125 C-15.77019531 20.38472656 -16.22007812 19.93742187 -16.68359375 19.4765625 C-25.13194185 11.53613112 -34.82210556 7.38542981 -46.44140625 7.55859375 C-55.98736021 8.46526509 -64.68310261 11.80675868 -71.3203125 18.83203125 C-78.61427822 28.46824027 -80.41203055 37.89222876 -79.3203125 49.83203125 C-77.42749206 59.08078261 -73.59153166 67.12383623 -65.73828125 72.6484375 C-55.49371321 78.59458538 -45.14189002 80.42737278 -33.6171875 77.5859375 C-26.50442356 75.2513058 -21.29837108 71.32065994 -16.3203125 65.83203125 C-12.29988038 67.47895525 -9.38965216 70.28654273 -6.2578125 73.20703125 C-5.72865234 73.68914062 -5.19949219 74.17125 -4.65429688 74.66796875 C-1.90120309 77.21034896 0.55982357 79.7365898 2.6796875 82.83203125 C-5.66933319 94.26655958 -19.63225363 100.60419787 -33.3203125 102.83203125 C-52.20090688 104.37561094 -70.68747791 102.8942309 -86.0078125 90.69140625 C-88.53436601 88.48067193 -90.94466631 86.20348758 -93.3203125 83.83203125 C-94.18462891 82.98511719 -94.18462891 82.98511719 -95.06640625 82.12109375 C-105.49728251 71.01288786 -108.83014934 55.93646684 -108.671875 41.14111328 C-108.16070879 25.40500356 -102.3652132 11.16356432 -91.3203125 -0.16796875 C-65.39015226 -22.59085808 -25.61051444 -23.10414737 0 0 Z " fill="#040707" transform="translate(890.3203125,450.16796875)"/>
<path d="M0 0 C9.9 0 19.8 0 30 0 C30.95777344 2.2790625 31.91554688 4.558125 32.90234375 6.90625 C33.89107368 9.25761285 34.88007957 11.60885942 35.86914062 13.96008301 C36.58039456 15.65101772 37.29149525 17.34201691 38.00244141 19.03308105 C42.25777303 29.15320657 46.53253664 39.26458322 50.84765625 49.359375 C51.43509865 50.73512695 51.43509865 50.73512695 52.03440857 52.13867188 C53.94055607 56.60271895 55.85008431 61.06526123 57.76538086 65.52539062 C58.45833746 67.14706412 59.15113565 68.76880531 59.84375 70.390625 C60.16485245 71.13471619 60.4859549 71.87880737 60.81678772 72.64544678 C63 77.7727862 63 77.7727862 63 80 C63.66 80 64.32 80 65 80 C65.16689331 79.46705322 65.33378662 78.93410645 65.5057373 78.38500977 C67.4315097 72.40615451 69.7543846 66.68476801 72.28125 60.9375 C72.69175598 59.99548737 73.10226196 59.05347473 73.52520752 58.08291626 C74.84641487 55.05363574 76.17309501 52.02678855 77.5 49 C78.4068835 46.92379986 79.31345823 44.84746483 80.21972656 42.77099609 C82.80767512 36.8449259 85.40263936 30.92194997 88 25 C88.34635498 24.2100061 88.69270996 23.42001221 89.04956055 22.6060791 C92.35562104 15.06593378 95.67437564 7.53156106 99 0 C107.91 0 116.82 0 126 0 C125.26744765 4.39531411 124.73079942 7.07867945 123.02905273 10.95922852 C122.41506119 12.37304054 122.41506119 12.37304054 121.78866577 13.81541443 C121.341492 14.82636673 120.89431824 15.83731903 120.43359375 16.87890625 C119.96756744 17.94718155 119.50154114 19.01545685 119.02139282 20.11610413 C117.49958313 23.60096432 115.96851028 27.08167344 114.4375 30.5625 C113.38591462 32.96696919 112.33505631 35.3717565 111.28491211 37.77685547 C109.18071892 42.59450244 107.07354352 47.41082594 104.96386719 52.22607422 C101.30335006 60.58568951 97.67189142 68.95775084 94.05206299 77.33505249 C93.07508464 79.59587788 92.0969225 81.85618842 91.11865234 84.11645508 C87.39167041 92.73454489 83.69658378 101.36545355 80.11547852 110.04541016 C78.10259179 114.89740821 78.10259179 114.89740821 77 116 C74.92737924 116.08767112 72.85179706 116.10695873 70.77734375 116.09765625 C68.88725586 116.09282227 68.88725586 116.09282227 66.95898438 116.08789062 C65.61848891 116.07953403 64.27799412 116.07106907 62.9375 116.0625 C61.59310058 116.0574866 60.2486994 116.05292342 58.90429688 116.04882812 C55.60282059 116.03699488 52.30143197 116.02050971 49 116 C39.56357877 95.25408631 30.52176059 74.34988115 21.58462524 53.38475037 C18.69284424 46.60692974 15.77412295 39.84103033 12.84765625 33.078125 C11.59524208 30.17802314 10.34333375 27.27770353 9.09164429 24.37728882 C8.28410655 22.50899566 7.47473491 20.64149404 6.66348267 18.77481079 C5.53898144 16.18659628 4.42112754 13.59560598 3.3046875 11.00390625 C2.96812637 10.2340741 2.63156525 9.46424194 2.2848053 8.67108154 C0 3.3416286 0 3.3416286 0 0 Z " fill="#040707" transform="translate(1437,435)"/>
<path d="M0 0 C33.33 0 66.66 0 101 0 C101 7.59 101 15.18 101 23 C89.12 23 77.24 23 65 23 C65 53.69 65 84.38 65 116 C55.76 116 46.52 116 37 116 C37 85.31 37 54.62 37 23 C24.79 23 12.58 23 0 23 C0 15.41 0 7.82 0 0 Z " fill="#040707" transform="translate(1802,435)"/>
<path d="M0 0 C9.24 0 18.48 0 28 0 C28 31.02 28 62.04 28 94 C46.81 94 65.62 94 85 94 C85 101.26 85 108.52 85 116 C56.95 116 28.9 116 0 116 C0 77.72 0 39.44 0 0 Z " fill="#040707" transform="translate(636,435)"/>
<path d="M0 0 C8.0418798 6.39629942 13.7133473 15.68062784 15.75390625 25.8203125 C16.79703482 35.05945127 15.96232341 43.20119415 13 52 C9.0369954 52 8.24396239 50.72653651 5.375 48.0625 C4.488125 47.24136719 3.60125 46.42023437 2.6875 45.57421875 C-0.54058169 42.48220445 -3.69096356 39.32060857 -6.83203125 36.140625 C-15.57903407 26.937222 -15.57903407 26.937222 -27 23 C-30.37194253 23.43881444 -33.11468448 24.16850089 -36 26 C-38.92936101 30.29813982 -39.17601097 33.84499989 -38.40234375 38.921875 C-37.14948757 43.43057469 -34.77277337 45.96535911 -31.375 49.0625 C-30.83375488 49.57925293 -30.29250977 50.09600586 -29.73486328 50.62841797 C-26.25707195 53.92409348 -22.67357293 57.09583357 -19.0234375 60.19921875 C-14.82722894 63.93368235 -10.93415488 67.99328899 -7 72 C-11.32791415 76.88944732 -17.24906969 77.74466503 -23.53515625 78.328125 C-37.34685828 78.72805019 -48.74542465 75.50385098 -59 66 C-68.60724932 55.47084292 -71.97802515 44.10611478 -71.375 30.1171875 C-70.5331285 18.68352014 -65.35732054 8.92610694 -56.984375 1.12109375 C-39.82172877 -12.35901618 -17.68513815 -12.72750106 0 0 Z M-50 15 C-56.48103661 23.20825664 -57.98007858 31.70312502 -57 42 C-54.80692366 50.66561516 -50.54455746 56.58741144 -42.9375 61.3125 C-39.97273325 63.0529871 -37.38124073 64.33624605 -34 65 C-34 64.34 -34 63.68 -34 63 C-34.64066406 62.731875 -35.28132813 62.46375 -35.94140625 62.1875 C-43.86828065 58.5961888 -48.32269275 54.23187275 -52.9375 46.9375 C-55.56081272 39.80536855 -55.23697879 30.1167445 -52.5625 23.0625 C-48.94645298 16.35060921 -43.16589982 11.38347852 -35.9375 9 C-26.46462367 6.77023065 -18.57192027 8.12035799 -10.140625 13.09765625 C-5.9916016 16.25219724 -3.50643744 20.53055624 -1 25 C-0.34 24.67 0.32 24.34 1 24 C-5.22036427 13.7466523 -10.26682396 9.06693742 -21.9140625 5.6640625 C-32.55751775 3.37369871 -42.49364083 7.41812414 -50 15 Z M-42.75390625 19.8359375 C-47.50756997 25.81524463 -49.66713732 31.26120711 -49 39 C-47.58097681 44.70935112 -45.19915714 48.89627825 -41 53 C-38.69276647 54.27113698 -36.49887328 55.11804473 -34 56 C-34 55.34 -34 54.68 -34 54 C-35.69684214 52.81544841 -35.69684214 52.81544841 -37.8125 51.6875 C-41.9704871 49.18976923 -44.16976022 46.86432725 -45.546875 42.11328125 C-46.96135406 35.51644354 -46.26323987 30.45244353 -42.875 24.62890625 C-41.84226076 23.01452536 -41.84226076 23.01452536 -42 21 C-34.93783358 17.33813593 -29.00331047 15.80608011 -21 17 C-17.04579657 18.83367044 -13.00104979 20.99790042 -11 25 C-10.34 25 -9.68 25 -9 25 C-9.92301045 20.96182927 -11.55214831 19.38059749 -14.9375 17.25 C-23.91094847 11.94979492 -35.2941264 12.02725926 -42.75390625 19.8359375 Z " fill="#143863" transform="translate(293,510)"/>
<path d="M0 0 C9.24 0 18.48 0 28 0 C28 38.28 28 76.56 28 116 C18.76 116 9.52 116 0 116 C0 77.72 0 39.44 0 0 Z " fill="#040707" transform="translate(735,435)"/>
<path d="M0 0 C1.65 0 3.3 0 5 0 C7.210823 5.78930228 9.24665644 11.61517064 11.1875 17.5 C11.46013672 18.32242188 11.73277344 19.14484375 12.01367188 19.9921875 C12.67717292 21.99433101 13.3387862 23.99709996 14 26 C15.89213234 23.16180149 16.84875543 20.87702043 17.9453125 17.67578125 C18.29980469 16.64775391 18.65429688 15.61972656 19.01953125 14.56054688 C19.38433594 13.48869141 19.74914063 12.41683594 20.125 11.3125 C20.68380859 9.68731445 20.68380859 9.68731445 21.25390625 8.02929688 C22.1731173 5.35415702 23.08831688 2.67771279 24 0 C25.65 0 27.3 0 29 0 C31.97 8.58 34.94 17.16 38 26 C40.41663017 19.95842458 42.74898414 14.04165264 44.75 7.875 C45.08064453 6.86953125 45.08064453 6.86953125 45.41796875 5.84375 C45.94816741 4.23010191 46.47452413 2.61519221 47 1 C48.65 0.67 50.3 0.34 52 0 C50.48406093 7.78792875 48.0210974 15.09140938 45.375 22.5625 C44.95476562 23.76197266 44.53453125 24.96144531 44.1015625 26.19726562 C43.07225134 29.13314177 42.03830116 32.06729381 41 35 C39.35 35 37.7 35 36 35 C33.22216699 28.40458644 30.84991083 21.72550267 28.66333008 14.91577148 C27.7981239 11.70064465 27.7981239 11.70064465 26 9 C23.03 17.58 20.06 26.16 17 35 C15.35 35 13.7 35 12 35 C8.81322908 27.41908801 6.21225843 19.71774908 3.75 11.875 C3.38648438 10.72773437 3.02296875 9.58046875 2.6484375 8.3984375 C1.76226575 5.60000039 0.87952682 2.80053118 0 0 Z " fill="#040707" transform="translate(1781,598)"/>
<path d="M0 0 C1.65 0 3.3 0 5 0 C7.210823 5.78930228 9.24665644 11.61517064 11.1875 17.5 C11.46013672 18.32242188 11.73277344 19.14484375 12.01367188 19.9921875 C12.67717292 21.99433101 13.3387862 23.99709996 14 26 C15.89213234 23.16180149 16.84875543 20.87702043 17.9453125 17.67578125 C18.29980469 16.64775391 18.65429688 15.61972656 19.01953125 14.56054688 C19.38433594 13.48869141 19.74914063 12.41683594 20.125 11.3125 C20.68380859 9.68731445 20.68380859 9.68731445 21.25390625 8.02929688 C22.1731173 5.35415702 23.08831688 2.67771279 24 0 C25.65 0 27.3 0 29 0 C31.97 8.58 34.94 17.16 38 26 C40.41663017 19.95842458 42.74898414 14.04165264 44.75 7.875 C45.08064453 6.86953125 45.08064453 6.86953125 45.41796875 5.84375 C45.94816741 4.23010191 46.47452413 2.61519221 47 1 C48.65 0.67 50.3 0.34 52 0 C50.48406093 7.78792875 48.0210974 15.09140938 45.375 22.5625 C44.95476562 23.76197266 44.53453125 24.96144531 44.1015625 26.19726562 C43.07225134 29.13314177 42.03830116 32.06729381 41 35 C39.35 35 37.7 35 36 35 C33.22216699 28.40458644 30.84991083 21.72550267 28.66333008 14.91577148 C27.7981239 11.70064465 27.7981239 11.70064465 26 9 C23.03 17.58 20.06 26.16 17 35 C15.35 35 13.7 35 12 35 C8.81322908 27.41908801 6.21225843 19.71774908 3.75 11.875 C3.38648438 10.72773437 3.02296875 9.58046875 2.6484375 8.3984375 C1.76226575 5.60000039 0.87952682 2.80053118 0 0 Z " fill="#040707" transform="translate(1482,598)"/>
<path d="M0 0 C5 1 5 1 6.76098633 3.13305664 C7.27943115 4.04949951 7.79787598 4.96594238 8.33203125 5.91015625 C9.18764648 7.39418945 9.18764648 7.39418945 10.06054688 8.90820312 C10.63869141 9.94912109 11.21683594 10.99003906 11.8125 12.0625 C12.7087207 13.62967773 12.7087207 13.62967773 13.62304688 15.22851562 C15.09705081 17.81097052 16.5550904 20.40118933 18 23 C20.46034552 20.75624365 21.95858423 18.51614812 23.5234375 15.5859375 C23.9875 14.74289062 24.4515625 13.89984375 24.9296875 13.03125 C25.89473769 11.25764425 26.8504637 9.47893379 27.796875 7.6953125 C28.26351562 6.85484375 28.73015625 6.014375 29.2109375 5.1484375 C29.62649902 4.37677246 30.04206055 3.60510742 30.47021484 2.81005859 C32 1 32 1 37 0 C37 11.55 37 23.1 37 35 C35.68 35 34.36 35 33 35 C32.67 27.08 32.34 19.16 32 11 C26.06 20.9 26.06 20.9 20 31 C16 30 16 30 14.53613281 28.14233398 C14.09624023 27.35157471 13.65634766 26.56081543 13.203125 25.74609375 C12.76645508 24.9770874 12.32978516 24.20808105 11.87988281 23.41577148 C11.34202148 22.43294189 10.80416016 21.4501123 10.25 20.4375 C8.5175 17.323125 6.785 14.20875 5 11 C4.67 18.92 4.34 26.84 4 35 C2.68 35 1.36 35 0 35 C0 23.45 0 11.9 0 0 Z " fill="#040707" transform="translate(521,598)"/>
<path d="M0 0 C0.80566406 0.04833984 1.61132812 0.09667969 2.44140625 0.14648438 C3.28316406 0.20255859 4.12492187 0.25863281 4.9921875 0.31640625 C6.26642578 0.3947168 6.26642578 0.3947168 7.56640625 0.47460938 C9.66697874 0.60442003 11.76712941 0.74102365 13.8671875 0.87890625 C16.20405251 6.799878 17.98719258 12.71311051 19.5546875 18.87890625 C19.77962891 19.74902344 20.00457031 20.61914062 20.23632812 21.515625 C20.78382549 23.63572118 21.32606052 25.75717517 21.8671875 27.87890625 C17.60145502 30.92585802 17.60145502 30.92585802 14.40454102 30.72143555 C11.25651383 29.6761318 10.36422432 28.51933717 8.45703125 25.8359375 C7.85955078 25.00900391 7.26207031 24.18207031 6.64648438 23.33007812 C6.03869141 22.45931641 5.43089844 21.58855469 4.8046875 20.69140625 C4.19302734 19.83998047 3.58136719 18.98855469 2.95117188 18.11132812 C1.23621774 15.71410035 -0.44924187 13.29821672 -2.1328125 10.87890625 C-2.78805908 9.98244385 -2.78805908 9.98244385 -3.45654297 9.06787109 C-5.69882265 5.93183629 -6.1328125 4.92059994 -6.1328125 0.87890625 C-3.77622853 -0.29938574 -2.60708014 -0.16523747 0 0 Z " fill="#F47721" transform="translate(1058.1328125,435.12109375)"/>
<path d="M0 0 C0.33 0.33 0.66 0.66 1 1 C0.90383989 7.77491717 -2.12805498 11.45120723 -6.3125 16.5625 C-7.47686415 18.02085643 -8.63965777 19.48046833 -9.80078125 20.94140625 C-10.35072754 21.6286377 -10.90067383 22.31586914 -11.46728516 23.02392578 C-13.46340875 25.59745626 -15.24526919 28.25742073 -17 31 C-23.75 30.25 -23.75 30.25 -26 28 C-25.66701545 19.0485917 -21.59278976 9.53047623 -19 1 C-16.95857606 0.83038614 -14.91684689 0.66444404 -12.875 0.5 C-11.16957031 0.36078125 -11.16957031 0.36078125 -9.4296875 0.21875 C-6.26739806 0.017055 -3.16684831 -0.11276611 0 0 Z " fill="#F47721" transform="translate(1296,435)"/>
<path d="M0 0 C0.75732422 0.04833984 1.51464844 0.09667969 2.29492188 0.14648438 C3.08060547 0.20255859 3.86628906 0.25863281 4.67578125 0.31640625 C5.47306641 0.36861328 6.27035156 0.42082031 7.09179688 0.47460938 C9.05764647 0.60409647 11.0230179 0.74080666 12.98828125 0.87890625 C12.56701814 6.30851965 11.54637856 9.07979914 7.92578125 13.12890625 C3.86185119 17.79370355 0.3270671 22.60714811 -3.08984375 27.76171875 C-5.37947151 30.28403226 -6.65137256 30.68828694 -10.01171875 30.87890625 C-12.32421875 29.94140625 -12.32421875 29.94140625 -14.01171875 28.87890625 C-13.40627816 22.86578042 -12.18413713 17.30480885 -10.51171875 11.50390625 C-10.28613281 10.69824219 -10.06054688 9.89257812 -9.828125 9.0625 C-8.16371561 3.18289998 -8.16371561 3.18289998 -7.01171875 0.87890625 C-4.18726283 -0.06257906 -2.87000257 -0.1942107 0 0 Z " fill="#F47721" transform="translate(1258.01171875,435.12109375)"/>
<path d="M0 0 C1.20381509 3.91184109 2.38518719 7.83010896 3.5625 11.75 C4.07586914 13.41675781 4.07586914 13.41675781 4.59960938 15.1171875 C4.91865234 16.18710937 5.23769531 17.25703125 5.56640625 18.359375 C5.86490479 19.34389648 6.16340332 20.32841797 6.47094727 21.34277344 C7.00891977 24.04480056 7.03131572 25.4681002 6 28 C3.06004981 30.02755186 1.72295997 30 -2 30 C-3.56811523 28.44287109 -3.56811523 28.44287109 -5.05859375 26.2734375 C-5.60966797 25.48839844 -6.16074219 24.70335937 -6.72851562 23.89453125 C-7.29248047 23.06308594 -7.85644531 22.23164063 -8.4375 21.375 C-9.55916172 19.75639955 -10.68282539 18.13918439 -11.80859375 16.5234375 C-12.34468262 15.74323242 -12.88077148 14.96302734 -13.43310547 14.15917969 C-14.82921437 12.2353425 -16.29800286 10.53012002 -17.91015625 8.7890625 C-20.33552172 5.55221962 -20.47032298 3.95071302 -20 0 C-17.60458732 -0.19585135 -15.20907226 -0.38192107 -12.8125 -0.5625 C-11.80219727 -0.64661133 -11.80219727 -0.64661133 -10.77148438 -0.73242188 C-6.95239077 -1.01186775 -3.72073974 -0.83400732 0 0 Z " fill="#F47721" transform="translate(1099,436)"/>
<path d="M0 0 C5.53022799 1.1060456 6.9648055 2.66648863 10.25 6.8125 C10.72091064 7.38766357 11.19182129 7.96282715 11.67700195 8.55541992 C16.29212298 14.23992666 20.66450308 20.10088125 25 26 C25.33 17.42 25.66 8.84 26 0 C27.32 0 28.64 0 30 0 C30 11.55 30 23.1 30 35 C24.46977201 33.8939544 23.0351945 32.33351137 19.75 28.1875 C19.27908936 27.61233643 18.80817871 27.03717285 18.32299805 26.44458008 C13.70787702 20.76007334 9.33549692 14.89911875 5 9 C4.67 17.58 4.34 26.16 4 35 C2.68 35 1.36 35 0 35 C0 23.45 0 11.9 0 0 Z " fill="#040707" transform="translate(1091,598)"/>
<path d="M0 0 C5.53022799 1.1060456 6.9648055 2.66648863 10.25 6.8125 C10.72091064 7.38766357 11.19182129 7.96282715 11.67700195 8.55541992 C16.29212298 14.23992666 20.66450308 20.10088125 25 26 C25.33 17.42 25.66 8.84 26 0 C27.32 0 28.64 0 30 0 C30 11.55 30 23.1 30 35 C24.46977201 33.8939544 23.0351945 32.33351137 19.75 28.1875 C19.27908936 27.61233643 18.80817871 27.03717285 18.32299805 26.44458008 C13.70787702 20.76007334 9.33549692 14.89911875 5 9 C4.67 17.58 4.34 26.16 4 35 C2.68 35 1.36 35 0 35 C0 23.45 0 11.9 0 0 Z " fill="#040707" transform="translate(735,598)"/>
<path d="M0 0 C5.53022799 1.1060456 6.9648055 2.66648863 10.25 6.8125 C10.72091064 7.38766357 11.19182129 7.96282715 11.67700195 8.55541992 C16.29212298 14.23992666 20.66450308 20.10088125 25 26 C25.33 17.42 25.66 8.84 26 0 C27.32 0 28.64 0 30 0 C30 11.55 30 23.1 30 35 C24.46977201 33.8939544 23.0351945 32.33351137 19.75 28.1875 C19.27908936 27.61233643 18.80817871 27.03717285 18.32299805 26.44458008 C13.70787702 20.76007334 9.33549692 14.89911875 5 9 C4.67 17.58 4.34 26.16 4 35 C2.68 35 1.36 35 0 35 C0 23.45 0 11.9 0 0 Z " fill="#040707" transform="translate(605,598)"/>
<path d="M0 0 C3.9614221 2.97106658 6.9035406 6.08562181 8.5 10.875 C9.0079081 17.09687421 9.25354356 22.62003901 5.5 27.875 C0.792439 32.59542319 -3.07473888 34.0484387 -9.6875 34.25 C-15.87265298 34.18112302 -20.08277462 33.34649105 -24.5 28.875 C-27.93777024 24.36966009 -29.18592743 19.74493461 -28.875 14.109375 C-27.93336955 8.49882688 -25.63476701 4.31628341 -21.0625 0.875 C-14.64464166 -2.68913897 -6.80915213 -2.18865604 0 0 Z M-21.75 8.125 C-23.93545768 11.55929064 -24.42983257 13.80528902 -24.5 17.875 C-23.00624711 22.51349581 -21.30130239 25.78644181 -17.5 28.875 C-11.87005027 30.75164991 -6.40970492 30.81249151 -1.0625 28.1875 C2.97803012 24.54116794 4.65438768 21.8805627 4.9375 16.4375 C4.7722151 11.92221696 3.5285818 9.31284961 0.5 5.875 C-3.37571876 2.45524815 -7.16726728 2.42039636 -12.1328125 2.58984375 C-16.54813012 3.12172195 -18.69273811 5.06773811 -21.75 8.125 Z " fill="#040707" transform="translate(884.5,599.125)"/>
<path d="M0 0 C3.17625 -0.0825 6.3525 -0.165 9.625 -0.25 C10.6145166 -0.28641602 11.6040332 -0.32283203 12.62353516 -0.36035156 C18.42700217 -0.43308553 21.56531373 0.18361134 26 4 C28.59076756 7.41510269 28.35933413 10.83172404 28 15 C26.42275698 18.98066095 25.58999089 20.60667274 22 23 C23.37626099 27.01409454 25.34304697 29.72309126 28 33 C28 33.66 28 34.32 28 35 C25.69140625 35.30859375 25.69140625 35.30859375 23 35 C21.40234375 32.84765625 21.40234375 32.84765625 19.9375 30.0625 C17.76592063 26.64105605 16.83240583 25.23678712 12.8828125 24.11328125 C9.88712066 23.89829631 6.99746114 23.83265406 4 24 C4 27.63 4 31.26 4 35 C2.68 35 1.36 35 0 35 C0 23.45 0 11.9 0 0 Z M4 4 C4 9.28 4 14.56 4 20 C6.2275 20.04125 8.455 20.0825 10.75 20.125 C12.62945313 20.15980469 12.62945313 20.15980469 14.546875 20.1953125 C17.75159455 20.01405008 19.44331077 19.8777598 22 18 C23.51142987 14.35882803 24.25797987 12.05537218 23.3125 8.1875 C22.04459233 5.72055475 22.04459233 5.72055475 19 4 C16.3886146 3.85730134 13.91622711 3.81227296 11.3125 3.875 C7.6928125 3.936875 7.6928125 3.936875 4 4 Z " fill="#040707" transform="translate(940,598)"/>
<path d="M0 0 C1.64453125 0.8125 1.64453125 0.8125 3.83203125 2.3125 C3.83203125 3.6325 3.83203125 4.9525 3.83203125 6.3125 C0.83203125 6.3125 0.83203125 6.3125 -1.05078125 5.3359375 C-4.91482062 3.46808083 -8.98147428 3.79001491 -13.16796875 4.3125 C-17.2569069 6.17110825 -18.78721009 7.70566588 -21.16796875 11.5 C-22.43326979 16.32396021 -22.00289444 19.70737097 -20.16796875 24.3125 C-17.87579209 27.2701473 -16.7200504 28.12847278 -13.16796875 29.3125 C-11.50338202 29.40558544 -9.83514878 29.44246185 -8.16796875 29.4375 C-6.86859375 29.44136719 -6.86859375 29.44136719 -5.54296875 29.4453125 C-3.0178518 29.40844205 -3.0178518 29.40844205 -0.16796875 28.3125 C0.16203125 24.3525 0.49203125 20.3925 0.83203125 16.3125 C2.15203125 16.3125 3.47203125 16.3125 4.83203125 16.3125 C4.93997402 18.58229665 5.01759301 20.85355196 5.08203125 23.125 C5.1284375 24.38957031 5.17484375 25.65414062 5.22265625 26.95703125 C4.83203125 30.3125 4.83203125 30.3125 3.00390625 32.19921875 C-2.77654982 35.16222231 -8.82131889 34.95766772 -15.16796875 34.3125 C-20.02798765 32.68233692 -23.11420265 29.98078045 -25.66796875 25.5625 C-27.85300572 20.37303719 -28.09863671 15.54657116 -26.54296875 10.140625 C-24.6197336 5.57294153 -21.98642687 2.56533978 -17.6484375 0.15625 C-12.09629548 -1.73235264 -5.59865653 -1.77542982 0 0 Z " fill="#040707" transform="translate(800.16796875,598.6875)"/>
<path d="M0 0 C1.64453125 0.8125 1.64453125 0.8125 3.83203125 2.3125 C3.83203125 3.6325 3.83203125 4.9525 3.83203125 6.3125 C0.83203125 6.3125 0.83203125 6.3125 -1.05078125 5.3359375 C-4.91482062 3.46808083 -8.98147428 3.79001491 -13.16796875 4.3125 C-17.2569069 6.17110825 -18.78721009 7.70566588 -21.16796875 11.5 C-22.43326979 16.32396021 -22.00289444 19.70737097 -20.16796875 24.3125 C-17.87579209 27.2701473 -16.7200504 28.12847278 -13.16796875 29.3125 C-11.50338202 29.40558544 -9.83514878 29.44246185 -8.16796875 29.4375 C-6.86859375 29.44136719 -6.86859375 29.44136719 -5.54296875 29.4453125 C-3.0178518 29.40844205 -3.0178518 29.40844205 -0.16796875 28.3125 C0.16203125 24.3525 0.49203125 20.3925 0.83203125 16.3125 C2.15203125 16.3125 3.47203125 16.3125 4.83203125 16.3125 C4.93997402 18.58229665 5.01759301 20.85355196 5.08203125 23.125 C5.1284375 24.38957031 5.17484375 25.65414062 5.22265625 26.95703125 C4.83203125 30.3125 4.83203125 30.3125 3.00390625 32.19921875 C-2.77654982 35.16222231 -8.82131889 34.95766772 -15.16796875 34.3125 C-20.02798765 32.68233692 -23.11420265 29.98078045 -25.66796875 25.5625 C-27.85300572 20.37303719 -28.09863671 15.54657116 -26.54296875 10.140625 C-24.6197336 5.57294153 -21.98642687 2.56533978 -17.6484375 0.15625 C-12.09629548 -1.73235264 -5.59865653 -1.77542982 0 0 Z " fill="#040707" transform="translate(705.16796875,598.6875)"/>
<path d="M0 0 C1.32 0 2.64 0 4 0 C4.33 6.27 4.66 12.54 5 19 C8.70207356 15.37347896 12.29260353 11.72912298 15.6875 7.8125 C16.26757812 7.14863281 16.84765625 6.48476563 17.4453125 5.80078125 C18.66944967 4.38287362 19.87041121 2.94495611 21.0625 1.5 C23.73680179 -0.57042719 25.71354204 -0.29876891 29 0 C24.70214922 5.03163018 20.36574458 10.02718443 16 15 C17.53068075 20.07643489 20.66574505 23.38141326 24.125 27.25 C30 33.89130435 30 33.89130435 30 35 C27.29296875 35.296875 27.29296875 35.296875 24 35 C21.55078125 32.953125 21.55078125 32.953125 19.3125 30.25 C18.56613281 29.36828125 17.81976562 28.4865625 17.05078125 27.578125 C15.32738468 25.41156932 13.64083682 23.22945447 12 21 C9.10415417 22.29813778 7.01842387 23.53303749 5 26 C4.42676193 28.27161255 4.42676193 28.27161255 4.3125 30.6875 C4.24675781 31.49574219 4.18101563 32.30398438 4.11328125 33.13671875 C4.07589844 33.75160156 4.03851562 34.36648438 4 35 C2.68 35 1.36 35 0 35 C0 23.45 0 11.9 0 0 Z " fill="#040707" transform="translate(1672,598)"/>
<path d="M0 0 C1.65 0 3.3 0 5 0 C10.96125188 11.40496743 16.02620956 23.13694093 21 35 C19.35 35 17.7 35 16 35 C12 28.25 12 28.25 12 26 C5.73 26 -0.54 26 -7 26 C-7.99 28.97 -8.98 31.94 -10 35 C-11.65 35 -13.3 35 -15 35 C-12.60564599 27.14483861 -9.30109532 19.86257862 -5.8125 12.4375 C-5.24760008 11.22611971 -4.68314371 10.01453248 -4.11914062 8.80273438 C-2.75042601 5.86643209 -1.377291 2.93228668 0 0 Z M2 5 C0.82887054 7.62309099 -0.33705964 10.24828142 -1.5 12.875 C-1.83386719 13.62136719 -2.16773438 14.36773438 -2.51171875 15.13671875 C-2.82753906 15.85214844 -3.14335938 16.56757812 -3.46875 17.3046875 C-3.90864258 18.2944458 -3.90864258 18.2944458 -4.35742188 19.30419922 C-5.11811255 21.00946207 -5.11811255 21.00946207 -5 23 C-0.05 23 4.9 23 10 23 C8.02989474 16.79416842 5.74844552 10.90148454 3 5 C2.67 5 2.34 5 2 5 Z " fill="#040707" transform="translate(1849,598)"/>
<path d="M0 0 C1.65 0 3.3 0 5 0 C10.96125188 11.40496743 16.02620956 23.13694093 21 35 C19.35 35 17.7 35 16 35 C12 28.25 12 28.25 12 26 C5.73 26 -0.54 26 -7 26 C-7.99 28.97 -8.98 31.94 -10 35 C-11.65 35 -13.3 35 -15 35 C-12.60564599 27.14483861 -9.30109532 19.86257862 -5.8125 12.4375 C-5.24760008 11.22611971 -4.68314371 10.01453248 -4.11914062 8.80273438 C-2.75042601 5.86643209 -1.377291 2.93228668 0 0 Z M2 5 C0.82887054 7.62309099 -0.33705964 10.24828142 -1.5 12.875 C-1.83386719 13.62136719 -2.16773438 14.36773438 -2.51171875 15.13671875 C-2.82753906 15.85214844 -3.14335938 16.56757812 -3.46875 17.3046875 C-3.90864258 18.2944458 -3.90864258 18.2944458 -4.35742188 19.30419922 C-5.11811255 21.00946207 -5.11811255 21.00946207 -5 23 C-0.05 23 4.9 23 10 23 C8.02989474 16.79416842 5.74844552 10.90148454 3 5 C2.67 5 2.34 5 2 5 Z " fill="#040707" transform="translate(1761,598)"/>
<path d="M0 0 C1.65 0 3.3 0 5 0 C10.96125188 11.40496743 16.02620956 23.13694093 21 35 C19.35 35 17.7 35 16 35 C12 28.25 12 28.25 12 26 C5.73 26 -0.54 26 -7 26 C-7.99 28.97 -8.98 31.94 -10 35 C-11.65 35 -13.3 35 -15 35 C-12.60564599 27.14483861 -9.30109532 19.86257862 -5.8125 12.4375 C-5.24760008 11.22611971 -4.68314371 10.01453248 -4.11914062 8.80273438 C-2.75042601 5.86643209 -1.377291 2.93228668 0 0 Z M2 5 C0.82887054 7.62309099 -0.33705964 10.24828142 -1.5 12.875 C-1.83386719 13.62136719 -2.16773438 14.36773438 -2.51171875 15.13671875 C-2.82753906 15.85214844 -3.14335938 16.56757812 -3.46875 17.3046875 C-3.90864258 18.2944458 -3.90864258 18.2944458 -4.35742188 19.30419922 C-5.11811255 21.00946207 -5.11811255 21.00946207 -5 23 C-0.05 23 4.9 23 10 23 C8.02989474 16.79416842 5.74844552 10.90148454 3 5 C2.67 5 2.34 5 2 5 Z " fill="#040707" transform="translate(1381,598)"/>
<path d="M0 0 C1.65 0 3.3 0 5 0 C10.96125188 11.40496743 16.02620956 23.13694093 21 35 C19.35 35 17.7 35 16 35 C12 28.25 12 28.25 12 26 C5.73 26 -0.54 26 -7 26 C-7.99 28.97 -8.98 31.94 -10 35 C-11.65 35 -13.3 35 -15 35 C-12.60564599 27.14483861 -9.30109532 19.86257862 -5.8125 12.4375 C-5.24760008 11.22611971 -4.68314371 10.01453248 -4.11914062 8.80273438 C-2.75042601 5.86643209 -1.377291 2.93228668 0 0 Z M2 5 C0.82887054 7.62309099 -0.33705964 10.24828142 -1.5 12.875 C-1.83386719 13.62136719 -2.16773438 14.36773438 -2.51171875 15.13671875 C-2.82753906 15.85214844 -3.14335938 16.56757812 -3.46875 17.3046875 C-3.90864258 18.2944458 -3.90864258 18.2944458 -4.35742188 19.30419922 C-5.11811255 21.00946207 -5.11811255 21.00946207 -5 23 C-0.05 23 4.9 23 10 23 C8.02989474 16.79416842 5.74844552 10.90148454 3 5 C2.67 5 2.34 5 2 5 Z " fill="#040707" transform="translate(656,598)"/>
<path d="M0 0 C1.65 0 3.3 0 5 0 C10.96125188 11.40496743 16.02620956 23.13694093 21 35 C19.35 35 17.7 35 16 35 C12 28.25 12 28.25 12 26 C5.73 26 -0.54 26 -7 26 C-7.99 28.97 -8.98 31.94 -10 35 C-11.65 35 -13.3 35 -15 35 C-12.60564599 27.14483861 -9.30109532 19.86257862 -5.8125 12.4375 C-5.24760008 11.22611971 -4.68314371 10.01453248 -4.11914062 8.80273438 C-2.75042601 5.86643209 -1.377291 2.93228668 0 0 Z M2 5 C0.82887054 7.62309099 -0.33705964 10.24828142 -1.5 12.875 C-1.83386719 13.62136719 -2.16773438 14.36773438 -2.51171875 15.13671875 C-2.82753906 15.85214844 -3.14335938 16.56757812 -3.46875 17.3046875 C-3.90864258 18.2944458 -3.90864258 18.2944458 -4.35742188 19.30419922 C-5.11811255 21.00946207 -5.11811255 21.00946207 -5 23 C-0.05 23 4.9 23 10 23 C8.02989474 16.79416842 5.74844552 10.90148454 3 5 C2.67 5 2.34 5 2 5 Z " fill="#040707" transform="translate(579,598)"/>
<path d="M0 0 C7.92 0 15.84 0 24 0 C24 1.32 24 2.64 24 4 C17.4 4 10.8 4 4 4 C4 7.63 4 11.26 4 15 C9.94 15 15.88 15 22 15 C22 16.32 22 17.64 22 19 C16.06 19 10.12 19 4 19 C4 22.96 4 26.92 4 31 C10.93 31 17.86 31 25 31 C25 32.32 25 33.64 25 35 C16.75 35 8.5 35 0 35 C0 23.45 0 11.9 0 0 Z " fill="#040707" transform="translate(1453,598)"/>
<path d="M0 0 C7.92 0 15.84 0 24 0 C24 1.32 24 2.64 24 4 C17.4 4 10.8 4 4 4 C4 7.63 4 11.26 4 15 C9.94 15 15.88 15 22 15 C22 16.32 22 17.64 22 19 C16.06 19 10.12 19 4 19 C4 22.96 4 26.92 4 31 C10.93 31 17.86 31 25 31 C25 32.32 25 33.64 25 35 C16.75 35 8.5 35 0 35 C0 23.45 0 11.9 0 0 Z " fill="#040707" transform="translate(1057,598)"/>
<path d="M0 0 C7.92 0 15.84 0 24 0 C24 1.32 24 2.64 24 4 C17.4 4 10.8 4 4 4 C4 7.63 4 11.26 4 15 C9.94 15 15.88 15 22 15 C22 16.32 22 17.64 22 19 C16.06 19 10.12 19 4 19 C4 22.96 4 26.92 4 31 C10.93 31 17.86 31 25 31 C25 32.32 25 33.64 25 35 C16.75 35 8.5 35 0 35 C0 23.45 0 11.9 0 0 Z " fill="#040707" transform="translate(990,598)"/>
<path d="M0 0 C0.69222656 0.32097656 1.38445312 0.64195312 2.09765625 0.97265625 C1.76765625 2.29265625 1.43765625 3.61265625 1.09765625 4.97265625 C0.47890625 4.80765625 -0.13984375 4.64265625 -0.77734375 4.47265625 C-6.41952612 3.56990707 -12.03435537 2.72733066 -16.90234375 5.97265625 C-17.15255945 9.05631496 -17.15255945 9.05631496 -16.90234375 11.97265625 C-16.10570312 12.15441406 -15.3090625 12.33617187 -14.48828125 12.5234375 C-1.19899447 15.67600553 -1.19899447 15.67600553 3.09765625 19.97265625 C3.72763462 23.05591579 3.66251506 25.88191935 3.09765625 28.97265625 C0.95966571 32.0538779 0.45072029 32.75760865 -2.90234375 33.97265625 C-8.88831916 34.76512581 -15.53778113 35.46987628 -20.77734375 31.97265625 C-21.47859375 31.31265625 -22.17984375 30.65265625 -22.90234375 29.97265625 C-22.24234375 28.65265625 -21.58234375 27.33265625 -20.90234375 25.97265625 C-20.11859375 26.46765625 -19.33484375 26.96265625 -18.52734375 27.47265625 C-13.93871895 29.37139755 -9.81821887 29.62415777 -4.90234375 28.97265625 C-3.91234375 28.31265625 -2.92234375 27.65265625 -1.90234375 26.97265625 C-1.85066848 24.54998539 -1.85066848 24.54998539 -2.90234375 21.97265625 C-5.98982495 20.3002706 -8.92658709 19.27959957 -12.26171875 18.23046875 C-13.050625 17.98039063 -13.83953125 17.7303125 -14.65234375 17.47265625 C-15.3896875 17.25609375 -16.12703125 17.03953125 -16.88671875 16.81640625 C-19.21079687 15.84353634 -20.38313828 14.98268194 -21.90234375 12.97265625 C-22.64978305 9.87860519 -22.53440431 7.08391989 -21.90234375 3.97265625 C-16.92977953 -2.98893365 -7.61638942 -2.69597633 0 0 Z " fill="#040707" transform="translate(1726.90234375,599.02734375)"/>
<path d="M0 0 C0.69222656 0.32097656 1.38445312 0.64195312 2.09765625 0.97265625 C1.76765625 2.29265625 1.43765625 3.61265625 1.09765625 4.97265625 C0.47890625 4.80765625 -0.13984375 4.64265625 -0.77734375 4.47265625 C-6.41952612 3.56990707 -12.03435537 2.72733066 -16.90234375 5.97265625 C-17.15255945 9.05631496 -17.15255945 9.05631496 -16.90234375 11.97265625 C-16.10570312 12.15441406 -15.3090625 12.33617187 -14.48828125 12.5234375 C-1.19899447 15.67600553 -1.19899447 15.67600553 3.09765625 19.97265625 C3.72763462 23.05591579 3.66251506 25.88191935 3.09765625 28.97265625 C0.95966571 32.0538779 0.45072029 32.75760865 -2.90234375 33.97265625 C-8.88831916 34.76512581 -15.53778113 35.46987628 -20.77734375 31.97265625 C-21.47859375 31.31265625 -22.17984375 30.65265625 -22.90234375 29.97265625 C-22.24234375 28.65265625 -21.58234375 27.33265625 -20.90234375 25.97265625 C-20.11859375 26.46765625 -19.33484375 26.96265625 -18.52734375 27.47265625 C-13.93871895 29.37139755 -9.81821887 29.62415777 -4.90234375 28.97265625 C-3.91234375 28.31265625 -2.92234375 27.65265625 -1.90234375 26.97265625 C-1.85066848 24.54998539 -1.85066848 24.54998539 -2.90234375 21.97265625 C-5.98982495 20.3002706 -8.92658709 19.27959957 -12.26171875 18.23046875 C-13.050625 17.98039063 -13.83953125 17.7303125 -14.65234375 17.47265625 C-15.3896875 17.25609375 -16.12703125 17.03953125 -16.88671875 16.81640625 C-19.21079687 15.84353634 -20.38313828 14.98268194 -21.90234375 12.97265625 C-22.64978305 9.87860519 -22.53440431 7.08391989 -21.90234375 3.97265625 C-16.92977953 -2.98893365 -7.61638942 -2.69597633 0 0 Z " fill="#040707" transform="translate(1318.90234375,599.02734375)"/>
<path d="M0 0 C0.69222656 0.32097656 1.38445312 0.64195312 2.09765625 0.97265625 C1.76765625 2.29265625 1.43765625 3.61265625 1.09765625 4.97265625 C0.47890625 4.80765625 -0.13984375 4.64265625 -0.77734375 4.47265625 C-6.41952612 3.56990707 -12.03435537 2.72733066 -16.90234375 5.97265625 C-17.15255945 9.05631496 -17.15255945 9.05631496 -16.90234375 11.97265625 C-16.10570312 12.15441406 -15.3090625 12.33617187 -14.48828125 12.5234375 C-1.19899447 15.67600553 -1.19899447 15.67600553 3.09765625 19.97265625 C3.72763462 23.05591579 3.66251506 25.88191935 3.09765625 28.97265625 C0.95966571 32.0538779 0.45072029 32.75760865 -2.90234375 33.97265625 C-8.88831916 34.76512581 -15.53778113 35.46987628 -20.77734375 31.97265625 C-21.47859375 31.31265625 -22.17984375 30.65265625 -22.90234375 29.97265625 C-22.24234375 28.65265625 -21.58234375 27.33265625 -20.90234375 25.97265625 C-20.11859375 26.46765625 -19.33484375 26.96265625 -18.52734375 27.47265625 C-13.93871895 29.37139755 -9.81821887 29.62415777 -4.90234375 28.97265625 C-3.91234375 28.31265625 -2.92234375 27.65265625 -1.90234375 26.97265625 C-1.85066848 24.54998539 -1.85066848 24.54998539 -2.90234375 21.97265625 C-5.98982495 20.3002706 -8.92658709 19.27959957 -12.26171875 18.23046875 C-13.050625 17.98039063 -13.83953125 17.7303125 -14.65234375 17.47265625 C-15.3896875 17.25609375 -16.12703125 17.03953125 -16.88671875 16.81640625 C-19.21079687 15.84353634 -20.38313828 14.98268194 -21.90234375 12.97265625 C-22.64978305 9.87860519 -22.53440431 7.08391989 -21.90234375 3.97265625 C-16.92977953 -2.98893365 -7.61638942 -2.69597633 0 0 Z " fill="#040707" transform="translate(1208.90234375,599.02734375)"/>
<path d="M0 0 C1.32 0 2.64 0 4 0 C4.02187378 0.9446814 4.02187378 0.9446814 4.04418945 1.90844727 C4.11918994 4.79371321 4.21567639 7.67788723 4.3125 10.5625 C4.33505859 11.55314453 4.35761719 12.54378906 4.38085938 13.56445312 C4.59434395 19.40616746 5.14197163 23.85554893 8 29 C11.45321627 30.72660813 15.22398729 30.49047852 19 30 C22.3002213 27.68984509 23.24971619 25.84730061 24 22 C24.1437323 20.2683761 24.24574932 18.53301667 24.31640625 16.796875 C24.35830078 15.8171875 24.40019531 14.8375 24.44335938 13.828125 C24.48267578 12.81234375 24.52199219 11.7965625 24.5625 10.75 C24.60568359 9.71875 24.64886719 8.6875 24.69335938 7.625 C24.79925682 5.0834613 24.90133443 2.54182804 25 0 C26.32 0 27.64 0 29 0 C29.08770383 3.85402129 29.14062735 7.70778291 29.1875 11.5625 C29.21263672 12.64853516 29.23777344 13.73457031 29.26367188 14.85351562 C29.33256597 22.40890128 29.12877495 27.71077505 23.71484375 33.40234375 C18.77106276 36.31170551 13.54262224 35.80075573 8 35 C4.38938115 33.42871217 2.55510749 31.17507291 0.86328125 27.59375 C-0.4151245 22.27187993 -0.2084579 17.07544317 -0.125 11.625 C-0.11597656 10.50738281 -0.10695313 9.38976562 -0.09765625 8.23828125 C-0.07418346 5.49196538 -0.04134728 2.74609528 0 0 Z " fill="#040707" transform="translate(1259,598)"/>
<path d="M0 0 C1.32 0 2.64 0 4 0 C4.02187378 0.9446814 4.02187378 0.9446814 4.04418945 1.90844727 C4.11918994 4.79371321 4.21567639 7.67788723 4.3125 10.5625 C4.33505859 11.55314453 4.35761719 12.54378906 4.38085938 13.56445312 C4.59434395 19.40616746 5.14197163 23.85554893 8 29 C11.45321627 30.72660813 15.22398729 30.49047852 19 30 C22.3002213 27.68984509 23.24971619 25.84730061 24 22 C24.1437323 20.2683761 24.24574932 18.53301667 24.31640625 16.796875 C24.35830078 15.8171875 24.40019531 14.8375 24.44335938 13.828125 C24.48267578 12.81234375 24.52199219 11.7965625 24.5625 10.75 C24.60568359 9.71875 24.64886719 8.6875 24.69335938 7.625 C24.79925682 5.0834613 24.90133443 2.54182804 25 0 C26.32 0 27.64 0 29 0 C29.08770383 3.85402129 29.14062735 7.70778291 29.1875 11.5625 C29.21263672 12.64853516 29.23777344 13.73457031 29.26367188 14.85351562 C29.33256597 22.40890128 29.12877495 27.71077505 23.71484375 33.40234375 C18.77106276 36.31170551 13.54262224 35.80075573 8 35 C4.38938115 33.42871217 2.55510749 31.17507291 0.86328125 27.59375 C-0.4151245 22.27187993 -0.2084579 17.07544317 -0.125 11.625 C-0.11597656 10.50738281 -0.10695313 9.38976562 -0.09765625 8.23828125 C-0.07418346 5.49196538 -0.04134728 2.74609528 0 0 Z " fill="#040707" transform="translate(901,598)"/>
<path d="M0 0 C2.23892729 1.43312979 3.67419984 2.77418093 4.8671875 5.16015625 C2.8871875 6.15015625 2.8871875 6.15015625 0.8671875 7.16015625 C0.30902344 6.67289063 -0.24914063 6.185625 -0.82421875 5.68359375 C-4.68540266 3.13560437 -8.66103479 3.62296218 -13.1328125 4.16015625 C-16.84881548 5.74143411 -19.16702378 7.62173656 -21.1328125 11.16015625 C-22.62259458 16.80004554 -21.88044476 20.05741063 -19.1328125 25.16015625 C-17.11341386 27.68440455 -16.28780654 28.10849157 -13.1328125 29.16015625 C-7.44198355 29.66172084 -2.79013113 29.88601115 1.8671875 26.16015625 C2.8571875 27.48015625 3.8471875 28.80015625 4.8671875 30.16015625 C-1.43102478 34.84719795 -7.42892233 35.23489648 -15.1328125 34.16015625 C-19.99175345 32.49708025 -23.07108477 29.84221115 -25.6328125 25.41015625 C-27.81784947 20.22069344 -28.06348046 15.39422741 -26.5078125 9.98828125 C-24.58537773 5.42249866 -21.9538558 2.41019429 -17.61328125 0.0078125 C-12.08809092 -1.88032341 -5.48467899 -2.15971792 0 0 Z " fill="#040707" transform="translate(1660.1328125,598.83984375)"/>
<path d="M0 0 C2.23892729 1.43312979 3.67419984 2.77418093 4.8671875 5.16015625 C2.8871875 6.15015625 2.8871875 6.15015625 0.8671875 7.16015625 C0.30902344 6.67289063 -0.24914063 6.185625 -0.82421875 5.68359375 C-4.68540266 3.13560437 -8.66103479 3.62296218 -13.1328125 4.16015625 C-16.84881548 5.74143411 -19.16702378 7.62173656 -21.1328125 11.16015625 C-22.62259458 16.80004554 -21.88044476 20.05741063 -19.1328125 25.16015625 C-17.11341386 27.68440455 -16.28780654 28.10849157 -13.1328125 29.16015625 C-7.44198355 29.66172084 -2.79013113 29.88601115 1.8671875 26.16015625 C2.8571875 27.48015625 3.8471875 28.80015625 4.8671875 30.16015625 C-1.43102478 34.84719795 -7.42892233 35.23489648 -15.1328125 34.16015625 C-19.99175345 32.49708025 -23.07108477 29.84221115 -25.6328125 25.41015625 C-27.81784947 20.22069344 -28.06348046 15.39422741 -26.5078125 9.98828125 C-24.58537773 5.42249866 -21.9538558 2.41019429 -17.61328125 0.0078125 C-12.08809092 -1.88032341 -5.48467899 -2.15971792 0 0 Z " fill="#040707" transform="translate(1579.1328125,598.83984375)"/>
<path d="M0 0 C1.65 0 3.3 0 5 0 C8.96 9.24 12.92 18.48 17 28 C20.90670927 19.16042033 20.90670927 19.16042033 24.80834961 10.31860352 C25.29311768 9.22475342 25.77788574 8.13090332 26.27734375 7.00390625 C26.77484131 5.87799072 27.27233887 4.7520752 27.78491211 3.59204102 C29 1 29 1 30 0 C31.66617115 -0.04063832 33.33388095 -0.042721 35 0 C34.72325439 0.63389648 34.44650879 1.26779297 34.16137695 1.92089844 C26.95078229 18.40517797 26.95078229 18.40517797 20 35 C18.35 35 16.7 35 15 35 C10.84946477 27.04913095 7.05097266 19.01312319 3.5625 10.75 C3.20865234 9.91621826 2.85480469 9.08243652 2.49023438 8.22338867 C2.16474609 7.44326416 1.83925781 6.66313965 1.50390625 5.859375 C1.21330322 5.16295898 0.9227002 4.46654297 0.62329102 3.74902344 C0 2 0 2 0 0 Z " fill="#040707" transform="translate(1018,598)"/>
<path d="M0 0 C7.92 0 15.84 0 24 0 C24 1.32 24 2.64 24 4 C17.4 4 10.8 4 4 4 C4 8.29 4 12.58 4 17 C9.94 17 15.88 17 22 17 C22 18.32 22 19.64 22 21 C16.06 21 10.12 21 4 21 C4 25.62 4 30.24 4 35 C2.68 35 1.36 35 0 35 C0 23.45 0 11.9 0 0 Z " fill="#040707" transform="translate(1421,598)"/>
<path d="M0 0 C2.16796875 -0.4921875 2.16796875 -0.4921875 5 0 C7.18063988 2.3707065 8.70801 5.093884 10.3125 7.875 C10.76689453 8.62136719 11.22128906 9.36773438 11.68945312 10.13671875 C15 15.66259398 15 15.66259398 15 18 C15.66 18 16.32 18 17 18 C17.25136719 17.31550781 17.50273438 16.63101563 17.76171875 15.92578125 C19.20208258 12.52252411 20.93380427 9.36111595 22.8125 6.1875 C23.14314453 5.59001953 23.47378906 4.99253906 23.81445312 4.37695312 C24.83203125 2.66796875 24.83203125 2.66796875 27 0 C29.76171875 -0.38671875 29.76171875 -0.38671875 32 0 C31.13730163 1.52417181 30.27408672 3.04805327 29.40844727 4.57055664 C28.67314381 5.86507729 27.94059035 7.16116355 27.21069336 8.45874023 C25.31332634 11.80720816 23.34276016 14.95732219 21.0625 18.0625 C17.77950566 23.0971591 18.09777905 29.16881302 18 35 C16.68 35 15.36 35 14 35 C14.00394775 34.26281738 14.00789551 33.52563477 14.01196289 32.76611328 C13.72688808 24.16738188 11.24611652 18.88777689 6.4375 11.875 C5.22467969 10.04116489 4.01487509 8.2053305 2.80859375 6.3671875 C2.27032959 5.57425293 1.73206543 4.78131836 1.17749023 3.96435547 C0 2 0 2 0 0 Z " fill="#040707" transform="translate(1868,598)"/>
<path d="M0 0 C2.16796875 -0.4921875 2.16796875 -0.4921875 5 0 C7.18063988 2.3707065 8.70801 5.093884 10.3125 7.875 C10.76689453 8.62136719 11.22128906 9.36773438 11.68945312 10.13671875 C15 15.66259398 15 15.66259398 15 18 C15.66 18 16.32 18 17 18 C17.25136719 17.31550781 17.50273438 16.63101563 17.76171875 15.92578125 C19.20208258 12.52252411 20.93380427 9.36111595 22.8125 6.1875 C23.14314453 5.59001953 23.47378906 4.99253906 23.81445312 4.37695312 C24.83203125 2.66796875 24.83203125 2.66796875 27 0 C29.76171875 -0.38671875 29.76171875 -0.38671875 32 0 C31.13730163 1.52417181 30.27408672 3.04805327 29.40844727 4.57055664 C28.67314381 5.86507729 27.94059035 7.16116355 27.21069336 8.45874023 C25.31332634 11.80720816 23.34276016 14.95732219 21.0625 18.0625 C17.77950566 23.0971591 18.09777905 29.16881302 18 35 C16.68 35 15.36 35 14 35 C14.00394775 34.26281738 14.00789551 33.52563477 14.01196289 32.76611328 C13.72688808 24.16738188 11.24611652 18.88777689 6.4375 11.875 C5.22467969 10.04116489 4.01487509 8.2053305 2.80859375 6.3671875 C2.27032959 5.57425293 1.73206543 4.78131836 1.17749023 3.96435547 C0 2 0 2 0 0 Z " fill="#040707" transform="translate(823,598)"/>
<path d="M0 0 C5.61 0 11.22 0 17 0 C17.08089106 4.56285508 17.14045647 9.12427754 17.1875 13.6875 C17.21263672 14.98107422 17.23777344 16.27464844 17.26367188 17.60742188 C17.27333984 18.85458984 17.28300781 20.10175781 17.29296875 21.38671875 C17.3086792 22.53358154 17.32438965 23.68044434 17.34057617 24.86206055 C16.85684771 29.31895079 15.12404403 31.87595597 12 35 C7.29468924 35.64125474 3.17208986 35.56260313 -1.125 33.5 C-1.74375 33.005 -2.3625 32.51 -3 32 C-2.67 30.35 -2.34 28.7 -2 27 C1.875 28.875 1.875 28.875 3 30 C5.33297433 30.04092937 7.66705225 30.04241723 10 30 C11.83315508 26.84825969 12.28752252 24.42435429 12.4140625 20.796875 C12.45273438 19.8171875 12.49140625 18.8375 12.53125 17.828125 C12.5621875 16.81234375 12.593125 15.7965625 12.625 14.75 C12.66367188 13.71875 12.70234375 12.6875 12.7421875 11.625 C12.83631256 9.08362337 12.91923931 6.54183642 13 4 C8.71 4 4.42 4 0 4 C0 2.68 0 1.36 0 0 Z " fill="#040707" transform="translate(1232,598)"/>
<path d="M0 0 C9.57 0 19.14 0 29 0 C29 1.32 29 2.64 29 4 C24.71 4 20.42 4 16 4 C16 14.23 16 24.46 16 35 C14.68 35 13.36 35 12 35 C12 24.77 12 14.54 12 4 C8.04 4 4.08 4 0 4 C0 2.68 0 1.36 0 0 Z " fill="#040707" transform="translate(1324,598)"/>
<path d="M0 0 C9.57 0 19.14 0 29 0 C29 1.32 29 2.64 29 4 C24.71 4 20.42 4 16 4 C16 14.23 16 24.46 16 35 C14.68 35 13.36 35 12 35 C12 24.77 12 14.54 12 4 C8.04 4 4.08 4 0 4 C0 2.68 0 1.36 0 0 Z " fill="#040707" transform="translate(1127,598)"/>
<path d="M0 0 C1.32 0 2.64 0 4 0 C4 10.23 4 20.46 4 31 C10.6 31 17.2 31 24 31 C24 32.32 24 33.64 24 35 C16.08 35 8.16 35 0 35 C0 23.45 0 11.9 0 0 Z " fill="#040707" transform="translate(1591,598)"/>
<path d="M0 0 C1.32 0 2.64 0 4 0 C4 11.55 4 23.1 4 35 C2.68 35 1.36 35 0 35 C0 23.45 0 11.9 0 0 Z " fill="#040707" transform="translate(1620,598)"/>
<path d="M0 0 C1.32 0 2.64 0 4 0 C4 11.55 4 23.1 4 35 C2.68 35 1.36 35 0 35 C0 23.45 0 11.9 0 0 Z " fill="#040707" transform="translate(1174,598)"/>
<path d="M0 0 C1.32 0 2.64 0 4 0 C4 11.55 4 23.1 4 35 C2.68 35 1.36 35 0 35 C0 23.45 0 11.9 0 0 Z " fill="#040707" transform="translate(720,598)"/>
</svg>
