<svg width="21" height="20" viewBox="0 0 21 20" fill="none" xmlns="http://www.w3.org/2000/svg">
<path d="M20.1826 6.12501C19.6556 4.92976 18.889 3.84336 17.9255 2.92636C16.9648 2.00776 15.8237 1.27742 14.5668 0.776805C13.2793 0.261475 11.8959 -0.00268382 10.4989 2.05565e-05H10.4519C9.03096 0.00671698 7.65697 0.274574 6.36284 0.801359C5.11678 1.30711 3.98635 2.03874 3.03473 2.95537C2.08052 3.87032 1.3227 4.95292 0.803464 6.14287C0.264472 7.38029 -0.00863691 8.70766 0.000208169 10.0469C0.00725427 11.596 0.397139 13.1339 1.12524 14.5089V17.9018C1.12524 18.4688 1.60907 18.9286 2.20329 18.9286H5.76862C7.22217 19.6256 8.82617 19.9924 10.4543 20H10.5036C11.9081 20 13.268 19.7411 14.5504 19.2344C15.8009 18.7397 16.9378 18.0179 17.8973 17.1094C18.865 16.1964 19.6259 15.1295 20.1591 13.9397C20.7111 12.7076 20.9929 11.3973 20.9999 10.0447C21.0046 8.68528 20.7275 7.36608 20.1826 6.12501ZM5.81089 11.0714C5.19084 11.0714 4.68587 10.5915 4.68587 10C4.68587 9.40849 5.19084 8.92858 5.81089 8.92858C6.43095 8.92858 6.93592 9.40849 6.93592 10C6.93592 10.5915 6.4333 11.0714 5.81089 11.0714ZM10.4989 11.0714C9.87884 11.0714 9.37387 10.5915 9.37387 10C9.37387 9.40849 9.87884 8.92858 10.4989 8.92858C11.119 8.92858 11.6239 9.40849 11.6239 10C11.6239 10.5915 11.119 11.0714 10.4989 11.0714ZM15.1869 11.0714C14.5668 11.0714 14.0619 10.5915 14.0619 10C14.0619 9.40849 14.5668 8.92858 15.1869 8.92858C15.807 8.92858 16.3119 9.40849 16.3119 10C16.3119 10.5915 15.807 11.0714 15.1869 11.0714Z" fill="white"/>
</svg>
