<svg width="22" height="17" viewBox="0 0 22 17" fill="none" xmlns="http://www.w3.org/2000/svg">
<path d="M21.2143 0H0.785714C0.351116 0 0 0.345312 0 0.772727V16.2273C0 16.6547 0.351116 17 0.785714 17H21.2143C21.6489 17 22 16.6547 22 16.2273V0.772727C22 0.345312 21.6489 0 21.2143 0ZM6.72768 3.47727C7.59442 3.47727 8.29911 4.17031 8.29911 5.02273C8.29911 5.87514 7.59442 6.56818 6.72768 6.56818C5.86094 6.56818 5.15625 5.87514 5.15625 5.02273C5.15625 4.17031 5.86094 3.47727 6.72768 3.47727ZM19.3458 14.0322C19.31 14.0618 19.2648 14.078 19.2181 14.0781H2.77946C2.67143 14.0781 2.58304 13.9912 2.58304 13.8849C2.58304 13.8391 2.60022 13.7956 2.62969 13.7594L6.81116 8.88153C6.87991 8.79943 7.00513 8.78977 7.08862 8.85739C7.09598 8.86463 7.1058 8.87187 7.11317 8.88153L9.55379 11.731L13.4357 7.20327C13.5045 7.12116 13.6297 7.11151 13.7132 7.17912C13.7205 7.18636 13.7304 7.19361 13.7377 7.20327L19.3752 13.7618C19.4391 13.8415 19.4292 13.9646 19.3458 14.0322Z" fill="#F47721"/>
</svg>
