<svg width="138" height="58" viewBox="0 0 138 58" fill="none" xmlns="http://www.w3.org/2000/svg">
<circle cx="29" cy="29" r="28.5" stroke="#B3B0B0"/>
<path d="M15.2929 28.2929C14.9024 28.6834 14.9024 29.3166 15.2929 29.7071L21.6569 36.0711C22.0474 36.4616 22.6805 36.4616 23.0711 36.0711C23.4616 35.6805 23.4616 35.0474 23.0711 34.6569L17.4142 29L23.0711 23.3431C23.4616 22.9526 23.4616 22.3195 23.0711 21.9289C22.6805 21.5384 22.0474 21.5384 21.6569 21.9289L15.2929 28.2929ZM42 29L42 28L16 28L16 29L16 30L42 30L42 29Z" fill="black"/>
<circle cx="29" cy="29" r="28.5" transform="matrix(-1 0 0 1 138 0)" stroke="#B3B0B0"/>
<path d="M122.707 28.2929C123.098 28.6834 123.098 29.3166 122.707 29.7071L116.343 36.0711C115.953 36.4616 115.319 36.4616 114.929 36.0711C114.538 35.6805 114.538 35.0474 114.929 34.6569L120.586 29L114.929 23.3431C114.538 22.9526 114.538 22.3195 114.929 21.9289C115.319 21.5384 115.953 21.5384 116.343 21.9289L122.707 28.2929ZM96 29L96 28L122 28L122 29L122 30L96 30L96 29Z" fill="black"/>
</svg>
