<svg width="20" height="15" viewBox="0 0 20 15" fill="none" xmlns="http://www.w3.org/2000/svg">
<path d="M19.2661 0H6.88073C6.47477 0 6.14679 0.355132 6.14679 0.794702V6.65563H0.733945C0.327982 6.65563 0 7.01076 0 7.45033V14.2053C0 14.6449 0.327982 15 0.733945 15H13.1193C13.5252 15 13.8532 14.6449 13.8532 14.2053V8.34437H19.2661C19.672 8.34437 20 7.98924 20 7.54967V0.794702C20 0.355132 19.672 0 19.2661 0ZM12.2936 13.3113H7.70642V8.34437H12.2936V13.3113ZM18.4404 6.65563H13.8532V1.68874H18.4404V6.65563Z" fill="#F47721"/>
</svg>
